SplineFontDB: 3.0
FontName: UltimaRunes
FullName: Ultima Runes
FamilyName: UltimaRunes
Weight: Book
Copyright: 
Version: 1.1
ItalicAngle: 0
UnderlinePosition: 0
UnderlineWidth: 0
Ascent: 1638
Descent: 410
InvalidEm: 0
sfntRevision: 0x00000000
LayerCount: 2
Layer: 0 1 "Back" 1
Layer: 1 1 "Fore" 0
XUID: [1021 1010 -1139746145 8670]
StyleMap: 0x0040
FSType: 0
OS2Version: 0
OS2_WeightWidthSlopeOnly: 0
OS2_UseTypoMetrics: 0
CreationTime: -2082844800
ModificationTime: 1559358606
PfmFamily: 17
TTFWeight: 400
TTFWidth: 5
LineGap: 0
VLineGap: 0
Panose: 2 11 6 3 5 3 2 2 2 4
OS2TypoAscent: 1727
OS2TypoAOffset: 0
OS2TypoDescent: -454
OS2TypoDOffset: 0
OS2TypoLinegap: 0
OS2WinAscent: 1727
OS2WinAOffset: 0
OS2WinDescent: 454
OS2WinDOffset: 0
HheadAscent: 1727
HheadAOffset: 0
HheadDescent: -454
HheadDOffset: 0
OS2SubXSize: 0
OS2SubYSize: 0
OS2SubXOff: 0
OS2SubYOff: 0
OS2SupXSize: 0
OS2SupYSize: 0
OS2SupXOff: 0
OS2SupYOff: 0
OS2StrikeYSize: 0
OS2StrikeYPos: 0
OS2Vendor: 'PfEd'
OS2UnicodeRanges: 00000000.00000000.00000000.00000000
Lookup: 4 0 1 "'liga' Standard Ligatures in Latin lookup 0" { "'liga' Standard Ligatures in Latin lookup 0-1"  } ['liga' ('DFLT' <'dflt' > 'latn' <'dflt' > ) ]
MarkAttachClasses: 1
DEI: 91125
ShortTable: maxp 16
  1
  0
  168
  169
  5
  0
  0
  1
  0
  16
  0
  0
  0
  0
  0
  0
EndShort
LangName: 1033 "" "" "Regular" "Ultima Runes Ligatures"
Encoding: UnicodeBmp
UnicodeInterp: none
NameList: AGL For New Fonts
DisplaySize: -48
AntiAlias: 1
FitToEm: 0
WinInfo: 8613 27 9
BeginPrivate: 0
EndPrivate
TeXData: 1 0 0 393216 196608 131072 783427 -1048576 131072 783286 444596 497025 792723 393216 433062 380633 303038 157286 324010 404750 52429 2506097 1059062 262144
BeginChars: 65539 169

StartChar: .notdef
Encoding: 65536 -1 0
Width: 2048
Flags: W
LayerCount: 2
Fore
SplineSet
120 31 m 0,0,1
 120 30 120 30 91 16 c 0,2,3
 89 15 89 15 87 15 c 0,4,5
 64 17 64 17 59 48 c 0,6,7
 34 202 34 202 26 339 c 0,8,9
 15 531 15 531 12 716 c 0,10,11
 9 889 9 889 9 1062 c 0,12,13
 9 1087 9 1087 9.5 1111.5 c 128,-1,14
 10 1136 10 1136 10 1461 c 1,15,16
 16 1538 16 1538 71 1538 c 0,17,18
 71.862745098 1538.01960784 71.862745098 1538.01960784 72.737408689 1538.01960784 c 0,19,20
 116.470588235 1538.01960784 116.470588235 1538.01960784 190 1489 c 0,21,22
 388 1357 388 1357 534 1174 c 0,23,24
 662 1014 662 1014 822 790 c 0,25,26
 832 776 832 776 832 764 c 0,27,28
 832 758 832 758 829 754 c 0,29,30
 825 749 825 749 820 749 c 0,31,32
 812 750 812 750 802 757 c 0,33,34
 637 872 637 872 485 1007 c 0,35,36
 338 1137 338 1137 197 1267 c 1,37,38
 197 1192 197 1192 192.5 1105 c 128,-1,39
 188 1018 188 1018 188 945 c 1,40,41
 357 806 357 806 478 683 c 0,42,43
 635 525 635 525 734 395 c 0,44,45
 747 378 747 378 748 362 c 0,46,47
 750 362 750 362 749 361 c 0,48,49
 745 355 745 355 741 355 c 0,50,51
 732 355 732 355 714 364 c 0,52,53
 634 404 634 404 486 503 c 0,54,55
 310 620 310 620 185 715 c 1,56,57
 169 226 169 226 120 31 c 0,0,1
EndSplineSet
Validated: 1
EndChar

StartChar: question
Encoding: 63 63 4
Width: 1014
Flags: W
LayerCount: 2
Fore
SplineSet
487 430 m 0,0,1
 454 430 454 430 442 455 c 0,2,3
 428 479 428 479 428 518 c 0,4,5
 428 528 428 528 430 550 c 0,6,7
 434 576 434 576 435 577 c 0,8,9
 441 605 441 605 457 637 c 256,10,11
 473 669 473 669 489 701 c 2,12,-1
 561 834 l 1,13,14
 610 934 610 934 623 975 c 0,15,16
 638 1020 638 1020 638 1077 c 256,17,18
 638 1134 638 1134 630 1187 c 0,19,20
 620 1237 620 1237 599 1277 c 0,21,22
 576 1316 576 1316 525 1352 c 0,23,24
 474 1386 474 1386 429 1386 c 0,25,26
 385 1386 385 1386 341 1355 c 0,27,28
 296 1325 296 1325 270 1273 c 0,29,30
 262 1258 262 1258 262 1237 c 0,31,32
 262 1213 262 1213 278 1180 c 0,33,34
 294 1146 294 1146 294 1137 c 0,35,36
 294 1123 294 1123 282 1116 c 0,37,38
 275 1112 275 1112 257 1109 c 0,39,40
 240 1106 240 1106 225 1106 c 0,41,42
 144 1106 144 1106 85 1177 c 0,43,44
 28 1243 28 1243 28 1316 c 0,45,46
 28 1345 28 1345 40 1368 c 0,47,48
 51 1390 51 1390 69 1400 c 0,49,50
 87 1409 87 1409 106 1409 c 0,51,52
 118 1409 118 1409 144 1406 c 0,53,54
 165 1402 165 1402 177 1402 c 0,55,56
 192 1402 192 1402 203 1406 c 0,57,58
 328 1450 328 1450 343 1456 c 0,59,60
 440 1486 440 1486 492 1486 c 0,61,62
 597 1486 597 1486 685 1452 c 0,63,64
 768 1421 768 1421 836 1361 c 0,65,66
 966 1248 966 1248 966 1064 c 0,67,68
 966 959 966 959 919 878 c 0,69,70
 868 793 868 793 769 724 c 1,71,-1
 668 662 l 1,72,73
 604 628 604 628 589 611 c 0,74,75
 562 584 562 584 546 541 c 1,76,77
 541 503 541 503 537 476 c 0,78,79
 524 430 524 430 487 430 c 0,0,1
331 172 m 0,80,81
 331 246 331 246 374 292 c 0,82,83
 417 340 417 340 481 340 c 0,84,85
 543 340 543 340 590 291 c 0,86,87
 636 242 636 242 636 172 c 0,88,89
 636 100 636 100 591 51 c 0,90,91
 546 0 546 0 481 0 c 0,92,93
 417 0 417 0 374 50 c 0,94,95
 331 97 331 97 331 172 c 0,80,81
EndSplineSet
Validated: 1
EndChar

StartChar: zero
Encoding: 48 48 5
Width: 1140
Flags: W
LayerCount: 2
Fore
SplineSet
581 203 m 0,0,1
 635 203 635 203 669 232 c 0,2,3
 708 266 708 266 732 347 c 0,4,5
 758 434 758 434 770 521 c 0,6,7
 781 595 781 595 781 762 c 0,8,9
 781 898 781 898 766 1002 c 0,10,11
 751 1105 751 1105 728 1162 c 0,12,13
 707 1215 707 1215 663 1265 c 0,14,15
 611 1321 611 1321 565 1321 c 0,16,17
 515 1321 515 1321 471 1274 c 0,18,19
 427 1229 427 1229 402 1144 c 256,20,21
 377 1059 377 1059 370 1002 c 0,22,23
 360 924 360 924 360 762 c 0,24,25
 360 610 360 610 374 517 c 0,26,27
 382 467 382 467 413 363 c 0,28,29
 436 284 436 284 483 241 c 0,30,31
 525 203 525 203 581 203 c 0,0,1
52 762 m 0,32,33
 52 1089 52 1089 199 1298 c 0,34,35
 345 1507 345 1507 571 1507 c 0,36,37
 791 1507 791 1507 939 1298 c 0,38,39
 1086 1088 1086 1088 1086 765 c 0,40,41
 1086 597 1086 597 1045 464 c 0,42,43
 1004 329 1004 329 924 213 c 0,44,45
 855 119 855 119 765 67 c 0,46,47
 674 15 674 15 571 15 c 0,48,49
 349 15 349 15 201 226 c 0,50,51
 52 438 52 438 52 762 c 0,32,33
EndSplineSet
Validated: 1
EndChar

StartChar: one
Encoding: 49 49 6
Width: 880
Flags: W
LayerCount: 2
Fore
SplineSet
839 93 m 1,0,1
 839 82 839 82 827 67 c 0,2,3
 816 56 816 56 811 50 c 1,4,-1
 326 50 l 1,5,-1
 326 102 l 1,6,7
 381 141 381 141 402 193 c 0,8,9
 429 260 429 260 429 413 c 0,10,11
 429 524 429 524 428 602 c 128,-1,12
 427 680 427 680 427 725 c 0,13,14
 425 815 425 815 424 944 c 0,15,16
 421 1071 421 1071 421 1218 c 0,17,18
 421 1261 421 1261 384 1284 c 0,19,20
 346 1305 346 1305 346 1342 c 0,21,22
 346 1372 346 1372 497 1419 c 0,23,24
 579 1445 579 1445 614 1475 c 0,25,26
 665 1517 665 1517 686 1517 c 0,27,28
 715 1517 715 1517 726 1499 c 0,29,30
 736 1481 736 1481 736 1456 c 0,31,32
 736 1452 736 1452 736 1447.5 c 128,-1,33
 736 1443 736 1443 736 1439 c 0,34,35
 736 1433 736 1433 736 1429.5 c 128,-1,36
 736 1426 736 1426 736 1426 c 1,37,-1
 736 362 l 2,38,39
 736 216 736 216 768 163 c 1,40,41
 785 145 785 145 803 128 c 128,-1,42
 821 111 821 111 839 93 c 1,0,1
EndSplineSet
Validated: 1
EndChar

StartChar: two
Encoding: 50 50 7
Width: 1053
Flags: W
LayerCount: 2
Fore
SplineSet
48 1449 m 1,0,1
 85 1439 85 1439 113 1439 c 0,2,3
 132 1439 132 1439 152 1442 c 0,4,5
 167 1444 167 1444 189 1450 c 1,6,7
 236 1477 236 1477 305 1497 c 0,8,9
 386 1521 386 1521 493 1521 c 0,10,11
 594 1521 594 1521 689 1485 c 0,12,13
 781 1451 781 1451 845 1388 c 0,14,15
 966 1265 966 1265 966 1068 c 0,16,17
 966 927 966 927 895 820 c 0,18,19
 823 713 823 713 692 658 c 0,20,21
 650 641 650 641 540 608 c 0,22,23
 426 573 426 573 375 528 c 0,24,25
 334 493 334 493 310 445 c 0,26,27
 299 422 299 422 289 404 c 0,28,29
 279 385 279 385 279 364 c 0,30,31
 279 351 279 351 282 339 c 0,32,33
 285 326 285 326 327 322 c 0,34,35
 365 318 365 318 436 318 c 0,36,37
 517 318 517 318 548 320 c 0,38,39
 582 321 582 321 633 325 c 1,40,41
 695 325 695 325 740 334 c 0,42,43
 785 345 785 345 819 372 c 0,44,45
 836 386 836 386 854.5 400 c 128,-1,46
 873 414 873 414 891 429 c 0,47,48
 940 468 940 468 1003 527 c 1,49,50
 1003 337 1003 337 975 228 c 0,51,52
 948 116 948 116 884 69 c 0,53,54
 865 55 865 55 762 50 c 0,55,56
 658 44 658 44 507 44 c 0,57,58
 434 44 434 44 373 44.5 c 128,-1,59
 312 45 312 45 264 46 c 0,60,61
 215 47 215 47 170 48.5 c 128,-1,62
 125 50 125 50 86 51 c 1,63,64
 86 127 86 127 100 201 c 0,65,66
 114 274 114 274 143 341 c 0,67,68
 196 471 196 471 301 570 c 2,69,-1
 378 641 l 2,70,71
 532 783 532 783 583 869 c 0,72,73
 606 909 606 909 621 973 c 0,74,75
 633 1033 633 1033 633 1118 c 0,76,77
 633 1276 633 1276 589 1360 c 0,78,79
 545 1443 545 1443 463 1443 c 0,80,81
 417 1443 417 1443 341 1395 c 0,82,83
 263 1347 263 1347 257 1312 c 0,84,85
 252 1282 252 1282 272 1254 c 0,86,87
 284 1237 284 1237 296.5 1220.5 c 128,-1,88
 309 1204 309 1204 321 1189 c 1,89,90
 321 1180 321 1180 311 1176 c 0,91,92
 260 1156 260 1156 216 1156 c 0,93,94
 131 1156 131 1156 83 1225 c 0,95,96
 39 1288 39 1288 39 1377 c 0,97,98
 39 1414 39 1414 48 1449 c 1,0,1
EndSplineSet
Validated: 1
EndChar

StartChar: three
Encoding: 51 51 8
Width: 1071
Flags: W
LayerCount: 2
Fore
SplineSet
99 185 m 0,0,1
 85 228 85 228 85 293 c 0,2,3
 85 382 85 382 106 453 c 0,4,5
 126 524 126 524 166 524 c 1,6,7
 192 378 192 378 225 302 c 0,8,9
 250 240 250 240 290 195 c 0,10,11
 326 152 326 152 365 127 c 0,12,13
 409 99 409 99 466 99 c 0,14,15
 527 99 527 99 564 112 c 0,16,17
 615 130 615 130 639 173 c 0,18,19
 691 264 691 264 691 445 c 0,20,21
 691 597 691 597 628 681 c 0,22,23
 612 703 612 703 551 728 c 0,24,25
 441 774 441 774 441 809 c 0,26,27
 441 845 441 845 510 869 c 0,28,29
 592 899 592 899 612 931 c 0,30,31
 661 1005 661 1005 661 1165 c 0,32,33
 661 1262 661 1262 650 1305 c 0,34,35
 641 1343 641 1343 618 1367 c 0,36,37
 586 1396 586 1396 547 1407 c 0,38,39
 504 1418 504 1418 459 1418 c 1,40,41
 405 1411 405 1411 342 1374 c 0,42,43
 267 1327 267 1327 263 1279 c 0,44,45
 263 1242 263 1242 280 1212 c 0,46,47
 289 1198 289 1198 299 1184.5 c 128,-1,48
 309 1171 309 1171 319 1158 c 1,49,50
 319 1150 319 1150 298 1144 c 0,51,52
 277 1137 277 1137 249 1137 c 0,53,54
 161 1137 161 1137 98 1214 c 0,55,56
 38 1286 38 1286 38 1375 c 0,57,58
 38 1410 38 1410 52 1446 c 1,59,60
 70 1441 70 1441 86.5 1438 c 128,-1,61
 103 1435 103 1435 118 1432 c 0,62,63
 151 1427 151 1427 163 1427 c 0,64,65
 189 1427 189 1427 240 1442 c 1,66,67
 272 1457 272 1457 298.5 1469 c 128,-1,68
 325 1481 325 1481 346 1491 c 0,69,70
 427 1527 427 1527 523 1527 c 0,71,72
 616 1527 616 1527 711 1496 c 0,73,74
 802 1465 802 1465 863 1415 c 0,75,76
 976 1318 976 1318 976 1156 c 0,77,78
 976 1038 976 1038 908 951 c 0,79,80
 889 928 889 928 763 861 c 0,81,82
 710 833 710 833 709 818 c 0,83,84
 709 793 709 793 848 738 c 0,85,86
 923 708 923 708 944 681 c 0,87,88
 1020 594 1020 594 1020 447 c 0,89,90
 1020 245 1020 245 891 128 c 256,91,92
 762 11 762 11 538 11 c 0,93,94
 422 11 422 11 299 45 c 0,95,96
 208 71 208 71 182 85 c 0,97,98
 121 117 121 117 99 185 c 0,0,1
EndSplineSet
Validated: 1
EndChar

StartChar: four
Encoding: 52 52 9
Width: 1097
Flags: W
LayerCount: 2
Fore
SplineSet
487 607 m 0,0,1
 506 627 506 627 515 725 c 0,2,3
 526 814 526 814 526 934 c 0,4,5
 526 1014 526 1014 522 1047 c 0,6,7
 517 1088 517 1088 506 1093 c 0,8,9
 504 1094 504 1094 501 1094 c 0,10,11
 500 1094 500 1094 500 1094 c 0,12,13
 499.086956522 1094.2173913 499.086956522 1094.2173913 498.071833648 1094.2173913 c 0,14,15
 475.739130435 1094.2173913 475.739130435 1094.2173913 404 989 c 0,16,17
 338 891 338 891 268 754 c 0,18,19
 212 644 212 644 212 612 c 0,20,21
 212 607 212 607 214 604 c 0,22,23
 222 592 222 592 250 586 c 0,24,25
 276 581 276 581 327 581 c 0,26,27
 385 581 385 581 429 588 c 0,28,29
 477 597 477 597 487 607 c 0,0,1
796 400 m 0,30,31
 783 390 783 390 783 354 c 0,32,33
 783 319 783 319 797 254 c 0,34,35
 808 200 808 200 819 167 c 0,36,37
 826 146 826 146 877 112 c 0,38,39
 898 97 898 97 898 81 c 0,40,41
 898 78 898 78 895 66 c 256,42,43
 892 54 892 54 881 48 c 0,44,45
 869 41 869 41 852 41 c 0,46,47
 842 41 842 41 824 43 c 0,48,49
 779 50 779 50 775 50 c 2,50,-1
 651 51 l 1,51,-1
 523 50 l 2,52,53
 508 50 508 50 483 46 c 0,54,55
 451 41 451 41 439 41 c 0,56,57
 419 41 419 41 407 47 c 0,58,59
 392 53 392 53 390 69 c 0,60,61
 385 80 385 80 407 99 c 0,62,63
 462 144 462 144 471 166 c 0,64,65
 478 185 478 185 486 245 c 0,66,67
 494 298 494 298 494 346 c 0,68,69
 494 383 494 383 489 393 c 0,70,71
 484 405 484 405 444 408 c 0,72,73
 403 411 403 411 343 411 c 0,74,75
 326 411 326 411 309.5 411 c 128,-1,76
 293 411 293 411 277 411 c 0,77,78
 260 411 260 411 243 411 c 128,-1,79
 226 411 226 411 210 411 c 0,80,81
 122 411 122 411 85 415 c 0,82,83
 42 419 42 419 36 432 c 0,84,85
 33 438 33 438 33 447 c 0,86,87
 33 483 33 483 83 593 c 0,88,89
 117 664 117 664 183 781 c 0,90,91
 201 812 201 812 217.5 841.5 c 128,-1,92
 234 871 234 871 250 898 c 0,93,94
 276 942 276 942 384 1101 c 0,95,96
 519 1300 519 1300 614 1426 c 0,97,98
 734 1585 734 1585 758 1585 c 0,99,100
 759 1585 759 1585 760 1585 c 0,101,102
 766 1585 766 1585 770 1505 c 0,103,104
 773 1430 773 1430 773 1322 c 0,105,106
 773 1291 773 1291 773 1242 c 128,-1,107
 773 1193 773 1193 773 1125 c 0,108,109
 773 1056 773 1056 773 1006 c 128,-1,110
 773 956 773 956 773 924 c 0,111,112
 773 770 773 770 777 701 c 0,113,114
 780 622 780 622 791 616 c 0,115,116
 811 602 811 602 829 602 c 0,117,118
 850 602 850 602 877 619 c 0,119,120
 899 633 899 633 923 657 c 0,121,122
 953 684 953 684 974 714 c 0,123,124
 989 733 989 733 1042 820 c 1,125,126
 1042 777 1042 777 1043 757 c 0,127,128
 1043 741 1043 741 1043.5 726 c 128,-1,129
 1044 711 1044 711 1045 698 c 0,130,131
 1045 630 1045 630 1037 568 c 0,132,133
 1029 508 1029 508 1007 468 c 0,134,135
 986 427 986 427 946 417 c 0,136,137
 935 415 935 415 912 414 c 0,138,139
 886 412 886 412 870 411 c 0,140,141
 868 411 868 411 866 411 c 128,-1,142
 864 411 864 411 862 411 c 0,143,144
 859 411 859 411 856 411 c 128,-1,145
 853 411 853 411 850 411 c 0,146,147
 835 411 835 411 820 408 c 0,148,149
 807 406 807 406 796 400 c 0,30,31
EndSplineSet
Validated: 1
EndChar

StartChar: five
Encoding: 53 53 10
Width: 1087
Flags: W
LayerCount: 2
Fore
SplineSet
121 210 m 0,0,1
 116 228 116 228 112 259 c 0,2,3
 108 287 108 287 108 323 c 0,4,5
 108 408 108 408 128 467 c 0,6,7
 154 537 154 537 207 546 c 1,8,9
 220 386 220 386 251 314 c 0,10,11
 265 276 265 276 322 203 c 0,12,13
 361 149 361 149 396 133 c 0,14,15
 431 116 431 116 485 116 c 0,16,17
 538 116 538 116 582 136 c 0,18,19
 629 158 629 158 659 209 c 0,20,21
 688 260 688 260 702 318 c 0,22,23
 717 376 717 376 717 458 c 0,24,25
 717 628 717 628 654 720 c 0,26,27
 589 811 589 811 468 811 c 0,28,29
 413 811 413 811 344 790 c 0,30,31
 341 790 341 790 255 746 c 0,32,33
 220 728 220 728 199 728 c 0,34,35
 184 728 184 728 176 735 c 0,36,37
 169 742 169 742 169 800 c 0,38,39
 169 935 169 935 191 1180 c 0,40,41
 213 1431 213 1431 227 1448 c 0,42,43
 238 1462 238 1462 333 1469 c 0,44,45
 427 1475 427 1475 565 1475 c 0,46,47
 604 1475 604 1475 639 1474.5 c 128,-1,48
 674 1474 674 1474 704 1474 c 0,49,50
 760 1472 760 1472 808 1471 c 0,51,52
 875 1471 875 1471 912 1484 c 0,53,54
 921 1487 921 1487 947 1512 c 0,55,56
 969 1531 969 1531 988 1527 c 0,57,58
 998 1524 998 1524 998 1489 c 0,59,60
 998 1425 998 1425 971 1325 c 0,61,62
 942 1223 942 1223 917 1204 c 0,63,64
 909 1197 909 1197 865 1195 c 0,65,66
 823 1192 823 1192 763 1192 c 0,67,68
 667 1192 667 1192 522 1198 c 0,69,70
 498 1199 498 1199 466.5 1200 c 128,-1,71
 435 1201 435 1201 396 1204 c 0,72,73
 329 1204 329 1204 290 1129 c 0,74,75
 251 1055 251 1055 251 912 c 0,76,77
 251 906 251 906 251 900 c 128,-1,78
 251 894 251 894 251 887 c 256,79,80
 251 880 251 880 251 875.5 c 128,-1,81
 251 871 251 871 251 869 c 0,82,83
 251 853 251 853 261 838 c 0,84,85
 265 834 265 834 277 834 c 0,86,87
 292 834 292 834 336 850 c 0,88,89
 382 867 382 867 399 869 c 0,90,91
 476 885 476 885 530 885 c 0,92,93
 757 885 757 885 898 772 c 0,94,95
 1036 659 1036 659 1036 471 c 0,96,97
 1036 260 1036 260 901 137 c 0,98,99
 765 15 765 15 528 15 c 0,100,101
 401 15 401 15 296 50 c 0,102,103
 235 67 235 67 192 103 c 0,104,105
 141 143 141 143 121 210 c 0,0,1
EndSplineSet
Validated: 1
EndChar

StartChar: six
Encoding: 54 54 11
Width: 1136
Flags: W
LayerCount: 2
Fore
SplineSet
848 1199 m 1,0,1
 864 1218 864 1218 868 1230 c 256,2,3
 872 1242 872 1242 872 1264 c 0,4,5
 872 1289 872 1289 846 1315 c 0,6,7
 838 1322 838 1322 813 1340 c 0,8,9
 790 1356 790 1356 757 1367 c 0,10,11
 724 1379 724 1379 688 1385 c 0,12,13
 676 1386 676 1386 667 1388 c 0,14,15
 661 1389 661 1389 646 1389 c 0,16,17
 599 1389 599 1389 545 1364 c 0,18,19
 475 1331 475 1331 429 1240 c 0,20,21
 402 1189 402 1189 381 1118 c 0,22,23
 358 1035 358 1035 358 976 c 0,24,25
 358 939 358 939 365 917 c 0,26,27
 372 890 372 890 392 879 c 0,28,29
 403 871 403 871 412 871 c 0,30,31
 430 871 430 871 455 897 c 0,32,33
 501 945 501 945 523 970 c 1,34,35
 585 1005 585 1005 659 1005 c 0,36,37
 850 1005 850 1005 965 871 c 0,38,39
 1082 739 1082 739 1082 526 c 0,40,41
 1082 302 1082 302 948 158 c 0,42,43
 815 15 815 15 604 15 c 0,44,45
 482 15 482 15 385 62 c 0,46,47
 288 110 288 110 215 209 c 0,48,49
 70 401 70 401 70 734 c 0,50,51
 70 1090 70 1090 228 1299 c 0,52,53
 386 1510 386 1510 650 1510 c 0,54,55
 692 1510 692 1510 763 1494 c 0,56,57
 827 1479 827 1479 874 1456 c 0,58,59
 894 1447 894 1447 906 1441 c 128,-1,60
 918 1435 918 1435 924 1433 c 0,61,62
 957 1419 957 1419 972 1416 c 0,63,64
 986 1412 986 1412 1000 1412 c 0,65,66
 1003 1412 1003 1412 1025 1414 c 0,67,68
 1037 1415 1037 1415 1052 1415 c 1,69,70
 1052 1313 1052 1313 1009 1257 c 0,71,72
 965 1199 965 1199 879 1199 c 0,73,74
 875 1199 875 1199 871 1199 c 128,-1,75
 867 1199 867 1199 864 1199 c 0,76,77
 858 1199 858 1199 854 1199 c 128,-1,78
 850 1199 850 1199 848 1199 c 1,0,1
402 493 m 0,79,80
 402 445 402 445 414 378 c 0,81,82
 426 308 426 308 448 255 c 0,83,84
 469 200 469 200 504 170 c 0,85,86
 538 140 538 140 579 140 c 0,87,88
 661 140 661 140 717 246 c 0,89,90
 745 300 745 300 755 373 c 0,91,92
 760 406 760 406 760 490 c 2,93,-1
 760 514 l 2,94,95
 760 587 760 587 755 631 c 0,96,97
 750 681 750 681 732 727 c 0,98,99
 709 780 709 780 669 816 c 0,100,101
 630 853 630 853 589 853 c 0,102,103
 550 853 550 853 508 816 c 0,104,105
 464 778 464 778 441 724 c 0,106,107
 419 672 419 672 410 614 c 0,108,109
 402 566 402 566 402 493 c 0,79,80
EndSplineSet
Validated: 1
EndChar

StartChar: seven
Encoding: 55 55 12
Width: 1124
Flags: W
LayerCount: 2
Fore
SplineSet
257 1065 m 0,0,1
 242 1056 242 1056 223 1056 c 0,2,3
 159 1056 159 1056 97 1144 c 0,4,5
 36 1233 36 1233 36 1335 c 0,6,7
 36 1372 36 1372 45 1404 c 0,8,9
 52 1434 52 1434 74 1467 c 1,10,11
 101 1454 101 1454 145 1444 c 0,12,13
 180 1437 180 1437 213 1437 c 0,14,15
 242 1437 242 1437 277 1442 c 0,16,17
 295 1445 295 1445 308 1448 c 128,-1,18
 321 1451 321 1451 329 1453 c 0,19,20
 374 1463 374 1463 411 1472 c 128,-1,21
 448 1481 448 1481 477 1487 c 0,22,23
 583 1511 583 1511 637 1511 c 0,24,25
 699 1511 699 1511 810 1490 c 0,26,27
 855 1481 855 1481 900 1471.5 c 128,-1,28
 945 1462 945 1462 988 1452 c 0,29,30
 1033 1439 1033 1439 1071 1431 c 1,31,32
 1071 1357 1071 1357 1042 1287 c 0,33,34
 1014 1219 1014 1219 938 1107 c 2,35,-1
 880 1019 l 1,36,37
 778 847 778 847 733 666 c 0,38,39
 685 480 685 480 685 234 c 2,40,-1
 685 142 l 1,41,-1
 689 44 l 1,42,-1
 627 48 l 1,43,-1
 518 49 l 1,44,-1
 398 48 l 2,45,46
 349 48 349 48 319 44 c 1,47,-1
 319 86 l 2,48,49
 319 277 319 277 375 452 c 0,50,51
 428 624 428 624 538 765 c 0,52,53
 554 786 554 786 599 834 c 0,54,55
 643 880 643 880 686 923 c 0,56,57
 774 1008 774 1008 822 1074 c 0,58,59
 877 1148 877 1148 877 1191 c 0,60,61
 877 1199 877 1199 875 1204 c 0,62,63
 867 1233 867 1233 787 1247 c 0,64,65
 704 1261 704 1261 612 1261 c 0,66,67
 547 1261 547 1261 439 1233 c 0,68,69
 333 1204 333 1204 255 1204 c 1,70,71
 246 1195 246 1195 238 1179 c 0,72,73
 232 1165 232 1165 232 1151 c 0,74,75
 232 1129 232 1129 249 1094 c 0,76,77
 261 1067 261 1067 257 1065 c 0,0,1
EndSplineSet
Validated: 1
EndChar

StartChar: eight
Encoding: 56 56 13
Width: 1118
Flags: W
LayerCount: 2
Fore
SplineSet
648 959 m 1,0,1
 693 1009 693 1009 717 1071 c 0,2,3
 739 1131 739 1131 739 1206 c 0,4,5
 739 1314 739 1314 701 1378 c 0,6,7
 662 1441 662 1441 596 1441 c 0,8,9
 534 1441 534 1441 494 1384 c 0,10,11
 454 1325 454 1325 454 1237 c 0,12,13
 454 1142 454 1142 499 1078 c 256,14,15
 544 1014 544 1014 648 959 c 1,0,1
484 691 m 1,16,17
 419 631 419 631 389 557 c 0,18,19
 358 481 358 481 358 381 c 0,20,21
 358 249 358 249 411 166 c 0,22,23
 465 84 465 84 552 84 c 0,24,25
 631 84 631 84 685 160 c 0,26,27
 739 235 739 235 739 355 c 0,28,29
 739 466 739 466 683 541 c 0,30,31
 628 615 628 615 484 691 c 1,16,17
375 765 m 1,32,33
 259 844 259 844 205 932 c 0,34,35
 149 1021 149 1021 149 1125 c 0,36,37
 149 1295 149 1295 267 1403 c 0,38,39
 384 1510 384 1510 574 1510 c 0,40,41
 761 1510 761 1510 877 1422 c 0,42,43
 992 1334 992 1334 992 1191 c 0,44,45
 992 1093 992 1093 933 1016 c 0,46,47
 870 937 870 937 753 887 c 1,48,49
 920 796 920 796 992 695 c 0,50,51
 1065 595 1065 595 1065 458 c 0,52,53
 1065 258 1065 258 927 137 c 0,54,55
 791 15 791 15 558 15 c 0,56,57
 341 15 341 15 209 123 c 0,58,59
 76 230 76 230 76 399 c 0,60,61
 76 527 76 527 148 616 c 0,62,63
 183 658 183 658 240 697 c 0,64,65
 300 737 300 737 375 765 c 1,32,33
EndSplineSet
Validated: 1
EndChar

StartChar: nine
Encoding: 57 57 14
Width: 1124
Flags: W
LayerCount: 2
Fore
SplineSet
206 478 m 1,0,1
 236 364 236 364 262 300 c 0,2,3
 290 228 290 228 328 185 c 0,4,5
 394 107 394 107 490 107 c 0,6,7
 549 107 549 107 614 152 c 0,8,9
 688 206 688 206 725 270 c 0,10,11
 744 302 744 302 768 373 c 0,12,13
 802 470 802 470 802 539 c 0,14,15
 802 576 802 576 793 603 c 0,16,17
 783 630 783 630 762 646 c 0,18,19
 756 649 756 649 752 649 c 0,20,21
 732 649 732 649 667 593 c 0,22,23
 635 563 635 563 617 553 c 0,24,25
 559 519 559 519 482 519 c 0,26,27
 294 519 294 519 176 652 c 0,28,29
 59 785 59 785 59 999 c 0,30,31
 59 1224 59 1224 193 1366 c 0,32,33
 326 1510 326 1510 537 1510 c 0,34,35
 779 1510 779 1510 925 1315 c 256,36,37
 1071 1120 1071 1120 1071 789 c 0,38,39
 1071 438 1071 438 913 226 c 0,40,41
 755 15 755 15 490 15 c 2,42,-1
 443 15 l 2,43,44
 399 15 399 15 365 18 c 0,45,46
 336 20 336 20 298 34 c 0,47,48
 248 51 248 51 212 83 c 0,49,50
 169 122 169 122 152 180 c 0,51,52
 139 224 139 224 139 275 c 0,53,54
 139 333 139 333 157 386 c 0,55,56
 175 441 175 441 206 478 c 1,0,1
722 1019 m 0,57,58
 722 1102 722 1102 709 1159 c 0,59,60
 703 1184 703 1184 674 1258 c 0,61,62
 649 1319 649 1319 625 1347 c 0,63,64
 594 1382 594 1382 556 1382 c 0,65,66
 515 1382 515 1382 475 1346 c 0,67,68
 434 1310 434 1310 412 1254 c 0,69,70
 394 1208 394 1208 390 1171 c 0,71,72
 385 1131 385 1131 385 1050 c 2,73,-1
 385 1001 l 2,74,75
 385 912 385 912 391 876 c 0,76,77
 397 838 397 838 419 788 c 0,78,79
 440 737 440 737 475 704 c 0,80,81
 509 674 509 674 549 674 c 256,82,83
 589 674 589 674 625 701 c 0,84,85
 663 729 663 729 685 784 c 0,86,87
 707 836 707 836 716 881 c 1,88,89
 722 937 722 937 722 1019 c 0,57,58
EndSplineSet
Validated: 1
EndChar

StartChar: colon
Encoding: 58 58 15
Width: 417
Flags: W
LayerCount: 2
Fore
SplineSet
97 190 m 0,0,1
 97 259 97 259 140 307 c 0,2,3
 185 355 185 355 247 355 c 0,4,5
 308 355 308 355 353 307 c 256,6,7
 398 259 398 259 398 190 c 256,8,9
 398 121 398 121 354 71 c 0,10,11
 309 22 309 22 247 22 c 0,12,13
 184 22 184 22 141 70 c 0,14,15
 97 118 97 118 97 190 c 0,0,1
97 919 m 0,16,17
 97 988 97 988 140 1036 c 0,18,19
 183 1085 183 1085 247 1085 c 0,20,21
 306 1085 306 1085 353 1036 c 0,22,23
 398 988 398 988 398 919 c 0,24,25
 398 849 398 849 354 801 c 0,26,27
 310 752 310 752 247 752 c 0,28,29
 185 752 185 752 140 800 c 0,30,31
 97 847 97 847 97 919 c 0,16,17
EndSplineSet
Validated: 1
EndChar

StartChar: semicolon
Encoding: 59 59 16
Width: 430
Flags: W
LayerCount: 2
Fore
SplineSet
207 -255 m 1,0,-1
 173 -223 l 1,1,2
 213 -154 213 -154 234 -92 c 0,3,4
 243 -60 243 -60 250 -32 c 0,5,6
 255 -2 255 -2 255 26 c 1,7,8
 214 26 214 26 187 36 c 0,9,10
 158 46 158 46 136 69 c 0,11,12
 97 108 97 108 97 182 c 0,13,14
 97 262 97 262 137 308 c 0,15,16
 175 354 175 354 247 354 c 256,17,18
 319 354 319 354 365 295 c 0,19,20
 410 235 410 235 410 131 c 0,21,22
 410 46 410 46 360 -52 c 0,23,24
 308 -150 308 -150 207 -255 c 1,0,-1
97 919 m 0,25,26
 97 988 97 988 140 1036 c 0,27,28
 183 1085 183 1085 247 1085 c 0,29,30
 306 1085 306 1085 353 1036 c 0,31,32
 398 988 398 988 398 919 c 0,33,34
 398 849 398 849 354 801 c 0,35,36
 310 752 310 752 247 752 c 0,37,38
 185 752 185 752 140 800 c 0,39,40
 97 847 97 847 97 919 c 0,25,26
EndSplineSet
Validated: 1
EndChar

StartChar: less
Encoding: 60 60 17
Width: 1556
Flags: W
LayerCount: 2
Fore
SplineSet
1482 1278 m 1,0,-1
 1482 1053 l 1,1,-1
 565 678 l 1,2,-1
 1482 304 l 1,3,-1
 1482 80 l 1,4,-1
 271 578 l 1,5,-1
 271 782 l 1,6,-1
 1482 1278 l 1,0,-1
EndSplineSet
Validated: 1
EndChar

StartChar: equal
Encoding: 61 61 18
Width: 1566
Flags: W
LayerCount: 2
Fore
SplineSet
261 561 m 1,0,-1
 1492 561 l 1,1,-1
 1492 357 l 1,2,-1
 261 357 l 1,3,-1
 261 561 l 1,0,-1
261 1003 m 1,4,-1
 1492 1003 l 1,5,-1
 1492 799 l 1,6,-1
 261 799 l 1,7,-1
 261 1003 l 1,4,-1
EndSplineSet
Validated: 1
EndChar

StartChar: greater
Encoding: 62 62 19
Width: 1556
Flags: W
LayerCount: 2
Fore
SplineSet
271 1278 m 1,0,-1
 1482 782 l 1,1,-1
 1482 578 l 1,2,-1
 271 80 l 1,3,-1
 271 304 l 1,4,-1
 1191 678 l 1,5,-1
 271 1053 l 1,6,-1
 271 1278 l 1,0,-1
EndSplineSet
Validated: 1
EndChar

StartChar: exclam
Encoding: 33 33 20
Width: 618
Flags: W
LayerCount: 2
Fore
SplineSet
471 1141 m 2,0,-1
 401 477 l 2,1,2
 394 409 394 409 388 392 c 0,3,4
 376 344 376 344 330 344 c 0,5,6
 295 344 295 344 282 367 c 256,7,8
 269 390 269 390 259 477 c 2,9,-1
 191 1141 l 2,10,11
 179 1265 179 1265 162 1304 c 0,12,13
 148 1344 148 1344 103 1372 c 0,14,15
 72 1389 72 1389 72 1416 c 0,16,17
 72 1454 72 1454 110 1454 c 0,18,19
 123 1454 123 1454 153 1444 c 0,20,21
 238 1416 238 1416 330 1416 c 0,22,23
 420 1416 420 1416 507 1444 c 1,24,-1
 551 1454 l 1,25,26
 589 1454 589 1454 589 1416 c 0,27,28
 589 1392 589 1392 558 1372 c 0,29,30
 515 1344 515 1344 498 1304 c 0,31,32
 490 1280 490 1280 485 1247 c 0,33,34
 479 1219 479 1219 471 1141 c 2,0,-1
333 302 m 0,35,36
 389 302 389 302 430 261 c 256,37,38
 471 220 471 220 471 163 c 0,39,40
 471 105 471 105 430 64 c 256,41,42
 389 23 389 23 331 23 c 0,43,44
 272 23 272 23 232 63 c 0,45,46
 191 104 191 104 191 163 c 0,47,48
 191 223 191 223 233 262 c 0,49,50
 274 302 274 302 333 302 c 0,35,36
EndSplineSet
Validated: 1
EndChar

StartChar: numbersign
Encoding: 35 35 21
Width: 993
Flags: W
LayerCount: 2
Fore
SplineSet
219 542 m 1,0,-1
 40 542 l 1,1,-1
 40 692 l 1,2,-1
 240 692 l 1,3,-1
 261 842 l 1,4,-1
 83 842 l 1,5,-1
 83 992 l 1,6,-1
 283 992 l 1,7,-1
 348 1454 l 1,8,-1
 509 1454 l 1,9,-1
 444 992 l 1,10,-1
 606 992 l 1,11,-1
 670 1454 l 1,12,-1
 832 1454 l 1,13,-1
 767 992 l 1,14,-1
 946 992 l 1,15,-1
 946 842 l 1,16,-1
 745 842 l 1,17,-1
 725 692 l 1,18,-1
 903 692 l 1,19,-1
 903 542 l 1,20,-1
 703 542 l 1,21,-1
 634 51 l 1,22,-1
 473 51 l 1,23,-1
 542 542 l 1,24,-1
 381 542 l 1,25,-1
 312 51 l 1,26,-1
 150 51 l 1,27,-1
 219 542 l 1,0,-1
423 842 m 1,28,-1
 401 692 l 1,29,-1
 563 692 l 1,30,-1
 584 842 l 1,31,-1
 423 842 l 1,28,-1
EndSplineSet
Validated: 1
EndChar

StartChar: dollar
Encoding: 36 36 22
Width: 1102
Flags: W
LayerCount: 2
Fore
SplineSet
522 1619 m 1,0,-1
 634 1619 l 1,1,-1
 634 1493 l 1,2,3
 693 1488 693 1488 777 1454 c 0,4,5
 865 1419 865 1419 907 1419 c 0,6,7
 922 1419 922 1419 930 1420 c 0,8,9
 951 1423 951 1423 962 1423 c 0,10,11
 978 1423 978 1423 992 1411 c 0,12,13
 1004 1399 1004 1399 1004 1382 c 0,14,15
 1004 1367 1004 1367 994 1356 c 0,16,17
 985 1344 985 1344 945 1312 c 0,18,19
 883 1263 883 1263 841 1140 c 0,20,21
 824 1094 824 1094 794 1094 c 0,22,23
 766 1094 766 1094 751 1141 c 0,24,25
 716 1253 716 1253 634 1277 c 1,26,-1
 634 969 l 1,27,28
 757 911 757 911 848 843 c 0,29,30
 951 765 951 765 1002 680 c 0,31,32
 1050 597 1050 597 1050 481 c 0,33,34
 1050 309 1050 309 934 189 c 0,35,36
 817 69 817 69 634 51 c 1,37,-1
 634 -108 l 1,38,-1
 522 -108 l 1,39,-1
 522 51 l 1,40,41
 384 61 384 61 285 113 c 0,42,43
 186 164 186 164 126 249 c 0,44,45
 71 324 71 324 71 417 c 0,46,47
 71 479 71 479 99 534 c 0,48,49
 127 590 127 590 176 627 c 0,50,51
 231 669 231 669 300 669 c 0,52,53
 374 669 374 669 429 622 c 0,54,55
 484 574 484 574 484 510 c 0,56,57
 484 450 484 450 445 450 c 0,58,59
 440 450 440 450 415 468 c 0,60,61
 400 477 400 477 383 477 c 0,62,63
 352 477 352 477 331 450 c 0,64,65
 309 425 309 425 309 385 c 0,66,67
 309 308 309 308 364 255 c 0,68,69
 420 203 420 203 522 184 c 1,70,-1
 522 740 l 1,71,72
 517 743 517 743 422 795 c 0,73,74
 324 849 324 849 264 911 c 0,75,76
 174 1002 174 1002 174 1133 c 0,77,78
 174 1281 174 1281 281 1386 c 0,79,80
 357 1462 357 1462 522 1493 c 1,81,-1
 522 1619 l 1,0,-1
522 1277 m 1,82,83
 478 1269 478 1269 451 1237 c 0,84,85
 425 1205 425 1205 425 1159 c 0,86,87
 425 1082 425 1082 522 1027 c 1,88,-1
 522 1277 l 1,82,83
634 184 m 1,89,90
 702 202 702 202 740 237 c 0,91,92
 822 314 822 314 822 424 c 0,93,94
 822 505 822 505 782 560 c 0,95,96
 739 616 739 616 634 681 c 1,97,-1
 634 184 l 1,89,90
EndSplineSet
Validated: 1
EndChar

StartChar: percent
Encoding: 37 37 23
Width: 1475
Flags: W
LayerCount: 2
Fore
SplineSet
323 1476 m 0,0,1
 404 1476 404 1476 472 1404 c 0,2,3
 592 1276 592 1276 592 1025 c 0,4,5
 592 861 592 861 529 740 c 0,6,7
 452 588 452 588 325 588 c 0,8,9
 202 588 202 588 128 718 c 0,10,11
 50 854 50 854 50 1034 c 256,12,13
 50 1214 50 1214 126 1346 c 0,14,15
 201 1476 201 1476 323 1476 c 0,0,1
276 1275 m 0,16,17
 225 1275 225 1275 195 1236 c 0,18,19
 155 1180 155 1180 155 1105 c 0,20,21
 155 978 155 978 244 876 c 0,22,23
 301 808 301 808 361 808 c 0,24,25
 416 808 416 808 451 852 c 0,26,27
 484 897 484 897 484 972 c 0,28,29
 484 1087 484 1087 422 1177 c 0,30,31
 353 1275 353 1275 276 1275 c 0,16,17
491 9 m 1,32,-1
 362 9 l 1,33,-1
 952 1496 l 1,34,-1
 1080 1496 l 1,35,-1
 491 9 l 1,32,-1
1135 922 m 0,36,37
 1216 922 1216 922 1285 850 c 0,38,39
 1405 722 1405 722 1405 471 c 0,40,41
 1405 309 1405 309 1343 187 c 0,42,43
 1264 35 1264 35 1135 35 c 0,44,45
 1015 35 1015 35 940 164 c 0,46,47
 862 300 862 300 862 480 c 0,48,49
 862 661 862 661 938 793 c 0,50,51
 1014 922 1014 922 1135 922 c 0,36,37
1088 722 m 0,52,53
 1036 722 1036 722 1008 683 c 0,54,55
 968 629 968 629 968 552 c 0,56,57
 968 424 968 424 1056 323 c 0,58,59
 1115 255 1115 255 1174 255 c 0,60,61
 1229 255 1229 255 1264 299 c 0,62,63
 1297 344 1297 344 1297 419 c 0,64,65
 1297 534 1297 534 1234 624 c 0,66,67
 1164 722 1164 722 1088 722 c 0,52,53
EndSplineSet
Validated: 1
EndChar

StartChar: ampersand
Encoding: 38 38 24
Width: 1213
Flags: W
LayerCount: 2
Fore
SplineSet
404 934 m 1,0,1
 314 974 314 974 276 1012 c 0,2,3
 192 1091 192 1091 192 1205 c 0,4,5
 192 1364 192 1364 344 1455 c 0,6,7
 446 1516 446 1516 566 1516 c 0,8,9
 678 1516 678 1516 795 1474 c 0,10,11
 879 1444 879 1444 915 1444 c 0,12,13
 927 1444 927 1444 935 1447 c 2,14,-1
 954 1449 l 2,15,16
 981 1449 981 1449 1003 1403 c 0,17,18
 1024 1356 1024 1356 1024 1292 c 0,19,20
 1024 1170 1024 1170 953 1090 c 0,21,22
 881 1009 881 1009 762 1009 c 0,23,24
 680 1009 680 1009 623 1057 c 256,25,26
 566 1105 566 1105 566 1178 c 0,27,28
 566 1206 566 1206 579 1227 c 0,29,30
 592 1247 592 1247 612 1247 c 0,31,32
 623 1247 623 1247 628 1241 c 2,33,-1
 645 1203 l 2,34,35
 658 1170 658 1170 699 1170 c 0,36,37
 730 1170 730 1170 753 1194 c 0,38,39
 776 1220 776 1220 776 1253 c 0,40,41
 776 1309 776 1309 733 1347 c 0,42,43
 689 1383 689 1383 632 1383 c 0,44,45
 546 1383 546 1383 496 1322 c 0,46,47
 453 1268 453 1268 453 1193 c 0,48,49
 453 1105 453 1105 500 1054 c 0,50,51
 543 1003 543 1003 650 965 c 0,52,53
 688 953 688 953 688 922 c 0,54,55
 688 902 688 902 672 892 c 0,56,57
 659 883 659 883 605 871 c 0,58,59
 472 847 472 847 391 760 c 0,60,61
 309 675 309 675 309 557 c 0,62,63
 309 449 309 449 379 381 c 0,64,65
 448 313 448 313 560 313 c 0,66,67
 657 313 657 313 706 372 c 256,68,69
 755 431 755 431 755 548 c 0,70,71
 755 599 755 599 739 633 c 0,72,73
 722 660 722 660 685 681 c 0,74,75
 651 696 651 696 639 708 c 0,76,77
 628 720 628 720 628 737 c 0,78,79
 628 779 628 779 672 779 c 0,80,81
 691 779 691 779 699 777 c 0,82,83
 705 775 705 775 710.5 773.5 c 128,-1,84
 716 772 716 772 722 771 c 0,85,86
 827 745 827 745 895 745 c 0,87,88
 990 745 990 745 1045 762 c 0,89,90
 1096 779 1096 779 1122 779 c 0,91,92
 1156 779 1156 779 1156 740 c 0,93,94
 1156 720 1156 720 1146 709 c 0,95,96
 1135 698 1135 698 1081 659 c 0,97,98
 1063 645 1063 645 1053 619 c 0,99,100
 1046 593 1046 593 1046 542 c 2,101,-1
 1046 452 l 2,102,103
 1046 400 1046 400 1054 380 c 0,104,105
 1063 360 1063 360 1090 346 c 0,106,107
 1126 326 1126 326 1126 306 c 0,108,109
 1126 248 1126 248 1025 163 c 0,110,111
 846 14 846 14 571 14 c 0,112,113
 329 14 329 14 176 140 c 0,114,115
 21 270 21 270 21 473 c 0,116,117
 21 626 21 626 121 753 c 0,118,119
 220 881 220 881 404 934 c 1,0,1
EndSplineSet
Validated: 1
EndChar

StartChar: quotesingle
Encoding: 39 39 25
Width: 405
Flags: W
LayerCount: 2
Fore
SplineSet
259 1261 m 1,0,1
 361 1238 361 1238 361 1139 c 0,2,3
 361 1078 361 1078 320 1036 c 0,4,5
 277 995 277 995 220 995 c 0,6,7
 156 995 156 995 114 1039 c 0,8,9
 74 1083 74 1083 74 1153 c 0,10,11
 74 1312 74 1312 241 1449 c 0,12,13
 331 1521 331 1521 369 1521 c 0,14,15
 386 1521 386 1521 386 1502 c 0,16,17
 386 1493 386 1493 369 1476 c 0,18,19
 274 1375 274 1375 259 1261 c 1,0,1
EndSplineSet
Validated: 1
EndChar

StartChar: parenleft
Encoding: 40 40 26
Width: 662
Flags: W
LayerCount: 2
Fore
SplineSet
601 1629 m 0,0,1
 631 1629 631 1629 631 1599 c 0,2,3
 631 1586 631 1586 587 1526 c 0,4,5
 340 1182 340 1182 340 765 c 0,6,7
 340 545 340 545 403 358 c 0,8,9
 468 167 468 167 605 -18 c 0,10,11
 631 -56 631 -56 631 -68 c 0,12,13
 631 -99 631 -99 601 -99 c 0,14,15
 560 -99 560 -99 430 7 c 0,16,17
 278 133 278 133 186 304 c 0,18,19
 65 526 65 526 65 776 c 0,20,21
 65 1005 65 1005 187 1226 c 0,22,23
 316 1463 316 1463 538 1603 c 0,24,25
 582 1629 582 1629 601 1629 c 0,0,1
EndSplineSet
Validated: 1
EndChar

StartChar: parenright
Encoding: 41 41 27
Width: 670
Flags: W
LayerCount: 2
Fore
SplineSet
103 1629 m 0,0,1
 103.684684685 1629.03603604 103.684684685 1629.03603604 104.400211022 1629.03603604 c 0,2,3
 143.396396396 1629.03603604 143.396396396 1629.03603604 274 1522 c 0,4,5
 423 1399 423 1399 517 1226 c 0,6,7
 639 1001 639 1001 639 753 c 0,8,9
 639 539 639 539 532 330 c 0,10,11
 424 121 424 121 241 -18 c 0,12,13
 136 -99 136 -99 103 -99 c 0,14,15
 72 -99 72 -99 72 -68 c 0,16,17
 72 -55 72 -55 116 4 c 0,18,19
 363 345 363 345 363 765 c 0,20,21
 363 985 363 985 300 1171 c 0,22,23
 238 1355 238 1355 99 1550 c 0,24,25
 72 1586 72 1586 72 1599 c 0,26,27
 72 1627 72 1627 103 1629 c 0,0,1
EndSplineSet
Validated: 1
EndChar

StartChar: asterisk
Encoding: 42 42 28
Width: 815
Flags: W
LayerCount: 2
Fore
SplineSet
462 1212 m 1,0,-1
 610 1296 l 2,1,2
 649 1316 649 1316 663 1330 c 0,3,4
 671 1340 671 1340 675 1364 c 0,5,6
 675 1383 675 1383 690 1385 c 0,7,8
 703 1385 703 1385 708 1347 c 0,9,10
 720 1253 720 1253 764 1175 c 0,11,12
 777 1152 777 1152 777 1144 c 0,13,14
 777 1132 777 1132 764 1132 c 0,15,16
 756 1132 756 1132 748 1143 c 0,17,18
 729 1165 729 1165 699 1165 c 2,19,-1
 654 1161 l 1,20,-1
 485 1140 l 1,21,-1
 610 1024 l 2,22,23
 657 981 657 981 677 981 c 1,24,-1
 697 986 l 1,25,-1
 708 986 l 2,26,27
 718 986 718 986 722 973 c 0,28,29
 722 962 722 962 691 949 c 0,30,31
 608 910 608 910 544 841 c 0,32,33
 524 819 524 819 513 819 c 0,34,35
 501 819 501 819 501 830 c 0,36,37
 501 835 501 835 509 850 c 0,38,39
 516 863 516 863 518 877 c 0,40,41
 518 893 518 893 495 941 c 2,42,-1
 424 1095 l 1,43,-1
 352 941 l 2,44,45
 330 892 330 892 330 877 c 0,46,47
 330 864 330 864 341 846 c 1,48,-1
 346 830 l 2,49,50
 346 820 346 820 335 819 c 0,51,52
 326 819 326 819 304 841 c 0,53,54
 242 907 242 907 157 949 c 0,55,56
 127 961 127 961 127 973 c 0,57,58
 127 986 127 986 141 986 c 2,59,-1
 153 986 l 1,60,-1
 172 981 l 1,61,62
 191 981 191 981 239 1025 c 2,63,-1
 362 1141 l 1,64,-1
 193 1161 l 1,65,-1
 148 1165 l 2,66,67
 121 1165 121 1165 99 1143 c 0,68,69
 90 1133 90 1133 83 1132 c 0,70,71
 71 1132 71 1132 71 1144 c 0,72,73
 71 1154 71 1154 83 1175 c 0,74,75
 127 1254 127 1254 139 1347 c 1,76,77
 139 1385 139 1385 157 1385 c 0,78,79
 169 1385 169 1385 172 1364 c 0,80,81
 172 1352 172 1352 175 1345 c 0,82,83
 178 1336 178 1336 186 1329 c 0,84,85
 193 1321 193 1321 237 1296 c 2,86,-1
 385 1212 l 1,87,-1
 352 1379 l 2,88,89
 342 1429 342 1429 336 1440 c 0,90,91
 328 1453 328 1453 310 1461 c 0,92,93
 291 1468 291 1468 291 1479 c 0,94,95
 291 1492 291 1492 311 1492 c 2,96,-1
 333 1489 l 2,97,98
 342 1486 342 1486 353.5 1484.5 c 128,-1,99
 365 1483 365 1483 377 1481 c 0,100,101
 401 1478 401 1478 424 1478 c 0,102,103
 471 1478 471 1478 515 1489 c 1,104,-1
 537 1492 l 2,105,106
 555 1492 555 1492 557 1479 c 0,107,108
 557 1470 557 1470 541 1462 c 0,109,110
 519 1454 519 1454 513 1442 c 0,111,112
 507 1428 507 1428 495 1379 c 2,113,-1
 462 1212 l 1,0,-1
EndSplineSet
Validated: 1
EndChar

StartChar: plus
Encoding: 43 43 29
Width: 984
Flags: W
LayerCount: 2
Fore
SplineSet
589 863 m 1,0,-1
 938 863 l 1,1,-1
 938 709 l 1,2,-1
 589 709 l 1,3,-1
 589 354 l 1,4,-1
 423 354 l 1,5,-1
 423 709 l 1,6,-1
 74 709 l 1,7,-1
 74 863 l 1,8,-1
 423 863 l 1,9,-1
 423 1219 l 1,10,-1
 589 1219 l 1,11,-1
 589 863 l 1,0,-1
EndSplineSet
Validated: 1
EndChar

StartChar: hyphen
Encoding: 45 45 30
Width: 768
Flags: W
LayerCount: 2
Fore
SplineSet
378.719726562 447 m 28,0,1
 371.879882812 440.879882812 371.879882812 440.879882812 218.879882812 605.759765625 c 4,2,3
 209.879882812 615.479492188 209.879882812 615.479492188 209.989257812 628.82421875 c 4,4,5
 209.879882812 638.51953125 209.879882812 638.51953125 216 648.599609375 c 5,6,-1
 216 648.780273438 l 5,7,-1
 216 648.959960938 l 6,8,9
 216 649.3203125 216 649.3203125 219.239257812 653.639648438 c 4,10,11
 232.919921875 673.080078125 232.919921875 673.080078125 247.319335938 686.940429688 c 132,-1,12
 261.719726562 700.799804688 261.719726562 700.799804688 281.51953125 719.51953125 c 5,13,14
 284.399414062 728.879882812 284.399414062 728.879882812 324 771 c 4,15,16
 357.83984375 806.639648438 357.83984375 806.639648438 360 807.719726562 c 5,17,18
 370.799804688 814.559570312 370.799804688 814.559570312 385.040039062 814.521484375 c 4,19,20
 388.079101562 814.559570312 388.079101562 814.559570312 391.319335938 814.200195312 c 4,21,22
 408.239257812 812.400390625 408.239257812 812.400390625 419.399414062 802.3203125 c 4,23,24
 456.83984375 767.759765625 456.83984375 767.759765625 484.379882812 729.780273438 c 4,25,26
 506.51953125 699.360351562 506.51953125 699.360351562 541.799804688 642.83984375 c 4,27,28
 549 631.3203125 549 631.3203125 550.439453125 628.080078125 c 4,29,30
 553.319335938 620.51953125 553.319335938 620.51953125 553.264648438 613.95703125 c 4,31,32
 553.319335938 603.240234375 553.319335938 603.240234375 547.559570312 597.479492188 c 4,33,34
 462.959960938 522.240234375 462.959960938 522.240234375 378.719726562 447 c 28,0,1
EndSplineSet
EndChar

StartChar: period
Encoding: 46 46 31
Width: 379
Flags: W
LayerCount: 2
Fore
SplineSet
220 309 m 0,0,1
 278 309 278 309 319 267 c 0,2,3
 361 225 361 225 361 166 c 0,4,5
 361 105 361 105 319 63 c 0,6,7
 278 22 278 22 218 22 c 0,8,9
 157 22 157 22 116 63 c 0,10,11
 74 105 74 105 74 166 c 0,12,13
 74 226 74 226 116 267 c 0,14,15
 156 309 156 309 220 309 c 0,0,1
EndSplineSet
Validated: 1
EndChar

StartChar: slash
Encoding: 47 47 32
Width: 867
Flags: W
LayerCount: 2
Fore
SplineSet
665 1599 m 1,0,-1
 826 1599 l 1,1,-1
 182 -69 l 1,2,-1
 20 -69 l 1,3,-1
 665 1599 l 1,0,-1
EndSplineSet
Validated: 1
EndChar

StartChar: at
Encoding: 64 64 33
Width: 1485
Flags: W
LayerCount: 2
Fore
SplineSet
819 471 m 1,0,1
 741 383 741 383 639 383 c 0,2,3
 542 383 542 383 480 462 c 0,4,5
 418 542 418 542 418 664 c 0,6,7
 418 709 418 709 426 761 c 0,8,9
 435 810 435 810 455 859 c 0,10,11
 492 955 492 955 557 1031 c 0,12,13
 674 1160 674 1160 812 1160 c 0,14,15
 854 1160 854 1160 892 1144 c 0,16,17
 931 1129 931 1129 931 1110 c 0,18,19
 931 1086 931 1086 903 1086 c 2,20,-1
 893 1087 l 1,21,-1
 870 1088 l 1,22,23
 776 1088 776 1088 709 987 c 0,24,25
 672 928 672 928 648 844 c 0,26,27
 625 758 625 758 625 693 c 0,28,29
 625 619 625 619 652 579 c 0,30,31
 680 537 680 537 726 537 c 0,32,33
 770 537 770 537 797 574 c 0,34,35
 823 613 823 613 837 700 c 2,36,-1
 856 838 l 1,37,-1
 866 925 l 2,38,39
 866 956 866 956 822 984 c 0,40,41
 809 990 809 990 809 1005 c 0,42,43
 809 1028 809 1028 842 1039 c 0,44,45
 923 1064 923 1064 954 1080 c 0,46,47
 986 1096 986 1096 1042 1144 c 0,48,49
 1059 1160 1059 1160 1073 1160 c 0,50,51
 1093 1160 1093 1160 1093 1139 c 2,52,-1
 1091 1119 l 1,53,-1
 1028 665 l 2,54,55
 1023 636 1023 636 1022 617 c 0,56,57
 1019 597 1019 597 1019 580 c 0,58,59
 1019 537 1019 537 1044 537 c 0,60,61
 1090 537 1090 537 1156 624 c 0,62,63
 1205 690 1205 690 1236 781 c 0,64,65
 1268 875 1268 875 1268 956 c 0,66,67
 1268 1113 1268 1113 1174 1235 c 0,68,69
 1120 1303 1120 1303 1042 1342 c 0,70,71
 961 1381 961 1381 876 1381 c 0,72,73
 644 1381 644 1381 454 1195 c 0,74,75
 363 1107 363 1107 305 991 c 0,76,77
 222 823 222 823 222 641 c 0,78,79
 222 438 222 438 345 303 c 0,80,81
 477 162 477 162 672 162 c 0,82,83
 822 162 822 162 960 249 c 0,84,85
 999 272 999 272 1017 272 c 0,86,87
 1042 272 1042 272 1062 254 c 0,88,89
 1081 233 1081 233 1081 209 c 0,90,91
 1081 165 1081 165 1021 129 c 0,92,93
 841 22 841 22 655 22 c 0,94,95
 462 22 462 22 315 131 c 0,96,97
 175 234 175 234 114 409 c 0,98,99
 74 523 74 523 74 654 c 0,100,101
 74 929 74 929 237 1164 c 0,102,103
 360 1343 360 1343 544 1439 c 0,104,105
 700 1521 700 1521 866 1521 c 0,106,107
 1041 1521 1041 1521 1182 1427 c 0,108,109
 1305 1345 1305 1345 1368 1207 c 0,110,111
 1415 1097 1415 1097 1415 972 c 0,112,113
 1415 760 1415 760 1296 592 c 0,114,115
 1230 496 1230 496 1143 439 c 0,116,117
 1056 383 1056 383 977 383 c 0,118,119
 865 383 865 383 819 471 c 1,0,1
EndSplineSet
Validated: 1
EndChar

StartChar: bracketleft
Encoding: 91 91 34
Width: 488
Flags: W
LayerCount: 2
Fore
SplineSet
122 68 m 2,0,-1
 122 1461 l 2,1,2
 122 1520 122 1520 134 1535 c 256,3,4
 146 1550 146 1550 207 1568 c 2,5,-1
 398 1623 l 2,6,7
 419 1629 419 1629 430 1629 c 256,8,9
 441 1629 441 1629 454 1618 c 0,10,11
 465 1607 465 1607 465 1594 c 0,12,13
 465 1578 465 1578 431 1557 c 0,14,15
 392 1533 392 1533 382 1484 c 0,16,17
 373 1433 373 1433 373 1261 c 2,18,-1
 373 269 l 2,19,20
 373 85 373 85 383 41 c 0,21,22
 393 -4 393 -4 444 -33 c 0,23,24
 465 -48 465 -48 465 -64 c 0,25,26
 465 -75 465 -75 454 -88 c 0,27,28
 441 -99 441 -99 430 -99 c 0,29,30
 417 -99 417 -99 398 -93 c 2,31,-1
 207 -38 l 2,32,33
 146 -20 146 -20 134 -5 c 0,34,35
 122 7 122 7 122 68 c 2,0,-1
EndSplineSet
Validated: 1
EndChar

StartChar: backslash
Encoding: 92 92 35
Width: 873
Flags: W
LayerCount: 2
Fore
SplineSet
188 1599 m 1,0,-1
 832 -69 l 1,1,-1
 671 -69 l 1,2,-1
 27 1599 l 1,3,-1
 188 1599 l 1,0,-1
EndSplineSet
Validated: 1
EndChar

StartChar: bracketright
Encoding: 93 93 36
Width: 457
Flags: W
LayerCount: 2
Fore
SplineSet
436 1461 m 2,0,-1
 436 68 l 2,1,2
 436 6 436 6 425 -5 c 0,3,4
 413 -19 413 -19 352 -38 c 2,5,-1
 161 -93 l 2,6,7
 140 -99 140 -99 129 -99 c 0,8,9
 116 -99 116 -99 105 -88 c 0,10,11
 94 -75 94 -75 94 -64 c 0,12,13
 94 -46 94 -46 128 -27 c 0,14,15
 165 -2 165 -2 176 46 c 0,16,17
 186 93 186 93 186 269 c 2,18,-1
 186 1261 l 2,19,20
 186 1438 186 1438 176 1488 c 0,21,22
 165 1533 165 1533 115 1564 c 0,23,24
 94 1577 94 1577 94 1594 c 0,25,26
 94 1607 94 1607 105 1618 c 256,27,28
 116 1629 116 1629 129 1629 c 0,29,30
 140 1629 140 1629 161 1623 c 2,31,-1
 352 1568 l 2,32,33
 413 1549 413 1549 425 1535 c 0,34,35
 436 1521 436 1521 436 1461 c 2,0,-1
EndSplineSet
Validated: 1
EndChar

StartChar: asciicircum
Encoding: 94 94 37
Width: 1072
Flags: W
LayerCount: 2
Fore
SplineSet
247 848 m 1,0,-1
 60 848 l 1,1,-1
 427 1497 l 1,2,-1
 656 1497 l 1,3,-1
 1021 848 l 1,4,-1
 833 848 l 1,5,-1
 539 1358 l 1,6,-1
 247 848 l 1,0,-1
EndSplineSet
Validated: 1
EndChar

StartChar: underscore
Encoding: 95 95 38
Width: 1135
Flags: W
LayerCount: 2
Fore
SplineSet
1081 -199 m 1,0,-1
 0 -199 l 1,1,-1
 0 -45 l 1,2,-1
 1081 -45 l 1,3,-1
 1081 -199 l 1,0,-1
EndSplineSet
Validated: 1
EndChar

StartChar: grave
Encoding: 96 96 39
Width: 620
Flags: W
LayerCount: 2
Fore
SplineSet
392 1349 m 2,0,-1
 490 1349 l 2,1,2
 525 1349 525 1349 535 1342 c 0,3,4
 546 1333 546 1333 552 1304 c 2,5,-1
 587 1130 l 2,6,7
 591 1110 591 1110 591 1099 c 0,8,9
 591 1071 591 1071 560 1071 c 0,10,11
 537 1071 537 1071 517 1096 c 2,12,-1
 361 1286 l 2,13,14
 342 1309 342 1309 342 1324 c 0,15,16
 342 1349 342 1349 392 1349 c 2,0,-1
EndSplineSet
Validated: 1
EndChar

StartChar: braceleft
Encoding: 123 123 40
Width: 784
Flags: W
LayerCount: 2
Fore
SplineSet
307 786 m 1,0,1
 406 766 406 766 459 711 c 0,2,3
 495 671 495 671 506 628 c 0,4,5
 516 585 516 585 516 478 c 2,6,-1
 516 293 l 2,7,8
 516 117 516 117 548 58 c 0,9,10
 578 1 578 1 676 -5 c 0,11,12
 747 -7 747 -7 747 -56 c 0,13,14
 747 -99 747 -99 670 -99 c 0,15,16
 457 -99 457 -99 399 -74 c 0,17,18
 308 -37 308 -37 282 79 c 0,19,20
 267 143 267 143 267 263 c 2,21,-1
 267 446 l 1,22,-1
 267 510 l 2,23,24
 265 628 265 628 262 650 c 0,25,26
 258 680 258 680 241 701 c 0,27,28
 209 737 209 737 148 741 c 0,29,30
 92 744 92 744 92 787 c 0,31,32
 92 827 92 827 148 831 c 0,33,34
 211 835 211 835 241 870 c 0,35,36
 259 894 259 894 262 923 c 0,37,38
 265 944 265 944 267 1061 c 2,39,-1
 267 1126 l 1,40,-1
 267 1266 l 2,41,42
 267 1434 267 1434 304 1510 c 0,43,44
 333 1569 333 1569 381 1596 c 0,45,46
 426 1620 426 1620 515 1625 c 0,47,48
 580 1629 580 1629 670 1629 c 0,49,50
 747 1629 747 1629 747 1586 c 0,51,52
 747 1558 747 1558 728 1547 c 0,53,54
 711 1537 711 1537 655 1534 c 0,55,56
 574 1528 574 1528 545 1467 c 0,57,58
 516 1402 516 1402 516 1236 c 2,59,-1
 516 1095 l 2,60,61
 516 986 516 986 506 945 c 0,62,63
 495 901 495 901 459 862 c 0,64,65
 407 805 407 805 307 786 c 1,0,1
EndSplineSet
Validated: 1
EndChar

StartChar: bar
Encoding: 124 124 41
Width: 674
Flags: W
LayerCount: 2
Fore
SplineSet
438 1492 m 1,0,-1
 642 1492 l 1,1,-1
 642 -308 l 1,2,-1
 438 -308 l 1,3,-1
 438 1492 l 1,0,-1
EndSplineSet
Validated: 1
EndChar

StartChar: braceright
Encoding: 125 125 42
Width: 792
Flags: W
LayerCount: 2
Fore
SplineSet
540 786 m 1,0,1
 441 805 441 805 388 862 c 0,2,3
 351 901 351 901 341 945 c 0,4,5
 331 986 331 986 331 1095 c 2,6,-1
 331 1236 l 2,7,8
 331 1411 331 1411 299 1471 c 0,9,10
 268 1530 268 1530 170 1535 c 0,11,12
 100 1537 100 1537 100 1586 c 0,13,14
 100 1629 100 1629 177 1629 c 0,15,16
 388 1629 388 1629 448 1605 c 0,17,18
 538 1566 538 1566 565 1450 c 0,19,20
 580 1385 580 1385 580 1266 c 2,21,-1
 580 1126 l 1,22,-1
 580 1061 l 2,23,24
 581 946 581 946 584 923 c 0,25,26
 588 893 588 893 606 870 c 0,27,28
 636 835 636 835 699 831 c 0,29,30
 755 827 755 827 755 787 c 0,31,32
 755 744 755 744 699 741 c 0,33,34
 635 739 635 739 606 701 c 0,35,36
 588 681 588 681 584 650 c 0,37,38
 581 627 581 627 580 510 c 2,39,-1
 580 446 l 1,40,-1
 580 263 l 2,41,42
 580 94 580 94 543 20 c 0,43,44
 510 -41 510 -41 466 -66 c 0,45,46
 419 -91 419 -91 332 -94 c 0,47,48
 250 -99 250 -99 177 -99 c 0,49,50
 100 -99 100 -99 100 -56 c 0,51,52
 100 -27 100 -27 119 -17 c 0,53,54
 140 -5 140 -5 191 -4 c 0,55,56
 271 0 271 0 301 62 c 0,57,58
 331 125 331 125 331 293 c 2,59,-1
 331 478 l 2,60,61
 331 586 331 586 341 628 c 0,62,63
 350 669 350 669 388 711 c 0,64,65
 442 768 442 768 540 786 c 1,0,1
EndSplineSet
Validated: 1
EndChar

StartChar: asciitilde
Encoding: 126 126 43
Width: 1303
Flags: W
LayerCount: 2
Fore
SplineSet
309 1291 m 1,0,-1
 204 1376 l 1,1,2
 264 1506 264 1506 336 1568 c 256,3,4
 408 1630 408 1630 501 1630 c 0,5,6
 585 1630 585 1630 748 1550 c 0,7,8
 834 1507 834 1507 874 1492 c 0,9,10
 914 1479 914 1479 949 1479 c 0,11,12
 1047 1479 1047 1479 1136 1635 c 1,13,-1
 1241 1551 l 1,14,15
 1197 1455 1197 1455 1151 1399 c 0,16,17
 1062 1295 1062 1295 942 1295 c 0,18,19
 900 1295 900 1295 855 1311 c 0,20,21
 808 1325 808 1325 701 1377 c 0,22,23
 553 1447 553 1447 495 1447 c 0,24,25
 442 1447 442 1447 400 1412 c 0,26,27
 357 1375 357 1375 309 1291 c 1,0,-1
EndSplineSet
Validated: 1
EndChar

StartChar: comma
Encoding: 44 44 44
Width: 447
Flags: W
LayerCount: 2
Fore
SplineSet
218 -315 m 1,0,-1
 184 -282 l 1,1,2
 224 -210 224 -210 246 -147 c 0,3,4
 256 -117 256 -117 262 -86 c 0,5,6
 267 -61 267 -61 267 -25 c 1,7,8
 224 -25 224 -25 197 -14 c 0,9,10
 167 -3 167 -3 145 18 c 0,11,12
 106 58 106 58 106 134 c 0,13,14
 106 215 106 215 147 264 c 0,15,16
 188 311 188 311 259 311 c 0,17,18
 336 311 336 311 381 251 c 0,19,20
 426 189 426 189 426 83 c 0,21,22
 426 -7 426 -7 375 -105 c 0,23,24
 325 -201 325 -201 218 -315 c 1,0,-1
EndSplineSet
Validated: 1
EndChar

StartChar: quotedbl
Encoding: 34 34 45
Width: 816
Flags: W
LayerCount: 2
Fore
SplineSet
284 1210 m 1,0,1
 387 1187 387 1187 387 1088 c 0,2,3
 387 1027 387 1027 346 985 c 0,4,5
 305 944 305 944 245 944 c 0,6,7
 180 944 180 944 140 988 c 0,8,9
 100 1030 100 1030 100 1102 c 0,10,11
 100 1261 100 1261 266 1398 c 0,12,13
 356 1470 356 1470 394 1470 c 0,14,15
 412 1470 412 1470 412 1451 c 0,16,17
 412 1442 412 1442 395 1425 c 0,18,19
 299 1323 299 1323 284 1210 c 1,0,1
651 1210 m 1,20,21
 753 1187 753 1187 753 1088 c 0,22,23
 753 1027 753 1027 712 985 c 0,24,25
 671 944 671 944 612 944 c 0,26,27
 548 944 548 944 506 988 c 0,28,29
 466 1030 466 1030 466 1102 c 0,30,31
 466 1261 466 1261 633 1398 c 0,32,33
 721 1470 721 1470 760 1470 c 0,34,35
 778 1470 778 1470 778 1451 c 0,36,37
 778 1442 778 1442 761 1425 c 0,38,39
 664 1320 664 1320 651 1210 c 1,20,21
EndSplineSet
Validated: 1
EndChar

StartChar: Ccedilla
Encoding: 199 199 46
Width: 1508
Flags: W
LayerCount: 2
Fore
SplineSet
807 -35 m 1,0,-1
 782 -95 l 1,1,2
 841 -95 841 -95 879 -110 c 0,3,4
 983 -149 983 -149 983 -258 c 0,5,6
 983 -346 983 -346 919 -400 c 0,7,8
 854 -454 854 -454 750 -454 c 0,9,10
 662 -454 662 -454 604 -414 c 0,11,12
 546 -373 546 -373 546 -312 c 0,13,14
 546 -273 546 -273 576 -246 c 256,15,16
 606 -219 606 -219 650 -219 c 0,17,18
 683 -219 683 -219 683 -236 c 0,19,20
 683 -241 683 -241 676 -248 c 0,21,22
 664 -263 664 -263 664 -283 c 0,23,24
 664 -312 664 -312 692 -335 c 0,25,26
 718 -357 718 -357 756 -357 c 0,27,28
 796 -357 796 -357 824 -332 c 256,29,30
 852 -307 852 -307 852 -270 c 0,31,32
 852 -231 852 -231 822 -207 c 0,33,34
 791 -184 791 -184 746 -184 c 0,35,36
 729 -184 729 -184 696 -188 c 0,37,38
 676 -190 676 -190 674 -190 c 0,39,40
 635 -190 635 -190 635 -153 c 0,41,42
 635 -139 635 -139 649 -111 c 2,43,-1
 690 -22 l 1,44,45
 519 9 519 9 388 98 c 0,46,47
 229 206 229 206 149 381 c 0,48,49
 78 536 78 536 78 722 c 0,50,51
 78 1042 78 1042 274 1246 c 0,52,53
 379 1357 379 1357 533 1419 c 0,54,55
 666 1470 666 1470 799 1470 c 0,56,57
 895 1470 895 1470 1033 1431 c 0,58,59
 1121 1407 1121 1407 1154 1407 c 0,60,61
 1178 1407 1178 1407 1222 1424 c 0,62,63
 1244 1434 1244 1434 1260 1434 c 0,64,65
 1314 1434 1314 1434 1356 1350 c 0,66,67
 1398 1264 1398 1264 1398 1157 c 0,68,69
 1398 921 1398 921 1236 782 c 0,70,71
 1099 667 1099 667 918 667 c 0,72,73
 802 667 802 667 717 719 c 0,74,75
 608 787 608 787 608 894 c 0,76,77
 608 963 608 963 658 1009 c 0,78,79
 709 1056 709 1056 768 1056 c 0,80,81
 796 1056 796 1056 816 1040 c 0,82,83
 835 1025 835 1025 835 1002 c 0,84,85
 835 973 835 973 800 960 c 0,86,87
 737 931 737 931 737 894 c 0,88,89
 737 863 737 863 773 839 c 256,90,91
 809 815 809 815 858 815 c 0,92,93
 932 815 932 815 986 864 c 0,94,95
 1041 913 1041 913 1041 980 c 0,96,97
 1041 1061 1041 1061 967 1119 c 0,98,99
 894 1177 894 1177 790 1177 c 0,100,101
 715 1177 715 1177 644 1145 c 0,102,103
 571 1110 571 1110 525 1056 c 0,104,105
 409 920 409 920 409 710 c 0,106,107
 409 486 409 486 546 342 c 0,108,109
 682 195 682 195 900 195 c 0,110,111
 1204 195 1204 195 1339 472 c 0,112,113
 1355 505 1355 505 1384 505 c 0,114,115
 1437 505 1437 505 1437 424 c 0,116,117
 1437 300 1437 300 1356 189 c 0,118,119
 1277 82 1277 82 1145 22 c 0,120,121
 1010 -36 1010 -36 851 -36 c 0,122,123
 828 -36 828 -36 807 -35 c 1,0,-1
EndSplineSet
Validated: 1
EndChar

StartChar: cent
Encoding: 162 162 47
Width: 1024
Flags: W
LayerCount: 2
Fore
SplineSet
477 1372 m 1,0,-1
 594 1372 l 1,1,-1
 594 1244 l 1,2,3
 669 1236 669 1236 719 1222 c 0,4,5
 752 1215 752 1215 764 1215 c 0,6,7
 782 1215 782 1215 812 1226 c 0,8,9
 828 1232 828 1232 837 1232 c 0,10,11
 867 1232 867 1232 897 1181 c 0,12,13
 928 1129 928 1129 928 1078 c 0,14,15
 928 1013 928 1013 886 968 c 0,16,17
 838 918 838 918 773 918 c 0,18,19
 727 918 727 918 688 942 c 0,20,21
 649 967 649 967 649 997 c 0,22,23
 649 1013 649 1013 670 1019 c 0,24,25
 697 1025 697 1025 697 1045 c 0,26,27
 697 1075 697 1075 669 1097 c 0,28,29
 641 1117 641 1117 594 1122 c 1,30,-1
 594 485 l 1,31,32
 624 480 624 480 642 480 c 0,33,34
 715 480 715 480 777 511 c 0,35,36
 839 541 839 541 875 594 c 0,37,38
 891 621 891 621 905 633 c 0,39,40
 916 643 916 643 938 643 c 0,41,42
 976 643 976 643 976 603 c 0,43,44
 976 551 976 551 945 491 c 0,45,46
 912 427 912 427 864 379 c 0,47,48
 746 260 746 260 594 260 c 1,49,-1
 594 98 l 1,50,-1
 477 98 l 1,51,-1
 477 260 l 1,52,53
 391 278 391 278 330 309 c 0,54,55
 78 436 78 436 78 738 c 0,56,57
 78 922 78 922 177 1060 c 0,58,59
 230 1136 230 1136 298 1176 c 0,60,61
 363 1217 363 1217 477 1243 c 1,62,-1
 477 1372 l 1,0,-1
477 1106 m 1,63,64
 316 1017 316 1017 316 805 c 0,65,66
 316 618 316 618 477 515 c 1,67,-1
 477 1106 l 1,63,64
EndSplineSet
Validated: 1
EndChar

StartChar: sterling
Encoding: 163 163 48
Width: 1300
Flags: W
LayerCount: 2
Fore
SplineSet
959 696 m 1,0,-1
 959 579 l 1,1,-1
 645 579 l 1,2,3
 637 487 637 487 608 429 c 0,4,5
 576 369 576 369 488 267 c 1,6,7
 748 380 748 380 974 380 c 0,8,9
 1076 380 1076 380 1148 356 c 0,10,11
 1221 331 1221 331 1221 297 c 0,12,13
 1221 284 1221 284 1201 254 c 0,14,15
 1132 154 1132 154 1119 40 c 0,16,17
 1111 -28 1111 -28 1062 -28 c 0,18,19
 1039 -28 1039 -28 940 17 c 0,20,21
 763 100 763 100 599 100 c 0,22,23
 486 100 486 100 281 15 c 0,24,25
 207 -13 207 -13 189 -13 c 0,26,27
 162 -13 162 -13 135 8 c 0,28,29
 110 30 110 30 110 56 c 0,30,31
 110 98 110 98 190 156 c 0,32,33
 323 250 323 250 372 348 c 0,34,35
 405 418 405 418 405 472 c 0,36,37
 405 513 405 513 385 579 c 1,38,-1
 167 579 l 1,39,-1
 167 696 l 1,40,-1
 332 696 l 1,41,42
 221 842 221 842 189 908 c 0,43,44
 157 975 157 975 157 1047 c 0,45,46
 157 1177 157 1177 252 1290 c 0,47,48
 403 1470 403 1470 674 1470 c 0,49,50
 752 1470 752 1470 800 1461 c 0,51,52
 852 1449 852 1449 969 1412 c 0,53,54
 997 1403 997 1403 1021 1403 c 0,55,56
 1036 1403 1036 1403 1078 1413 c 0,57,58
 1086 1415 1086 1415 1095 1415 c 0,59,60
 1114 1415 1114 1415 1142 1389 c 0,61,62
 1239 1299 1239 1299 1239 1168 c 0,63,64
 1239 1050 1239 1050 1154 965 c 0,65,66
 1059 872 1059 872 911 872 c 0,67,68
 800 872 800 872 728 927 c 0,69,70
 655 983 655 983 655 1066 c 0,71,72
 655 1140 655 1140 708 1140 c 0,73,74
 732 1140 732 1140 743 1113 c 0,75,76
 769 1046 769 1046 833 1046 c 0,77,78
 882 1046 882 1046 915 1080 c 0,79,80
 948 1113 948 1113 948 1163 c 0,81,82
 948 1233 948 1233 885 1280 c 0,83,84
 833 1318 833 1318 761 1318 c 0,85,86
 642 1318 642 1318 568 1226 c 0,87,88
 510 1156 510 1156 510 1066 c 0,89,90
 510 989 510 989 585 851 c 0,91,92
 636 752 636 752 645 696 c 1,93,-1
 959 696 l 1,0,-1
EndSplineSet
Validated: 1
EndChar

StartChar: yen
Encoding: 165 165 49
Width: 1450
Flags: W
LayerCount: 2
Fore
SplineSet
253 608 m 1,0,-1
 253 725 l 1,1,-1
 562 725 l 1,2,-1
 257 1192 l 2,3,4
 198 1280 198 1280 115 1331 c 0,5,6
 43 1374 43 1374 43 1401 c 0,7,8
 43 1415 43 1415 57 1428 c 0,9,10
 72 1440 72 1440 89 1440 c 0,11,12
 104 1440 104 1440 161 1416 c 0,13,14
 248 1382 248 1382 359 1382 c 0,15,16
 465 1382 465 1382 562 1419 c 0,17,18
 617 1440 617 1440 635 1440 c 0,19,20
 654 1440 654 1440 667 1427 c 0,21,22
 680 1415 680 1415 680 1398 c 0,23,24
 680 1379 680 1379 672 1370 c 0,25,26
 662 1360 662 1360 619 1332 c 0,27,28
 589 1312 589 1312 589 1276 c 256,29,30
 589 1240 589 1240 610 1209 c 2,31,-1
 872 806 l 1,32,33
 911 866 911 866 932 890 c 0,34,35
 947 908 947 908 1012 970 c 0,36,37
 1079 1032 1079 1032 1106 1069 c 0,38,39
 1130 1105 1130 1105 1130 1139 c 0,40,41
 1130 1174 1130 1174 1107 1197 c 0,42,43
 1082 1220 1082 1220 1050 1220 c 0,44,45
 995 1220 995 1220 959 1149 c 0,46,47
 945 1119 945 1119 921 1119 c 0,48,49
 889 1119 889 1119 862 1161 c 0,50,51
 835 1201 835 1201 835 1252 c 0,52,53
 835 1337 835 1337 901 1399 c 0,54,55
 978 1470 978 1470 1100 1470 c 0,56,57
 1224 1470 1224 1470 1304 1398 c 0,58,59
 1381 1327 1381 1327 1381 1217 c 0,60,61
 1381 1124 1381 1124 1324 1046 c 0,62,63
 1294 1004 1294 1004 1175 907 c 0,64,65
 1040 793 1040 793 995 725 c 1,66,-1
 1282 725 l 1,67,-1
 1282 608 l 1,68,-1
 939 608 l 1,69,70
 927 570 927 570 926 492 c 1,71,-1
 1256 492 l 1,72,-1
 1256 375 l 1,73,-1
 925 375 l 1,74,-1
 925 331 l 2,75,76
 925 197 925 197 943 157 c 0,77,78
 960 119 960 119 1040 87 c 0,79,80
 1085 69 1085 69 1085 42 c 0,81,82
 1085 0 1085 0 1021 0 c 2,83,-1
 514 0 l 2,84,85
 449 0 449 0 449 42 c 0,86,87
 449 58 449 58 460 68 c 0,88,89
 472 78 472 78 512 94 c 0,90,91
 576 119 576 119 593 161 c 0,92,93
 610 202 610 202 610 332 c 2,94,-1
 610 375 l 1,95,-1
 278 375 l 1,96,-1
 278 492 l 1,97,-1
 610 492 l 1,98,-1
 610 608 l 1,99,-1
 253 608 l 1,0,-1
EndSplineSet
Validated: 1
EndChar

StartChar: questiondown
Encoding: 191 191 50
Width: 1271
Flags: W
LayerCount: 2
Fore
SplineSet
728 1139 m 0,0,1
 770 1139 770 1139 786 1095 c 0,2,3
 809 1027 809 1027 809 943 c 0,4,5
 809 832 809 832 729 728 c 0,6,7
 700 692 700 692 606 608 c 0,8,9
 468 485 468 485 468 344 c 0,10,11
 468 231 468 231 571 157 c 0,12,13
 633 113 633 113 711 113 c 0,14,15
 799 113 799 113 865 172 c 0,16,17
 919 221 919 221 919 286 c 0,18,19
 919 334 919 334 888 370 c 0,20,21
 856 404 856 404 811 404 c 0,22,23
 744 404 744 404 719 340 c 0,24,25
 705 305 705 305 678 305 c 0,26,27
 629 305 629 305 629 368 c 0,28,29
 629 460 629 460 713 523 c 0,30,31
 786 577 786 577 888 577 c 0,32,33
 1023 577 1023 577 1124 489 c 0,34,35
 1211 409 1211 409 1211 280 c 0,36,37
 1211 191 1211 191 1162 113 c 0,38,39
 1114 34 1114 34 1061 34 c 0,40,41
 1053 34 1053 34 1026 40 c 0,42,43
 1008 44 1008 44 993 44 c 0,44,45
 965 44 965 44 927 33 c 0,46,47
 798 -3 798 -3 729 -17 c 0,48,49
 672 -28 672 -28 598 -28 c 0,50,51
 386 -28 386 -28 246 95 c 0,52,53
 113 210 113 210 113 368 c 0,54,55
 113 524 113 524 253 651 c 0,56,57
 296 690 296 690 325 709 c 0,58,59
 355 729 355 729 477 798 c 0,60,61
 648 901 648 901 666 1027 c 0,62,63
 674 1100 674 1100 685 1121 c 0,64,65
 695 1137 695 1137 728 1139 c 0,0,1
743 1470 m 0,66,67
 812 1470 812 1470 862 1428 c 0,68,69
 911 1386 911 1386 911 1327 c 0,70,71
 911 1266 911 1266 862 1225 c 0,72,73
 812 1183 812 1183 741 1183 c 0,74,75
 668 1183 668 1183 619 1225 c 0,76,77
 570 1266 570 1266 570 1328 c 0,78,79
 570 1387 570 1387 621 1428 c 0,80,81
 672 1470 672 1470 743 1470 c 0,66,67
EndSplineSet
Validated: 1
EndChar

StartChar: logicalnot
Encoding: 172 172 51
Width: 1287
Flags: W
LayerCount: 2
Fore
SplineSet
989 0 m 1,0,-1
 989 428 l 1,1,-1
 111 428 l 1,2,-1
 111 606 l 1,3,-1
 1226 606 l 1,4,-1
 1226 0 l 1,5,-1
 989 0 l 1,0,-1
EndSplineSet
Validated: 1
EndChar

StartChar: onehalf
Encoding: 189 189 52
Width: 1660
Flags: W
LayerCount: 2
Fore
SplineSet
438 569 m 2,0,-1
 134 569 l 2,1,2
 89 569 89 569 89 592 c 0,3,4
 89 604 89 604 95 610 c 0,5,6
 99 614 99 614 135 634 c 0,7,8
 166 651 166 651 172 676 c 0,9,10
 179 701 179 701 179 796 c 2,11,-1
 179 1201 l 2,12,13
 179 1241 179 1241 171 1255 c 0,14,15
 163 1270 163 1270 136 1280 c 0,16,17
 99 1293 99 1293 91 1300 c 0,18,19
 84 1305 84 1305 84 1318 c 0,20,21
 84 1340 84 1340 122 1346 c 0,22,23
 227 1360 227 1360 296 1414 c 0,24,25
 344 1454 344 1454 364 1454 c 0,26,27
 382 1454 382 1454 388 1445 c 0,28,29
 393 1435 393 1435 393 1403 c 2,30,-1
 393 796 l 2,31,32
 393 692 393 692 401 670 c 0,33,34
 411 648 411 648 466 620 c 0,35,36
 483 609 483 609 483 593 c 0,37,38
 483 569 483 569 438 569 c 2,0,-1
415 -42 m 1,39,-1
 257 -42 l 1,40,-1
 978 1484 l 1,41,-1
 1135 1484 l 1,42,-1
 415 -42 l 1,39,-1
1064 174 m 1,43,44
 1276 174 l 2,45,46
 1353 174 1353 174 1389 232 c 0,47,48
 1409 269 1409 269 1434 269 c 0,49,50
 1455 269 1455 269 1461 260 c 0,51,52
 1468 251 1468 251 1470 222 c 0,53,54
 1478 117 1478 117 1550 61 c 0,55,56
 1581 35 1581 35 1581 22 c 0,57,58
 1581 0 1581 0 1522 0 c 2,59,-1
 949 0 l 2,60,61
 905 0 905 0 890 10 c 0,62,63
 872 19 872 19 872 42 c 0,64,65
 872 118 872 118 927 199 c 0,66,67
 981 278 981 278 1101 374 c 0,68,69
 1217 467 1217 467 1246 499 c 0,70,71
 1323 582 1323 582 1323 662 c 0,72,73
 1323 714 1323 714 1281 755 c 0,74,75
 1239 795 1239 795 1182 795 c 0,76,77
 1134 795 1134 795 1097 765 c 0,78,79
 1061 736 1061 736 1061 696 c 0,80,81
 1061 671 1061 671 1080 652 c 0,82,83
 1100 635 1100 635 1124 635 c 0,84,85
 1153 635 1153 635 1165 669 c 0,86,87
 1175 697 1175 697 1202 697 c 0,88,89
 1241 697 1241 697 1241 648 c 0,90,91
 1241 595 1241 595 1190 556 c 0,92,93
 1138 518 1138 518 1067 518 c 0,94,95
 979 518 979 518 920 570 c 256,96,97
 861 622 861 622 861 702 c 256,98,99
 861 782 861 782 914 831 c 0,100,101
 941 858 941 858 964 858 c 1,102,103
 964 858 964 858 974 856 c 0,104,105
 996 851 996 851 1008 851 c 0,106,107
 1022 851 1022 851 1051 860 c 0,108,109
 1161 895 1161 895 1243 895 c 0,110,111
 1407 895 1407 895 1497 798 c 0,112,113
 1563 729 1563 729 1563 640 c 0,114,115
 1563 526 1563 526 1470 450 c 0,116,117
 1419 406 1419 406 1251 320 c 0,118,119
 1129 256 1129 256 1064 174 c 1,43,44
EndSplineSet
Validated: 1
EndChar

StartChar: onequarter
Encoding: 188 188 53
Width: 1501
Flags: W
LayerCount: 2
Fore
SplineSet
438 569 m 2,0,-1
 134 569 l 2,1,2
 89 569 89 569 89 592 c 0,3,4
 89 604 89 604 95 610 c 0,5,6
 99 614 99 614 135 634 c 0,7,8
 166 651 166 651 172 676 c 0,9,10
 179 701 179 701 179 796 c 2,11,-1
 179 1201 l 2,12,13
 179 1241 179 1241 171 1255 c 0,14,15
 163 1270 163 1270 136 1280 c 0,16,17
 99 1293 99 1293 91 1300 c 0,18,19
 84 1305 84 1305 84 1318 c 0,20,21
 84 1340 84 1340 122 1346 c 0,22,23
 227 1360 227 1360 296 1414 c 0,24,25
 344 1454 344 1454 364 1454 c 0,26,27
 382 1454 382 1454 388 1445 c 0,28,29
 393 1435 393 1435 393 1403 c 2,30,-1
 393 796 l 2,31,32
 393 692 393 692 401 670 c 0,33,34
 411 648 411 648 466 620 c 0,35,36
 483 609 483 609 483 593 c 0,37,38
 483 569 483 569 438 569 c 2,0,-1
423 -42 m 1,39,-1
 266 -42 l 1,40,-1
 987 1484 l 1,41,-1
 1144 1484 l 1,42,-1
 423 -42 l 1,39,-1
1430 315 m 1,43,-1
 1430 231 l 1,44,-1
 1310 231 l 1,45,46
 1310 118 1310 118 1318 98 c 0,47,48
 1327 76 1327 76 1388 50 c 0,49,50
 1400 44 1400 44 1400 27 c 0,51,52
 1400 0 1400 0 1355 0 c 2,53,-1
 1047 0 l 2,54,55
 1008 0 1008 0 995 6 c 0,56,57
 983 10 983 10 983 28 c 0,58,59
 983 47 983 47 1023 59 c 0,60,61
 1071 72 1071 72 1090 101 c 0,62,63
 1107 127 1107 127 1107 191 c 2,64,-1
 1107 231 l 1,65,-1
 787 231 l 2,66,67
 703 231 703 231 703 270 c 0,68,69
 703 294 703 294 746 327 c 0,70,71
 965 498 965 498 965 712 c 0,72,73
 965 757 965 757 963 772 c 0,74,75
 962 778 962 778 962 787 c 0,76,77
 962 811 962 811 979 820 c 0,78,79
 995 829 995 829 1041 832 c 0,80,81
 1096 835 1096 835 1128 844 c 0,82,83
 1161 856 1161 856 1204 881 c 0,84,85
 1224 894 1224 894 1238 894 c 0,86,87
 1273 894 1273 894 1273 861 c 0,88,89
 1273 792 1273 792 1214 682 c 0,90,91
 1160 580 1160 580 1084 500 c 0,92,93
 1009 420 1009 420 868 315 c 1,94,-1
 1107 315 l 1,95,-1
 1107 352 l 2,96,97
 1107 370 1107 370 1099 380 c 0,98,99
 1089 390 1089 390 1057 406 c 0,100,101
 1045 410 1045 410 1045 423 c 0,102,103
 1045 434 1045 434 1070 454 c 0,104,105
 1154 510 1154 510 1226 613 c 0,106,107
 1246 647 1246 647 1276 647 c 0,108,109
 1296 647 1296 647 1303 639 c 0,110,111
 1310 628 1310 628 1310 599 c 2,112,-1
 1310 315 l 1,113,-1
 1430 315 l 1,43,-1
EndSplineSet
Validated: 1
EndChar

StartChar: exclamdown
Encoding: 161 161 54
Width: 783
Flags: W
LayerCount: 2
Fore
SplineSet
517 1005 m 2,0,-1
 603 322 l 2,1,2
 618 196 618 196 636 154 c 0,3,4
 655 113 655 113 708 85 c 0,5,6
 746 63 746 63 746 38 c 0,7,8
 746 0 746 0 699 0 c 0,9,10
 690 0 690 0 646 11 c 0,11,12
 539 39 539 39 430 39 c 0,13,14
 320 39 320 39 214 11 c 0,15,16
 170 0 170 0 159 0 c 0,17,18
 113 0 113 0 113 39 c 0,19,20
 113 63 113 63 151 85 c 0,21,22
 204 111 204 111 224 154 c 0,23,24
 241 192 241 192 258 322 c 2,25,-1
 342 1005 l 2,26,27
 351 1072 351 1072 359 1092 c 0,28,29
 375 1140 375 1140 429 1140 c 0,30,31
 474 1140 474 1140 489 1116 c 0,32,33
 505 1092 505 1092 517 1005 c 2,0,-1
433 1470 m 0,34,35
 503 1470 503 1470 552 1427 c 0,36,37
 601 1385 601 1385 601 1327 c 0,38,39
 601 1266 601 1266 551 1225 c 0,40,41
 501 1183 501 1183 431 1183 c 0,42,43
 358 1183 358 1183 309 1225 c 0,44,45
 259 1267 259 1267 259 1328 c 0,46,47
 259 1386 259 1386 310 1428 c 256,48,49
 361 1470 361 1470 433 1470 c 0,34,35
EndSplineSet
Validated: 1
EndChar

StartChar: guillemotleft
Encoding: 171 171 55
Width: 749
Flags: W
LayerCount: 2
Fore
SplineSet
296 506 m 1,0,-1
 386 223 l 2,1,2
 398 188 398 188 398 174 c 0,3,4
 398 162 398 162 388 151 c 0,5,6
 379 142 379 142 367 142 c 0,7,8
 347 142 347 142 317 186 c 2,9,-1
 149 432 l 2,10,11
 113 483 113 483 113 512 c 0,12,13
 113 546 113 546 149 593 c 2,14,-1
 316 817 l 2,15,16
 349 864 349 864 370 864 c 0,17,18
 396 864 396 864 396 832 c 0,19,20
 396 812 396 812 386 784 c 2,21,-1
 296 506 l 1,0,-1
610 506 m 1,22,-1
 702 223 l 2,23,24
 711 194 711 194 713 173 c 0,25,26
 714 161 714 161 705 151 c 0,27,28
 694 142 694 142 683 142 c 0,29,30
 663 142 663 142 633 186 c 2,31,-1
 464 432 l 2,32,33
 429 483 429 483 429 511 c 0,34,35
 429 545 429 545 464 593 c 2,36,-1
 631 817 l 2,37,38
 666 864 666 864 685 864 c 0,39,40
 712 864 712 864 712 832 c 0,41,42
 712 814 712 814 702 784 c 2,43,-1
 610 506 l 1,22,-1
EndSplineSet
Validated: 1
EndChar

StartChar: guillemotright
Encoding: 187 187 56
Width: 747
Flags: W
LayerCount: 2
Fore
SplineSet
531 501 m 1,0,-1
 439 783 l 2,1,2
 428 820 428 820 428 832 c 256,3,4
 428 844 428 844 437 855 c 0,5,6
 447 864 447 864 458 864 c 0,7,8
 477 864 477 864 508 819 c 2,9,-1
 677 574 l 2,10,11
 712 522 712 522 712 495 c 0,12,13
 712 459 712 459 677 412 c 2,14,-1
 510 189 l 2,15,16
 474 142 474 142 457 142 c 0,17,18
 430 142 430 142 430 174 c 0,19,20
 430 193 430 193 439 222 c 2,21,-1
 531 501 l 1,0,-1
215 501 m 1,22,-1
 123 783 l 2,23,24
 113 818 113 818 113 832 c 0,25,26
 113 864 113 864 144 864 c 0,27,28
 162 864 162 864 193 819 c 2,29,-1
 362 574 l 2,30,31
 398 521 398 521 398 495 c 0,32,33
 398 458 398 458 362 412 c 2,34,-1
 194 189 l 2,35,36
 158 142 158 142 141 142 c 0,37,38
 115 142 115 142 115 174 c 0,39,40
 115 191 115 191 123 222 c 2,41,-1
 215 501 l 1,22,-1
EndSplineSet
Validated: 1
EndChar

StartChar: brokenbar
Encoding: 166 166 57
Width: 829
Flags: W
LayerCount: 2
Fore
SplineSet
547 1441 m 1,0,-1
 790 1441 l 1,1,-1
 790 710 l 1,2,-1
 547 710 l 1,3,-1
 547 1441 l 1,0,-1
547 332 m 1,4,-1
 790 332 l 1,5,-1
 790 -359 l 1,6,-1
 547 -359 l 1,7,-1
 547 332 l 1,4,-1
EndSplineSet
Validated: 1
EndChar

StartChar: currency
Encoding: 164 164 58
Width: 1045
Flags: W
LayerCount: 2
Fore
SplineSet
724 987 m 1,0,-1
 866 1105 l 1,1,-1
 996 997 l 1,2,-1
 854 877 l 1,3,4
 899 805 899 805 899 735 c 0,5,6
 899 666 899 666 855 592 c 1,7,-1
 996 474 l 1,8,-1
 866 364 l 1,9,-1
 724 484 l 1,10,11
 635 446 635 446 555 446 c 0,12,13
 473 446 473 446 385 484 c 1,14,-1
 243 364 l 1,15,-1
 113 474 l 1,16,-1
 254 592 l 1,17,18
 210 666 210 666 210 735 c 0,19,20
 210 805 210 805 256 877 c 1,21,-1
 113 997 l 1,22,-1
 243 1105 l 1,23,-1
 385 987 l 1,24,25
 470 1024 470 1024 555 1024 c 0,26,27
 638 1024 638 1024 724 987 c 1,0,-1
557 870 m 0,28,29
 487 870 487 870 441 831 c 0,30,31
 394 792 394 792 394 735 c 256,32,33
 394 678 394 678 441 640 c 0,34,35
 488 600 488 600 555 600 c 0,36,37
 620 600 620 600 668 640 c 0,38,39
 716 679 716 679 716 735 c 0,40,41
 716 790 716 790 670 830 c 0,42,43
 624 868 624 868 557 870 c 0,28,29
EndSplineSet
Validated: 1
EndChar

StartChar: section
Encoding: 167 167 59
Width: 1239
Flags: W
LayerCount: 2
Fore
SplineSet
1007 226 m 1,0,1
 1136 142 1136 142 1136 5 c 0,2,3
 1136 -156 1136 -156 981 -253 c 0,4,5
 847 -339 847 -339 684 -339 c 0,6,7
 604 -339 604 -339 543 -322 c 0,8,9
 485 -305 485 -305 373 -251 c 0,10,11
 335 -233 335 -233 322 -233 c 0,12,13
 310 -233 310 -233 297 -252 c 0,14,15
 288 -264 288 -264 267 -264 c 0,16,17
 232 -264 232 -264 204 -216 c 0,18,19
 174 -169 174 -169 174 -113 c 0,20,21
 174 -21 174 -21 254 43 c 0,22,23
 321 100 321 100 414 100 c 0,24,25
 455 100 455 100 481 85 c 0,26,27
 507 69 507 69 507 45 c 0,28,29
 507 26 507 26 484 18 c 0,30,31
 454 6 454 6 454 -10 c 0,32,33
 454 -57 454 -57 523 -101 c 0,34,35
 591 -145 591 -145 665 -145 c 0,36,37
 729 -145 729 -145 780 -110 c 0,38,39
 829 -73 829 -73 829 -30 c 0,40,41
 829 38 829 38 675 129 c 2,42,-1
 353 317 l 2,43,44
 237 384 237 384 183 465 c 0,45,46
 130 543 130 543 130 650 c 0,47,48
 130 745 130 745 167 803 c 0,49,50
 203 860 203 860 299 918 c 1,51,52
 204 1016 204 1016 204 1115 c 0,53,54
 204 1220 204 1220 281 1311 c 0,55,56
 414 1467 414 1467 657 1467 c 0,57,58
 787 1467 787 1467 882 1417 c 0,59,60
 949 1382 949 1382 985 1382 c 0,61,62
 998 1382 998 1382 1018 1385 c 0,63,64
 1038 1389 1038 1389 1053 1389 c 0,65,66
 1090 1389 1090 1389 1119 1346 c 0,67,68
 1149 1302 1149 1302 1149 1251 c 0,69,70
 1149 1141 1149 1141 1043 1077 c 0,71,72
 971 1033 971 1033 907 1033 c 0,73,74
 872 1033 872 1033 842 1051 c 0,75,76
 810 1069 810 1069 810 1088 c 0,77,78
 810 1096 810 1096 835 1111 c 0,79,80
 860 1128 860 1128 860 1159 c 0,81,82
 860 1211 860 1211 805 1246 c 0,83,84
 751 1282 751 1282 672 1282 c 0,85,86
 605 1282 605 1282 555 1253 c 0,87,88
 492 1215 492 1215 492 1164 c 0,89,90
 492 1102 492 1102 581 1041 c 0,91,92
 596 1031 596 1031 629.5 1010.5 c 128,-1,93
 663 990 663 990 715 960 c 2,94,-1
 979 803 l 2,95,96
 1180 686 1180 686 1180 490 c 0,97,98
 1180 319 1180 319 1007 226 c 1,0,1
468 817 m 1,99,100
 399 758 399 758 399 692 c 0,101,102
 399 578 399 578 554 492 c 2,103,-1
 851 323 l 1,104,105
 911 372 911 372 911 434 c 0,106,107
 911 549 911 549 741 652 c 2,108,-1
 468 817 l 1,99,100
EndSplineSet
Validated: 1
EndChar

StartChar: copyright
Encoding: 169 169 60
Width: 1993
Flags: W
LayerCount: 2
Fore
SplineSet
1017 1470 m 0,0,1
 1255 1470 1255 1470 1474 1359 c 0,2,3
 1689 1249 1689 1249 1802 1062 c 0,4,5
 1899 900 1899 900 1899 720 c 0,6,7
 1899 505 1899 505 1768 327 c 0,8,9
 1638 146 1638 146 1413 52 c 0,10,11
 1219 -28 1219 -28 1007 -28 c 0,12,13
 751 -28 751 -28 538 80 c 0,14,15
 325 189 325 189 210 378 c 0,16,17
 113 541 113 541 113 719 c 0,18,19
 113 931 113 931 244 1114 c 0,20,21
 371 1289 371 1289 600 1388 c 0,22,23
 790 1470 790 1470 1017 1470 c 0,0,1
1014 1330 m 1,24,25
 710 1330 710 1330 498 1151 c 0,26,27
 290 975 290 975 290 719 c 0,28,29
 290 547 290 547 394 400 c 0,30,31
 497 255 497 255 680 178 c 0,32,33
 833 111 833 111 1007 111 c 0,34,35
 1207 111 1207 111 1382 200 c 0,36,37
 1554 288 1554 288 1645 442 c 0,38,39
 1723 574 1723 574 1723 720 c 0,40,41
 1723 890 1723 890 1619 1040 c 0,42,43
 1515 1184 1515 1184 1332 1263 c 0,44,45
 1187 1325 1187 1325 1014 1330 c 1,24,25
979 1169 m 0,46,47
 1037 1169 1037 1169 1114 1146 c 0,48,49
 1163 1132 1163 1132 1178 1132 c 0,50,51
 1187 1132 1187 1132 1212 1142 c 0,52,53
 1227 1148 1227 1148 1238 1148 c 0,54,55
 1273 1148 1273 1148 1298 1098 c 0,56,57
 1324 1046 1324 1046 1324 981 c 0,58,59
 1324 841 1324 841 1231 759 c 0,60,61
 1151 689 1151 689 1046 689 c 0,62,63
 968 689 968 689 915 729 c 0,64,65
 863 769 863 769 863 829 c 0,66,67
 863 869 863 869 893 899 c 256,68,69
 923 929 923 929 961 929 c 0,70,71
 1007 929 1007 929 1007 890 c 0,72,73
 1007 870 1007 870 982 859 c 0,74,75
 952 845 952 845 952 829 c 0,76,77
 952 812 952 812 969 801 c 0,78,79
 985 790 985 790 1010 790 c 0,80,81
 1048 790 1048 790 1078 816 c 0,82,83
 1106 842 1106 842 1106 878 c 0,84,85
 1106 921 1106 921 1067 953 c 0,86,87
 1027 985 1027 985 974 985 c 0,88,89
 885 985 885 985 828 911 c 0,90,91
 770 836 770 836 770 722 c 0,92,93
 770 596 770 596 844 512 c 0,94,95
 915 430 915 430 1036 430 c 0,96,97
 1195 430 1195 430 1272 586 c 0,98,99
 1284 609 1284 609 1306 609 c 0,100,101
 1344 609 1344 609 1344 555 c 0,102,103
 1344 481 1344 481 1297 416 c 0,104,105
 1202 281 1202 281 1004 281 c 0,106,107
 815 281 815 281 693 403 c 0,108,109
 568 529 568 529 568 734 c 0,110,111
 568 915 568 915 679 1037 c 0,112,113
 738 1100 738 1100 816 1134 c 0,114,115
 893 1169 893 1169 979 1169 c 0,46,47
EndSplineSet
Validated: 1
EndChar

StartChar: registered
Encoding: 174 174 61
Width: 1993
Flags: W
LayerCount: 2
Fore
SplineSet
1017 1470 m 0,0,1
 1255 1470 1255 1470 1474 1359 c 0,2,3
 1689 1249 1689 1249 1802 1062 c 0,4,5
 1899 900 1899 900 1899 720 c 0,6,7
 1899 505 1899 505 1768 327 c 0,8,9
 1638 146 1638 146 1413 52 c 0,10,11
 1219 -28 1219 -28 1007 -28 c 0,12,13
 751 -28 751 -28 538 80 c 0,14,15
 325 189 325 189 210 378 c 0,16,17
 113 541 113 541 113 719 c 0,18,19
 113 931 113 931 244 1114 c 0,20,21
 371 1289 371 1289 600 1388 c 0,22,23
 790 1470 790 1470 1017 1470 c 0,0,1
1014 1330 m 1,24,25
 710 1330 710 1330 498 1151 c 0,26,27
 290 975 290 975 290 719 c 0,28,29
 290 547 290 547 394 400 c 0,30,31
 497 255 497 255 680 178 c 0,32,33
 833 111 833 111 1007 111 c 0,34,35
 1207 111 1207 111 1382 200 c 0,36,37
 1554 288 1554 288 1645 442 c 0,38,39
 1723 574 1723 574 1723 720 c 0,40,41
 1723 890 1723 890 1619 1040 c 0,42,43
 1515 1184 1515 1184 1332 1263 c 0,44,45
 1187 1325 1187 1325 1014 1330 c 1,24,25
1098 675 m 1,46,47
 1142 654 1142 654 1199 654 c 0,48,49
 1217 654 1217 654 1226 655 c 0,50,51
 1250 657 1250 657 1247 657 c 1,52,53
 1261 657 1261 657 1273 647 c 0,54,55
 1285 638 1285 638 1285 626 c 0,56,57
 1285 617 1285 617 1279 601 c 0,58,59
 1272 587 1272 587 1272 579 c 0,60,61
 1272 567 1272 567 1283 544 c 2,62,-1
 1331 455 l 2,63,64
 1365 390 1365 390 1429 370 c 0,65,66
 1465 358 1465 358 1465 335 c 0,67,68
 1465 303 1465 303 1396 303 c 2,69,-1
 1107 303 l 2,70,71
 1056 303 1056 303 1056 337 c 0,72,73
 1056 356 1056 356 1085 367 c 0,74,75
 1115 379 1115 379 1115 398 c 0,76,77
 1115 427 1115 427 1076 498 c 0,78,79
 1037 565 1037 565 984 628 c 0,80,81
 890 738 890 738 890 813 c 0,82,83
 890 872 890 872 929 914 c 0,84,85
 968 955 968 955 1022 955 c 0,86,87
 1065 955 1065 955 1098 930 c 0,88,89
 1130 905 1130 905 1130 872 c 0,90,91
 1130 845 1130 845 1111 828 c 0,92,93
 1090 810 1090 810 1063 810 c 0,94,95
 1028 810 1028 810 1028 836 c 0,96,97
 1028 847 1028 847 1043 858 c 0,98,99
 1051 864 1051 864 1051 869 c 0,100,101
 1051 887 1051 887 1023 887 c 0,102,103
 1003 887 1003 887 988 872 c 256,104,105
 973 857 973 857 973 836 c 0,106,107
 973 806 973 806 998 787 c 0,108,109
 1023 769 1023 769 1062 769 c 0,110,111
 1116 769 1116 769 1153 801 c 256,112,113
 1190 833 1190 833 1190 883 c 0,114,115
 1190 934 1190 934 1145 972 c 0,116,117
 1101 1008 1101 1008 1036 1008 c 0,118,119
 926 1008 926 1008 881 921 c 0,120,121
 864 883 864 883 864 790 c 2,122,-1
 864 501 l 2,123,124
 864 425 864 425 873 406 c 0,125,126
 883 384 883 384 929 366 c 0,127,128
 960 354 960 354 960 335 c 0,129,130
 960 303 960 303 912 303 c 2,131,-1
 606 303 l 2,132,133
 558 303 558 303 558 335 c 0,134,135
 558 355 558 355 590 366 c 0,136,137
 636 384 636 384 645 406 c 0,138,139
 655 424 655 424 655 502 c 2,140,-1
 655 849 l 2,141,142
 655 886 655 886 645 904 c 0,143,144
 636 920 636 920 607 928 c 0,145,146
 568 938 568 938 568 965 c 0,147,148
 568 988 568 988 617 1034 c 0,149,150
 759 1169 759 1169 988 1169 c 0,151,152
 1158 1169 1158 1169 1266 1090 c 0,153,154
 1371 1012 1371 1012 1371 896 c 0,155,156
 1371 799 1371 799 1297 738 c 0,157,158
 1221 676 1221 676 1098 675 c 1,46,47
EndSplineSet
Validated: 1
EndChar

StartChar: degree
Encoding: 176 176 62
Width: 841
Flags: W
LayerCount: 2
Fore
SplineSet
462 1470 m 0,0,1
 599 1470 599 1470 700 1386 c 256,2,3
 801 1302 801 1302 801 1181 c 0,4,5
 801 1059 801 1059 700 976 c 0,6,7
 601 892 601 892 457 892 c 256,8,9
 313 892 313 892 213 976 c 256,10,11
 113 1060 113 1060 113 1180 c 0,12,13
 113 1302 113 1302 213 1386 c 0,14,15
 316 1470 316 1470 462 1470 c 0,0,1
459 1316 m 0,16,17
 390 1316 390 1316 344 1277 c 0,18,19
 297 1237 297 1237 297 1181 c 0,20,21
 297 1124 297 1124 343 1086 c 0,22,23
 388 1046 388 1046 457 1046 c 0,24,25
 525 1046 525 1046 571 1086 c 0,26,27
 618 1125 618 1125 618 1181 c 0,28,29
 618 1236 618 1236 572 1276 c 0,30,31
 526 1314 526 1314 459 1316 c 0,16,17
EndSplineSet
Validated: 1
EndChar

StartChar: plusminus
Encoding: 177 177 63
Width: 1200
Flags: W
LayerCount: 2
Fore
SplineSet
727 932 m 1,0,-1
 1143 932 l 1,1,-1
 1143 778 l 1,2,-1
 727 778 l 1,3,-1
 727 423 l 1,4,-1
 529 423 l 1,5,-1
 529 778 l 1,6,-1
 113 778 l 1,7,-1
 113 932 l 1,8,-1
 529 932 l 1,9,-1
 529 1288 l 1,10,-1
 727 1288 l 1,11,-1
 727 932 l 1,0,-1
1143 183 m 1,12,-1
 113 183 l 1,13,-1
 113 337 l 1,14,-1
 1143 337 l 1,15,-1
 1143 183 l 1,12,-1
EndSplineSet
Validated: 1
EndChar

StartChar: uni00B2
Encoding: 178 178 64
Width: 846
Flags: W
LayerCount: 2
Fore
SplineSet
288 742 m 1,0,-1
 501 742 l 2,1,2
 577 742 577 742 614 800 c 0,3,4
 634 837 634 837 659 837 c 0,5,6
 680 837 680 837 686 828 c 256,7,8
 692 819 692 819 696 790 c 0,9,10
 703 685 703 685 775 629 c 0,11,12
 806 602 806 602 806 590 c 0,13,14
 806 568 806 568 747 568 c 2,15,-1
 174 568 l 2,16,17
 130 568 130 568 114 577 c 0,18,19
 97 587 97 587 97 612 c 0,20,21
 97 759 97 759 325 941 c 0,22,23
 442 1037 442 1037 471 1067 c 0,24,25
 547 1148 547 1148 547 1229 c 0,26,27
 547 1282 547 1282 506 1323 c 0,28,29
 462 1363 462 1363 407 1363 c 0,30,31
 359 1363 359 1363 322 1333 c 0,32,33
 286 1303 286 1303 286 1265 c 0,34,35
 286 1239 286 1239 304 1220 c 0,36,37
 322 1202 322 1202 349 1202 c 0,38,39
 377 1202 377 1202 390 1237 c 0,40,41
 400 1265 400 1265 427 1265 c 0,42,43
 466 1265 466 1265 466 1215 c 0,44,45
 466 1162 466 1162 415 1124 c 0,46,47
 363 1086 363 1086 291 1086 c 0,48,49
 201 1086 201 1086 144 1137 c 0,50,51
 86 1189 86 1189 86 1270 c 0,52,53
 86 1350 86 1350 139 1399 c 0,54,55
 166 1424 166 1424 187 1426 c 1,56,57
 187 1426 187 1426 214 1421 c 0,58,59
 223 1419 223 1419 233 1419 c 0,60,61
 249 1419 249 1419 276 1427 c 0,62,63
 393 1463 393 1463 468 1463 c 0,64,65
 632 1463 632 1463 722 1366 c 0,66,67
 787 1294 787 1294 787 1208 c 0,68,69
 787 1094 787 1094 694 1018 c 0,70,71
 638 970 638 970 475 888 c 0,72,73
 348 820 348 820 288 742 c 1,0,-1
EndSplineSet
Validated: 1
EndChar

StartChar: uni00B3
Encoding: 179 179 65
Width: 865
Flags: W
LayerCount: 2
Fore
SplineSet
569 1080 m 1,0,1
 824 1017 824 1017 824 826 c 0,2,3
 824 701 824 701 704 620 c 0,4,5
 605 551 605 551 435 551 c 0,6,7
 277 551 277 551 180 614 c 0,8,9
 86 679 86 679 86 766 c 0,10,11
 86 839 86 839 150 889 c 0,12,13
 204 930 204 930 275 930 c 0,14,15
 340 930 340 930 386 895 c 0,16,17
 430 861 430 861 430 810 c 0,18,19
 430 760 430 760 389 759 c 0,20,21
 383 759 383 759 361 770 c 0,22,23
 351 778 351 778 338 778 c 0,24,25
 294 778 294 778 294 732 c 0,26,27
 294 696 294 696 329 669 c 0,28,29
 365 642 365 642 414 642 c 0,30,31
 480 642 480 642 525 684 c 0,32,33
 572 731 572 731 572 796 c 0,34,35
 572 933 572 933 413 971 c 0,36,37
 378 979 378 979 311 982 c 0,38,39
 264 985 264 985 264 1015 c 0,40,41
 264 1033 264 1033 302 1046 c 0,42,43
 380 1074 380 1074 453 1122 c 0,44,45
 553 1186 553 1186 553 1265 c 0,46,47
 553 1306 553 1306 518 1337 c 0,48,49
 480 1368 480 1368 431 1368 c 0,50,51
 384 1368 384 1368 352 1340 c 0,52,53
 318 1313 318 1313 318 1275 c 0,54,55
 318 1254 318 1254 332 1239 c 0,56,57
 347 1224 347 1224 365 1224 c 0,58,59
 394 1224 394 1224 410 1256 c 0,60,61
 423 1282 423 1282 444 1282 c 0,62,63
 478 1282 478 1282 478 1247 c 0,64,65
 478 1196 478 1196 432 1164 c 0,66,67
 383 1129 383 1129 318 1129 c 0,68,69
 239 1129 239 1129 183 1173 c 0,70,71
 107 1230 107 1230 107 1317 c 0,72,73
 107 1354 107 1354 126 1386 c 0,74,75
 145 1416 145 1416 169 1416 c 0,76,77
 177 1416 177 1416 195 1411 c 0,78,79
 205 1409 205 1409 218 1409 c 0,80,81
 243 1409 243 1409 362 1446 c 0,82,83
 416 1463 416 1463 475 1463 c 0,84,85
 592 1463 592 1463 682 1404 c 0,86,87
 761 1349 761 1349 761 1277 c 0,88,89
 761 1156 761 1156 569 1080 c 1,0,1
EndSplineSet
Validated: 1
EndChar

StartChar: mu
Encoding: 181 181 66
Width: 1230
Flags: W
LayerCount: 2
Fore
SplineSet
439 -19 m 1,0,-1
 464 -218 l 2,1,2
 469 -250 469 -250 469 -270 c 0,3,4
 469 -332 469 -332 429 -344 c 0,5,6
 417 -347 417 -347 367 -347 c 2,7,-1
 119 -347 l 2,8,9
 94 -347 94 -347 78 -338 c 0,10,11
 61 -327 61 -327 61 -315 c 0,12,13
 61 -296 61 -296 100 -275 c 0,14,15
 145 -252 145 -252 158 -203 c 0,16,17
 169 -149 169 -149 169 19 c 2,18,-1
 169 603 l 2,19,20
 169 705 169 705 158 734 c 0,21,22
 145 763 145 763 94 784 c 0,23,24
 61 799 61 799 61 820 c 0,25,26
 61 850 61 850 105 855 c 0,27,28
 272 878 272 878 385 953 c 0,29,30
 413 971 413 971 434 971 c 0,31,32
 467 971 467 971 467 922 c 2,33,-1
 467 336 l 2,34,35
 467 273 467 273 490 232 c 0,36,37
 527 169 527 169 605 169 c 0,38,39
 718 169 718 169 755 282 c 0,40,41
 765 320 765 320 765 391 c 2,42,-1
 765 603 l 2,43,44
 765 707 765 707 753 734 c 0,45,46
 742 763 742 763 690 784 c 0,47,48
 657 799 657 799 657 820 c 0,49,50
 657 850 657 850 701 855 c 0,51,52
 869 879 869 879 981 953 c 0,53,54
 1009 971 1009 971 1030 971 c 0,55,56
 1062 971 1062 971 1062 922 c 2,57,-1
 1062 367 l 2,58,59
 1062 194 1062 194 1074 145 c 0,60,61
 1084 94 1084 94 1132 72 c 0,62,63
 1172 50 1172 50 1172 33 c 0,64,65
 1172 19 1172 19 1155 10 c 0,66,67
 1137 0 1137 0 1114 0 c 2,68,-1
 840 0 l 2,69,70
 795 0 795 0 780 10 c 256,71,72
 765 20 765 20 765 49 c 2,73,-1
 765 93 l 1,74,75
 690 29 690 29 627 3 c 0,76,77
 565 -21 565 -21 487 -21 c 0,78,79
 479 -21 479 -21 439 -19 c 1,0,-1
EndSplineSet
Validated: 1
EndChar

StartChar: paragraph
Encoding: 182 182 67
Width: 1525
Flags: W
LayerCount: 2
Fore
SplineSet
742 516 m 1,0,1
 643 481 643 481 547 481 c 0,2,3
 352 481 352 481 212 591 c 0,4,5
 43 722 43 722 43 935 c 0,6,7
 43 1085 43 1085 140 1220 c 0,8,9
 229 1345 229 1345 394 1412 c 0,10,11
 535 1470 535 1470 712 1470 c 0,12,13
 924 1470 924 1470 1121 1389 c 0,14,15
 1241 1338 1241 1338 1339 1260 c 0,16,17
 1435 1182 1435 1182 1435 1134 c 0,18,19
 1435 1103 1435 1103 1400 1095 c 0,20,21
 1326 1074 1326 1074 1304 1039 c 0,22,23
 1282 1005 1282 1005 1282 907 c 2,24,-1
 1282 -9 l 2,25,26
 1282 -152 1282 -152 1302 -192 c 0,27,28
 1321 -229 1321 -229 1415 -263 c 0,29,30
 1453 -276 1453 -276 1453 -305 c 0,31,32
 1453 -327 1453 -327 1437 -338 c 0,33,34
 1422 -347 1422 -347 1383 -347 c 2,35,-1
 624 -347 l 2,36,37
 578 -347 578 -347 561 -339 c 0,38,39
 545 -330 545 -330 545 -305 c 0,40,41
 545 -285 545 -285 555 -278 c 0,42,43
 563 -270 563 -270 604 -255 c 0,44,45
 704 -219 704 -219 724 -188 c 0,46,47
 740 -158 740 -158 742 -8 c 2,48,-1
 742 516 l 1,0,1
1099 1238 m 1,49,50
 1015 1284 1015 1284 925 1304 c 1,51,-1
 925 -208 l 1,52,-1
 1099 -208 l 1,53,-1
 1099 1238 l 1,49,50
EndSplineSet
Validated: 1
EndChar

StartChar: uni00B9
Encoding: 185 185 68
Width: 507
Flags: W
LayerCount: 2
Fore
SplineSet
438 569 m 2,0,-1
 134 569 l 2,1,2
 89 569 89 569 89 592 c 0,3,4
 89 604 89 604 95 610 c 0,5,6
 99 614 99 614 135 634 c 0,7,8
 166 651 166 651 172 676 c 0,9,10
 179 701 179 701 179 796 c 2,11,-1
 179 1201 l 2,12,13
 179 1241 179 1241 171 1255 c 0,14,15
 163 1270 163 1270 136 1280 c 0,16,17
 99 1293 99 1293 91 1300 c 0,18,19
 84 1305 84 1305 84 1318 c 0,20,21
 84 1340 84 1340 122 1346 c 0,22,23
 227 1359 227 1359 296 1414 c 0,24,25
 344 1454 344 1454 364 1454 c 0,26,27
 382 1454 382 1454 388 1445 c 0,28,29
 393 1435 393 1435 393 1403 c 2,30,-1
 393 796 l 2,31,32
 393 692 393 692 401 670 c 0,33,34
 411 648 411 648 466 620 c 0,35,36
 483 609 483 609 483 593 c 0,37,38
 483 569 483 569 438 569 c 2,0,-1
EndSplineSet
Validated: 1
EndChar

StartChar: ordmasculine
Encoding: 186 186 69
Width: 670
Flags: W
LayerCount: 2
Fore
SplineSet
204 1125 m 0,0,1
 229 1125 229 1125 229 1104 c 0,2,3
 229 1096 229 1096 224 1085 c 0,4,5
 203 1026 203 1026 203 973 c 0,6,7
 203 858 203 858 287 786 c 0,8,9
 336 744 336 744 396 744 c 0,10,11
 449 744 449 744 486 784 c 0,12,13
 522 824 522 824 522 885 c 0,14,15
 522 935 522 935 490 977 c 0,16,17
 460 1017 460 1017 419 1017 c 0,18,19
 386 1017 386 1017 386 987 c 0,20,21
 386 983 386 983 389 973 c 0,22,23
 390 970 390 970 390 964 c 0,24,25
 390 943 390 943 360 943 c 0,26,27
 316 943 316 943 280 981 c 0,28,29
 245 1018 245 1018 245 1067 c 0,30,31
 245 1121 245 1121 282 1157 c 256,32,33
 319 1193 319 1193 378 1193 c 0,34,35
 495 1193 495 1193 576 1088 c 0,36,37
 639 1005 639 1005 639 875 c 0,38,39
 639 733 639 733 552 643 c 0,40,41
 474 563 474 563 361 563 c 0,42,43
 229 563 229 563 148 665 c 0,44,45
 82 746 82 746 82 848 c 0,46,47
 82 915 82 915 111 996 c 0,48,49
 138 1074 138 1074 178 1111 c 0,50,51
 190 1125 190 1125 204 1125 c 0,0,1
EndSplineSet
Validated: 1
EndChar

StartChar: threequarters
Encoding: 190 190 70
Width: 1795
Flags: W
LayerCount: 2
Fore
SplineSet
568 1080 m 1,0,1
 824 1017 824 1017 824 826 c 0,2,3
 824 701 824 701 704 620 c 0,4,5
 605 551 605 551 435 551 c 0,6,7
 277 551 277 551 180 614 c 0,8,9
 86 678 86 678 86 766 c 0,10,11
 86 840 86 840 150 890 c 0,12,13
 201 930 201 930 274 930 c 0,14,15
 340 930 340 930 385 895 c 256,16,17
 430 860 430 860 430 810 c 0,18,19
 430 759 430 759 389 759 c 0,20,21
 381 759 381 759 361 770 c 0,22,23
 348 778 348 778 337 778 c 0,24,25
 293 778 293 778 293 732 c 0,26,27
 293 696 293 696 329 669 c 256,28,29
 365 642 365 642 414 642 c 0,30,31
 480 642 480 642 525 684 c 0,32,33
 572 731 572 731 572 796 c 0,34,35
 572 933 572 933 413 971 c 0,36,37
 378 979 378 979 311 982 c 0,38,39
 264 985 264 985 264 1015 c 0,40,41
 264 1033 264 1033 302 1046 c 0,42,43
 380 1074 380 1074 453 1122 c 0,44,45
 553 1186 553 1186 553 1265 c 0,46,47
 553 1306 553 1306 518 1337 c 0,48,49
 480 1368 480 1368 431 1368 c 0,50,51
 384 1368 384 1368 352 1340 c 0,52,53
 318 1313 318 1313 318 1275 c 0,54,55
 318 1254 318 1254 332 1239 c 0,56,57
 347 1224 347 1224 365 1224 c 0,58,59
 393 1224 393 1224 410 1256 c 0,60,61
 423 1282 423 1282 444 1282 c 0,62,63
 478 1282 478 1282 478 1247 c 0,64,65
 478 1196 478 1196 432 1164 c 0,66,67
 383 1129 383 1129 318 1129 c 0,68,69
 239 1129 239 1129 183 1173 c 0,70,71
 107 1230 107 1230 107 1317 c 0,72,73
 107 1354 107 1354 126 1386 c 0,74,75
 145 1416 145 1416 169 1416 c 0,76,77
 177 1416 177 1416 195 1411 c 0,78,79
 205 1409 205 1409 218 1409 c 0,80,81
 245 1409 245 1409 287 1423 c 0,82,83
 369 1448 369 1448 403 1457 c 0,84,85
 431 1463 431 1463 475 1463 c 0,86,87
 592 1463 592 1463 682 1404 c 0,88,89
 761 1349 761 1349 761 1277 c 0,90,91
 761 1156 761 1156 568 1080 c 1,0,1
703 -42 m 1,92,-1
 546 -42 l 1,93,-1
 1266 1484 l 1,94,-1
 1424 1484 l 1,95,-1
 703 -42 l 1,92,-1
1710 315 m 1,96,-1
 1710 231 l 1,97,-1
 1590 231 l 1,98,99
 1590 130 1590 130 1597 105 c 0,100,101
 1604 78 1604 78 1633 66 c 0,102,103
 1668 48 1668 48 1674 45 c 0,104,105
 1680 40 1680 40 1680 27 c 0,106,107
 1680 0 1680 0 1635 0 c 2,108,-1
 1328 0 l 2,109,110
 1288 0 1288 0 1276 6 c 0,111,112
 1263 10 1263 10 1263 28 c 0,113,114
 1263 47 1263 47 1302 59 c 0,115,116
 1351 72 1351 72 1370 101 c 0,117,118
 1388 129 1388 129 1388 191 c 2,119,-1
 1388 231 l 1,120,-1
 1067 231 l 2,121,122
 983 231 983 231 983 270 c 0,123,124
 983 294 983 294 1026 327 c 0,125,126
 1246 498 1246 498 1246 712 c 0,127,128
 1246 751 1246 751 1243 772 c 0,129,130
 1242 779 1242 779 1242 787 c 0,131,132
 1242 810 1242 810 1259 820 c 0,133,134
 1275 828 1275 828 1321 832 c 0,135,136
 1378 835 1378 835 1408 844 c 0,137,138
 1438 854 1438 854 1484 881 c 0,139,140
 1504 894 1504 894 1518 894 c 0,141,142
 1554 894 1554 894 1554 861 c 0,143,144
 1554 794 1554 794 1494 682 c 0,145,146
 1437 579 1437 579 1363 500 c 0,147,148
 1289 420 1289 420 1147 315 c 1,149,-1
 1388 315 l 1,150,-1
 1388 352 l 2,151,152
 1388 371 1388 371 1379 380 c 0,153,154
 1368 390 1368 390 1336 406 c 0,155,156
 1325 410 1325 410 1325 423 c 0,157,158
 1325 434 1325 434 1350 454 c 0,159,160
 1439 515 1439 515 1506 613 c 0,161,162
 1528 647 1528 647 1556 647 c 0,163,164
 1576 647 1576 647 1584 639 c 0,165,166
 1590 630 1590 630 1590 600 c 2,167,-1
 1590 315 l 1,168,-1
 1710 315 l 1,96,-1
EndSplineSet
Validated: 1
EndChar

StartChar: divide
Encoding: 247 247 71
Width: 1200
Flags: W
LayerCount: 2
Fore
SplineSet
630 1153 m 0,0,1
 689 1153 689 1153 734 1116 c 0,2,3
 778 1079 778 1079 778 1027 c 0,4,5
 778 973 778 973 734 938 c 0,6,7
 691 901 691 901 628 901 c 256,8,9
 565 901 565 901 522 937 c 0,10,11
 478 973 478 973 478 1026 c 256,12,13
 478 1079 478 1079 522 1116 c 0,14,15
 564 1153 564 1153 630 1153 c 0,0,1
630 569 m 0,16,17
 691 569 691 569 734 532 c 0,18,19
 778 495 778 495 778 442 c 256,20,21
 778 389 778 389 734 354 c 0,22,23
 691 317 691 317 628 317 c 256,24,25
 565 317 565 317 522 353 c 0,26,27
 478 390 478 390 478 442 c 0,28,29
 478 495 478 495 522 533 c 0,30,31
 565 569 565 569 630 569 c 0,16,17
1143 658 m 1,32,-1
 113 658 l 1,33,-1
 113 812 l 1,34,-1
 1143 812 l 1,35,-1
 1143 658 l 1,32,-1
EndSplineSet
Validated: 1
EndChar

StartChar: oslash
Encoding: 248 248 72
Width: 1042
Flags: W
LayerCount: 2
Fore
SplineSet
973 913 m 1,0,-1
 890 803 l 1,1,2
 993 658 993 658 993 477 c 0,3,4
 993 257 993 257 855 110 c 0,5,6
 731 -21 731 -21 529 -21 c 0,7,8
 420 -21 420 -21 316 29 c 1,9,-1
 249 -58 l 1,10,-1
 143 0 l 1,11,-1
 219 96 l 1,12,13
 78 252 78 252 78 418 c 0,14,15
 78 529 78 529 125 652 c 0,16,17
 170 771 170 771 241 845 c 0,18,19
 257 861 257 861 273 861 c 0,20,21
 303 861 303 861 303 839 c 0,22,23
 303 831 303 831 291 800 c 0,24,25
 259 722 259 722 259 633 c 0,26,27
 259 459 259 459 390 327 c 1,28,-1
 675 713 l 1,29,30
 643 729 643 729 613 729 c 0,31,32
 578 729 578 729 555 710 c 256,33,34
 532 691 532 691 532 664 c 0,35,36
 532 655 532 655 535 646 c 0,37,38
 537 628 537 628 537 625 c 0,39,40
 537 599 537 599 503 599 c 0,41,42
 439 599 439 599 387 656 c 0,43,44
 334 711 334 711 334 779 c 0,45,46
 334 874 334 874 414 928 c 0,47,48
 477 971 477 971 575 971 c 0,49,50
 692 971 692 971 806 890 c 1,51,-1
 866 969 l 1,52,-1
 973 913 l 1,0,-1
492 265 m 1,53,54
 544 244 544 244 586 244 c 0,55,56
 701 244 701 244 765 321 c 0,57,58
 821 390 821 390 821 478 c 0,59,60
 821 569 821 569 765 635 c 1,61,-1
 492 265 l 1,53,54
EndSplineSet
Validated: 1
EndChar

StartChar: macron
Encoding: 175 175 73
Width: 1377
Flags: W
LayerCount: 2
Fore
SplineSet
1312 1539 m 1,0,-1
 26 1539 l 1,1,-1
 26 1693 l 1,2,-1
 1312 1693 l 1,3,-1
 1312 1539 l 1,0,-1
EndSplineSet
Validated: 1
EndChar

StartChar: uni00AD
Encoding: 173 173 74
Width: 535
Flags: W
LayerCount: 2
Fore
SplineSet
510 428 m 1,0,-1
 26 428 l 1,1,-1
 26 582 l 1,2,-1
 510 582 l 1,3,-1
 510 428 l 1,0,-1
EndSplineSet
Validated: 1
EndChar

StartChar: acute
Encoding: 180 180 75
Width: 951
Flags: W
LayerCount: 2
Fore
SplineSet
731 1298 m 2,0,-1
 848 1298 l 2,1,2
 906 1298 906 1298 906 1273 c 0,3,4
 906 1258 906 1258 884 1235 c 2,5,-1
 699 1045 l 2,6,7
 675 1020 675 1020 648 1020 c 0,8,9
 608 1020 608 1020 610 1048 c 0,10,11
 610 1055 610 1055 616 1079 c 2,12,-1
 657 1253 l 2,13,14
 662 1282 662 1282 677 1290 c 0,15,16
 689 1298 689 1298 731 1298 c 2,0,-1
EndSplineSet
Validated: 1
EndChar

StartChar: periodcentered
Encoding: 183 183 76
AltUni2: 002219.ffffffff.0
Width: 768
Flags: W
LayerCount: 2
Fore
SplineSet
378.719726562 447 m 28,0,1
 371.879882812 440.879882812 371.879882812 440.879882812 218.879882812 605.759765625 c 4,2,3
 209.879882812 615.479492188 209.879882812 615.479492188 209.989257812 628.82421875 c 4,4,5
 209.879882812 638.51953125 209.879882812 638.51953125 216 648.599609375 c 5,6,-1
 216 648.780273438 l 5,7,-1
 216 648.959960938 l 6,8,9
 216 649.3203125 216 649.3203125 219.239257812 653.639648438 c 4,10,11
 232.919921875 673.080078125 232.919921875 673.080078125 247.319335938 686.940429688 c 132,-1,12
 261.719726562 700.799804688 261.719726562 700.799804688 281.51953125 719.51953125 c 5,13,14
 284.399414062 728.879882812 284.399414062 728.879882812 324 771 c 4,15,16
 357.83984375 806.639648438 357.83984375 806.639648438 360 807.719726562 c 5,17,18
 370.799804688 814.559570312 370.799804688 814.559570312 385.040039062 814.521484375 c 4,19,20
 388.079101562 814.559570312 388.079101562 814.559570312 391.319335938 814.200195312 c 4,21,22
 408.239257812 812.400390625 408.239257812 812.400390625 419.399414062 802.3203125 c 4,23,24
 456.83984375 767.759765625 456.83984375 767.759765625 484.379882812 729.780273438 c 4,25,26
 506.51953125 699.360351562 506.51953125 699.360351562 541.799804688 642.83984375 c 4,27,28
 549 631.3203125 549 631.3203125 550.439453125 628.080078125 c 4,29,30
 553.319335938 620.51953125 553.319335938 620.51953125 553.264648438 613.95703125 c 4,31,32
 553.319335938 603.240234375 553.319335938 603.240234375 547.559570312 597.479492188 c 4,33,34
 462.959960938 522.240234375 462.959960938 522.240234375 378.719726562 447 c 28,0,1
EndSplineSet
EndChar

StartChar: cedilla
Encoding: 184 184 77
Width: 939
Flags: W
LayerCount: 2
Fore
SplineSet
734 0 m 1,0,-1
 694 -95 l 1,1,2
 753 -95 753 -95 791 -110 c 0,3,4
 895 -148 895 -148 895 -258 c 0,5,6
 895 -346 895 -346 831 -400 c 0,7,8
 766 -454 766 -454 662 -454 c 0,9,10
 574 -454 574 -454 516 -414 c 0,11,12
 458 -373 458 -373 458 -312 c 0,13,14
 458 -273 458 -273 488 -246 c 256,15,16
 518 -219 518 -219 562 -219 c 0,17,18
 595 -219 595 -219 595 -236 c 0,19,20
 595 -240 595 -240 589 -248 c 0,21,22
 576 -262 576 -262 576 -283 c 0,23,24
 576 -311 576 -311 604 -335 c 0,25,26
 630 -357 630 -357 668 -357 c 0,27,28
 708 -357 708 -357 736 -332 c 0,29,30
 763 -308 763 -308 763 -270 c 256,31,32
 763 -232 763 -232 734 -208 c 0,33,34
 704 -184 704 -184 658 -184 c 0,35,36
 641 -184 641 -184 608 -188 c 0,37,38
 588 -190 588 -190 587 -190 c 0,39,40
 547 -190 547 -190 547 -153 c 0,41,42
 547 -139 547 -139 561 -111 c 2,43,-1
 614 0 l 1,44,-1
 734 0 l 1,0,-1
EndSplineSet
Validated: 1
EndChar

StartChar: multiply
Encoding: 215 215 78
Width: 1121
Flags: W
LayerCount: 2
Fore
SplineSet
628 845 m 1,0,-1
 939 1105 l 1,1,-1
 1068 997 l 1,2,-1
 757 735 l 1,3,-1
 1068 474 l 1,4,-1
 939 364 l 1,5,-1
 628 626 l 1,6,-1
 316 364 l 1,7,-1
 187 474 l 1,8,-1
 498 735 l 1,9,-1
 187 997 l 1,10,-1
 316 1105 l 1,11,-1
 628 845 l 1,0,-1
EndSplineSet
Validated: 1
EndChar

StartChar: Oslash
Encoding: 216 216 79
Width: 1712
Flags: W
LayerCount: 2
Fore
SplineSet
368 -59 m 1,0,-1
 243 5 l 1,1,-1
 343 141 l 1,2,3
 301 179 301 179 286 194 c 0,4,5
 78 418 78 418 78 721 c 0,6,7
 78 937 78 937 192 1122 c 0,8,9
 405 1470 405 1470 852 1470 c 0,10,11
 1085 1470 1085 1470 1258 1375 c 1,12,-1
 1350 1498 l 1,13,-1
 1474 1432 l 1,14,-1
 1373 1295 l 1,15,16
 1461 1213 1461 1213 1518 1122 c 0,17,18
 1631 937 1631 937 1631 723 c 0,19,20
 1631 418 1631 418 1423 194 c 0,21,22
 1319 82 1319 82 1173 23 c 0,23,24
 1024 -36 1024 -36 856 -36 c 0,25,26
 643 -36 643 -36 457 61 c 1,27,-1
 368 -59 l 1,0,-1
1121 1191 m 1,28,29
 1008 1340 1008 1340 854 1340 c 0,30,31
 723 1340 723 1340 626 1237 c 0,32,33
 549 1157 549 1157 506 1017 c 0,34,35
 463 879 463 879 463 716 c 0,36,37
 463 534 463 534 520 378 c 1,38,-1
 1121 1191 l 1,28,29
1192 1050 m 1,39,-1
 590 240 l 1,40,41
 700 92 700 92 856 92 c 0,42,43
 985 92 985 92 1084 195 c 0,44,45
 1159 276 1159 276 1203 417 c 256,46,47
 1247 558 1247 558 1247 717 c 0,48,49
 1247 895 1247 895 1192 1050 c 1,39,-1
EndSplineSet
Validated: 1
EndChar

StartChar: ccedilla
Encoding: 231 231 80
Width: 1026
Flags: W
LayerCount: 2
Fore
SplineSet
580 -20 m 1,0,-1
 548 -95 l 1,1,2
 609 -95 609 -95 647 -110 c 0,3,4
 751 -149 751 -149 751 -258 c 0,5,6
 751 -345 751 -345 687 -400 c 0,7,8
 622 -454 622 -454 517 -454 c 0,9,10
 430 -454 430 -454 372 -414 c 0,11,12
 314 -373 314 -373 314 -312 c 0,13,14
 314 -273 314 -273 344 -246 c 256,15,16
 374 -219 374 -219 418 -219 c 0,17,18
 450 -219 450 -219 450 -236 c 0,19,20
 450 -240 450 -240 444 -248 c 0,21,22
 432 -263 432 -263 432 -283 c 0,23,24
 432 -312 432 -312 459 -335 c 0,25,26
 486 -357 486 -357 523 -357 c 0,27,28
 564 -357 564 -357 591 -332 c 0,29,30
 619 -307 619 -307 619 -270 c 0,31,32
 619 -231 619 -231 589 -207 c 0,33,34
 559 -184 559 -184 512 -184 c 0,35,36
 496 -184 496 -184 462 -188 c 0,37,38
 444 -190 444 -190 442 -190 c 0,39,40
 401 -190 401 -190 401 -153 c 0,41,42
 401 -140 401 -140 415 -111 c 2,43,-1
 463 -12 l 1,44,45
 381 5 381 5 328 34 c 0,46,47
 78 163 78 163 78 461 c 0,48,49
 78 676 78 676 212 821 c 0,50,51
 348 971 348 971 561 971 c 0,52,53
 629 971 629 971 718 946 c 0,54,55
 744 938 744 938 762 938 c 0,56,57
 781 938 781 938 812 949 c 0,58,59
 825 954 825 954 837 954 c 0,60,61
 870 954 870 954 902 895 c 0,62,63
 935 835 935 835 935 776 c 0,64,65
 935 680 935 680 856 613 c 0,66,67
 781 551 781 551 680 551 c 0,68,69
 596 551 596 551 536 598 c 0,70,71
 484 636 484 636 484 684 c 0,72,73
 484 699 484 699 496 710 c 0,74,75
 506 722 506 722 522 722 c 0,76,77
 528 722 528 722 543 717 c 0,78,79
 576 706 576 706 592 706 c 0,80,81
 621 706 621 706 643 726 c 256,82,83
 665 746 665 746 665 772 c 0,84,85
 665 801 665 801 637 824 c 0,86,87
 606 845 606 845 568 845 c 0,88,89
 468 845 468 845 398 758 c 0,90,91
 332 677 332 677 332 552 c 0,92,93
 332 395 332 395 432 298 c 0,94,95
 517 210 517 210 643 210 c 0,96,97
 710 210 710 210 773 240 c 0,98,99
 836 268 836 268 871 317 c 0,100,101
 894 348 894 348 906 357 c 0,102,103
 920 365 920 365 938 365 c 0,104,105
 978 365 978 365 978 326 c 0,106,107
 978 279 978 279 945 212 c 0,108,109
 915 146 915 146 869 99 c 0,110,111
 758 -11 758 -11 580 -20 c 1,0,-1
EndSplineSet
Validated: 1
EndChar

StartChar: thorn
Encoding: 254 254 81
Width: 1245
Flags: W
LayerCount: 2
Fore
SplineSet
461 799 m 1,0,1
 518 884 518 884 569 919 c 0,2,3
 648 970 648 970 761 970 c 0,4,5
 953 970 953 970 1071 836 c 0,6,7
 1186 707 1186 707 1186 511 c 0,8,9
 1186 286 1186 286 1046 133 c 0,10,11
 905 -21 905 -21 702 -21 c 0,12,13
 623 -21 623 -21 568 5 c 0,14,15
 513 30 513 30 461 95 c 1,16,-1
 461 19 l 2,17,18
 461 -161 461 -161 474 -208 c 0,19,20
 487 -257 487 -257 538 -275 c 0,21,22
 588 -293 588 -293 588 -316 c 0,23,24
 588 -327 588 -327 571 -338 c 0,25,26
 553 -347 553 -347 530 -347 c 2,27,-1
 110 -347 l 2,28,29
 52 -347 52 -347 52 -316 c 0,30,31
 52 -296 52 -296 92 -275 c 0,32,33
 137 -253 137 -253 150 -204 c 0,34,35
 161 -157 161 -157 161 19 c 2,36,-1
 161 1102 l 2,37,38
 161 1209 161 1209 150 1234 c 0,39,40
 139 1262 139 1262 87 1285 c 0,41,42
 55 1298 55 1298 55 1321 c 0,43,44
 55 1349 55 1349 99 1355 c 0,45,46
 269 1380 269 1380 378 1453 c 0,47,48
 406 1471 406 1471 427 1471 c 0,49,50
 461 1471 461 1471 461 1422 c 2,51,-1
 461 799 l 1,0,1
461 304 m 1,52,53
 528 396 528 396 624 396 c 0,54,55
 667 396 667 396 697 381 c 0,56,57
 726 364 726 364 726 342 c 0,58,59
 726 308 726 308 687 308 c 0,60,61
 684 308 684 308 658 310 c 0,62,63
 653 311 653 311 645 311 c 0,64,65
 608 311 608 311 582 286 c 0,66,67
 555 260 555 260 555 226 c 0,68,69
 555 184 555 184 588 151 c 0,70,71
 623 119 623 119 664 119 c 0,72,73
 761 119 761 119 820 205 c 0,74,75
 878 291 878 291 878 439 c 0,76,77
 878 624 878 624 786 704 c 0,78,79
 723 757 723 757 652 757 c 0,80,81
 461 757 461 757 461 466 c 2,82,-1
 461 304 l 1,52,53
EndSplineSet
Validated: 1
EndChar

StartChar: quoteleft
Encoding: 8216 8216 82
Width: 510
Flags: W
LayerCount: 2
Fore
SplineSet
334 1210 m 1,0,1
 455 1187 455 1187 455 1088 c 0,2,3
 455 1027 455 1027 407 985 c 0,4,5
 358 944 358 944 287 944 c 0,6,7
 210 944 210 944 162 988 c 0,8,9
 113 1032 113 1032 113 1102 c 0,10,11
 113 1260 113 1260 312 1398 c 0,12,13
 418 1470 418 1470 464 1470 c 0,14,15
 486 1470 486 1470 486 1451 c 0,16,17
 486 1443 486 1443 466 1425 c 0,18,19
 350 1323 350 1323 334 1210 c 1,0,1
EndSplineSet
Validated: 1
EndChar

StartChar: quotedblleft
Encoding: 8220 8220 83
Width: 967
Flags: W
LayerCount: 2
Fore
SplineSet
334 1210 m 1,0,1
 455 1187 455 1187 455 1088 c 0,2,3
 455 1027 455 1027 407 985 c 0,4,5
 358 944 358 944 287 944 c 0,6,7
 210 944 210 944 162 988 c 0,8,9
 113 1032 113 1032 113 1102 c 0,10,11
 113 1260 113 1260 312 1398 c 0,12,13
 418 1470 418 1470 464 1470 c 0,14,15
 486 1470 486 1470 486 1451 c 0,16,17
 486 1443 486 1443 466 1425 c 0,18,19
 350 1323 350 1323 334 1210 c 1,0,1
770 1210 m 1,20,21
 891 1187 891 1187 891 1088 c 0,22,23
 891 1027 891 1027 843 985 c 0,24,25
 794 944 794 944 723 944 c 0,26,27
 648 944 648 944 598 988 c 0,28,29
 550 1031 550 1031 550 1102 c 0,30,31
 550 1261 550 1261 748 1398 c 0,32,33
 854 1470 854 1470 900 1470 c 0,34,35
 921 1470 921 1470 921 1451 c 0,36,37
 921 1442 921 1442 902 1425 c 0,38,39
 786 1323 786 1323 770 1210 c 1,20,21
EndSplineSet
Validated: 1
EndChar

StartChar: trademark
Encoding: 8482 8482 84
Width: 1989
Flags: W
LayerCount: 2
Fore
SplineSet
403 1266 m 1,0,1
 348 1271 348 1271 327 1271 c 0,2,3
 278 1271 278 1271 237 1255 c 0,4,5
 199 1239 199 1239 137 1195 c 0,6,7
 110 1174 110 1174 96 1174 c 0,8,9
 80 1174 80 1174 70 1184 c 0,10,11
 59 1195 59 1195 59 1208 c 0,12,13
 59 1216 59 1216 71 1236 c 0,14,15
 124 1336 124 1336 140 1398 c 0,16,17
 158 1466 158 1466 291 1466 c 0,18,19
 344 1466 344 1466 463 1443 c 0,20,21
 585 1417 585 1417 622 1417 c 0,22,23
 699 1417 699 1417 756 1462 c 0,24,25
 786 1487 786 1487 810 1487 c 0,26,27
 849 1487 849 1487 849 1448 c 0,28,29
 849 1402 849 1402 777 1338 c 0,30,31
 723 1290 723 1290 607 1261 c 0,32,33
 555 1247 555 1247 541 1227 c 0,34,35
 527 1205 527 1205 527 1146 c 2,36,-1
 527 819 l 2,37,38
 527 742 527 742 537 722 c 0,39,40
 547 700 547 700 592 683 c 0,41,42
 624 670 624 670 624 651 c 0,43,44
 624 620 624 620 576 620 c 2,45,-1
 270 620 l 2,46,47
 222 620 222 620 222 651 c 0,48,49
 222 672 222 672 264 687 c 0,50,51
 301 701 301 701 310 724 c 0,52,53
 318 744 318 744 318 819 c 2,54,-1
 318 1026 l 2,55,56
 318 1070 318 1070 312 1085 c 0,57,58
 304 1098 304 1098 278 1109 c 0,59,60
 256 1119 256 1119 256 1140 c 0,61,62
 256 1194 256 1194 403 1266 c 1,0,1
1590 1183 m 1,63,-1
 1416 660 l 2,64,65
 1406 631 1406 631 1395 623 c 0,66,67
 1383 614 1383 614 1360 614 c 0,68,69
 1321 614 1321 614 1307 660 c 2,70,-1
 1139 1154 l 1,71,72
 1145 1077 1145 1077 1145 999 c 0,73,74
 1145 770 1145 770 1093 683 c 0,75,76
 1042 599 1042 599 948 599 c 0,77,78
 884 599 884 599 845 636 c 0,79,80
 804 672 804 672 804 729 c 0,81,82
 804 776 804 776 834 812 c 0,83,84
 865 848 865 848 904 848 c 0,85,86
 915 848 915 848 936 836 c 0,87,88
 945 829 945 829 958 829 c 0,89,90
 1026 829 1026 829 1026 1117 c 0,91,92
 1026 1244 1026 1244 1006 1297 c 0,93,94
 986 1348 986 1348 919 1398 c 0,95,96
 888 1420 888 1420 888 1437 c 0,97,98
 888 1468 888 1468 922 1468 c 0,99,100
 930 1468 930 1468 959 1459 c 0,101,102
 1043 1432 1043 1432 1124 1432 c 0,103,104
 1197 1432 1197 1432 1280 1458 c 0,105,106
 1312 1468 1312 1468 1326 1468 c 0,107,108
 1362 1468 1362 1468 1362 1437 c 0,109,110
 1362 1417 1362 1417 1333 1399 c 0,111,112
 1297 1376 1297 1376 1297 1345 c 0,113,114
 1297 1322 1297 1322 1307 1294 c 2,115,-1
 1408 1004 l 1,116,-1
 1505 1294 l 2,117,118
 1517 1331 1517 1331 1517 1343 c 0,119,120
 1517 1372 1517 1372 1474 1404 c 0,121,122
 1447 1422 1447 1422 1447 1438 c 0,123,124
 1447 1468 1447 1468 1483 1468 c 0,125,126
 1499 1468 1499 1468 1537 1457 c 0,127,128
 1612 1436 1612 1436 1684 1436 c 0,129,130
 1758 1436 1758 1436 1832 1464 c 0,131,132
 1845 1469 1845 1469 1855 1469 c 0,133,134
 1894 1469 1894 1469 1894 1438 c 0,135,136
 1894 1417 1894 1417 1845 1388 c 0,137,138
 1814 1371 1814 1371 1807 1340 c 0,139,140
 1800 1312 1800 1312 1799 1198 c 2,141,-1
 1799 819 l 2,142,143
 1799 741 1799 741 1809 723 c 0,144,145
 1817 703 1817 703 1864 683 c 0,146,147
 1895 671 1895 671 1895 651 c 0,148,149
 1895 620 1895 620 1848 620 c 2,150,-1
 1541 620 l 2,151,152
 1493 620 1493 620 1493 651 c 0,153,154
 1493 671 1493 671 1536 687 c 0,155,156
 1573 702 1573 702 1581 724 c 0,157,158
 1590 746 1590 746 1590 819 c 2,159,-1
 1590 1183 l 1,63,-1
EndSplineSet
Validated: 1
EndChar

StartChar: quotesinglbase
Encoding: 8218 8218 85
Width: 635
Flags: W
LayerCount: 2
Fore
SplineSet
90 0 m 1,0,-1
 90 1441 l 1,1,-1
 605 1441 l 1,2,-1
 605 0 l 1,3,-1
 90 0 l 1,0,-1
541 54 m 1,4,-1
 541 1387 l 1,5,-1
 154 1387 l 1,6,-1
 154 54 l 1,7,-1
 541 54 l 1,4,-1
EndSplineSet
Validated: 1
EndChar

StartChar: florin
Encoding: 402 402 86
Width: 635
Flags: W
LayerCount: 2
Fore
SplineSet
90 0 m 1,0,-1
 90 1441 l 1,1,-1
 605 1441 l 1,2,-1
 605 0 l 1,3,-1
 90 0 l 1,0,-1
541 54 m 1,4,-1
 541 1387 l 1,5,-1
 154 1387 l 1,6,-1
 154 54 l 1,7,-1
 541 54 l 1,4,-1
EndSplineSet
Validated: 1
EndChar

StartChar: quotedblbase
Encoding: 8222 8222 87
Width: 635
Flags: W
LayerCount: 2
Fore
SplineSet
90 0 m 1,0,-1
 90 1441 l 1,1,-1
 605 1441 l 1,2,-1
 605 0 l 1,3,-1
 90 0 l 1,0,-1
541 54 m 1,4,-1
 541 1387 l 1,5,-1
 154 1387 l 1,6,-1
 154 54 l 1,7,-1
 541 54 l 1,4,-1
EndSplineSet
Validated: 1
EndChar

StartChar: ellipsis
Encoding: 8230 8230 88
Width: 635
Flags: W
LayerCount: 2
Fore
SplineSet
90 0 m 1,0,-1
 90 1441 l 1,1,-1
 605 1441 l 1,2,-1
 605 0 l 1,3,-1
 90 0 l 1,0,-1
541 54 m 1,4,-1
 541 1387 l 1,5,-1
 154 1387 l 1,6,-1
 154 54 l 1,7,-1
 541 54 l 1,4,-1
EndSplineSet
Validated: 1
EndChar

StartChar: dagger
Encoding: 8224 8224 89
Width: 635
Flags: W
LayerCount: 2
Fore
SplineSet
90 0 m 1,0,-1
 90 1441 l 1,1,-1
 605 1441 l 1,2,-1
 605 0 l 1,3,-1
 90 0 l 1,0,-1
541 54 m 1,4,-1
 541 1387 l 1,5,-1
 154 1387 l 1,6,-1
 154 54 l 1,7,-1
 541 54 l 1,4,-1
EndSplineSet
Validated: 1
EndChar

StartChar: daggerdbl
Encoding: 8225 8225 90
Width: 635
Flags: W
LayerCount: 2
Fore
SplineSet
90 0 m 1,0,-1
 90 1441 l 1,1,-1
 605 1441 l 1,2,-1
 605 0 l 1,3,-1
 90 0 l 1,0,-1
541 54 m 1,4,-1
 541 1387 l 1,5,-1
 154 1387 l 1,6,-1
 154 54 l 1,7,-1
 541 54 l 1,4,-1
EndSplineSet
Validated: 1
EndChar

StartChar: circumflex
Encoding: 710 710 91
Width: 635
Flags: W
LayerCount: 2
Fore
SplineSet
90 0 m 1,0,-1
 90 1441 l 1,1,-1
 605 1441 l 1,2,-1
 605 0 l 1,3,-1
 90 0 l 1,0,-1
541 54 m 1,4,-1
 541 1387 l 1,5,-1
 154 1387 l 1,6,-1
 154 54 l 1,7,-1
 541 54 l 1,4,-1
EndSplineSet
Validated: 1
EndChar

StartChar: perthousand
Encoding: 8240 8240 92
Width: 635
Flags: W
LayerCount: 2
Fore
SplineSet
90 0 m 1,0,-1
 90 1441 l 1,1,-1
 605 1441 l 1,2,-1
 605 0 l 1,3,-1
 90 0 l 1,0,-1
541 54 m 1,4,-1
 541 1387 l 1,5,-1
 154 1387 l 1,6,-1
 154 54 l 1,7,-1
 541 54 l 1,4,-1
EndSplineSet
Validated: 1
EndChar

StartChar: Scaron
Encoding: 352 352 93
Width: 635
Flags: W
LayerCount: 2
Fore
SplineSet
90 0 m 1,0,-1
 90 1441 l 1,1,-1
 605 1441 l 1,2,-1
 605 0 l 1,3,-1
 90 0 l 1,0,-1
541 54 m 1,4,-1
 541 1387 l 1,5,-1
 154 1387 l 1,6,-1
 154 54 l 1,7,-1
 541 54 l 1,4,-1
EndSplineSet
Validated: 1
EndChar

StartChar: guilsinglleft
Encoding: 8249 8249 94
Width: 635
Flags: W
LayerCount: 2
Fore
SplineSet
90 0 m 1,0,-1
 90 1441 l 1,1,-1
 605 1441 l 1,2,-1
 605 0 l 1,3,-1
 90 0 l 1,0,-1
541 54 m 1,4,-1
 541 1387 l 1,5,-1
 154 1387 l 1,6,-1
 154 54 l 1,7,-1
 541 54 l 1,4,-1
EndSplineSet
Validated: 1
EndChar

StartChar: OE
Encoding: 338 338 95
Width: 635
Flags: W
LayerCount: 2
Fore
SplineSet
90 0 m 1,0,-1
 90 1441 l 1,1,-1
 605 1441 l 1,2,-1
 605 0 l 1,3,-1
 90 0 l 1,0,-1
541 54 m 1,4,-1
 541 1387 l 1,5,-1
 154 1387 l 1,6,-1
 154 54 l 1,7,-1
 541 54 l 1,4,-1
EndSplineSet
Validated: 1
EndChar

StartChar: bullet
Encoding: 8226 8226 96
Width: 635
Flags: W
LayerCount: 2
Fore
SplineSet
90 0 m 1,0,-1
 90 1441 l 1,1,-1
 605 1441 l 1,2,-1
 605 0 l 1,3,-1
 90 0 l 1,0,-1
541 54 m 1,4,-1
 541 1387 l 1,5,-1
 154 1387 l 1,6,-1
 154 54 l 1,7,-1
 541 54 l 1,4,-1
EndSplineSet
Validated: 1
EndChar

StartChar: endash
Encoding: 8211 8211 97
Width: 635
Flags: W
LayerCount: 2
Fore
SplineSet
90 0 m 1,0,-1
 90 1441 l 1,1,-1
 605 1441 l 1,2,-1
 605 0 l 1,3,-1
 90 0 l 1,0,-1
541 54 m 1,4,-1
 541 1387 l 1,5,-1
 154 1387 l 1,6,-1
 154 54 l 1,7,-1
 541 54 l 1,4,-1
EndSplineSet
Validated: 1
EndChar

StartChar: emdash
Encoding: 8212 8212 98
Width: 635
Flags: W
LayerCount: 2
Fore
SplineSet
90 0 m 1,0,-1
 90 1441 l 1,1,-1
 605 1441 l 1,2,-1
 605 0 l 1,3,-1
 90 0 l 1,0,-1
541 54 m 1,4,-1
 541 1387 l 1,5,-1
 154 1387 l 1,6,-1
 154 54 l 1,7,-1
 541 54 l 1,4,-1
EndSplineSet
Validated: 1
EndChar

StartChar: tilde
Encoding: 732 732 99
Width: 635
Flags: W
LayerCount: 2
Fore
SplineSet
90 0 m 1,0,-1
 90 1441 l 1,1,-1
 605 1441 l 1,2,-1
 605 0 l 1,3,-1
 90 0 l 1,0,-1
541 54 m 1,4,-1
 541 1387 l 1,5,-1
 154 1387 l 1,6,-1
 154 54 l 1,7,-1
 541 54 l 1,4,-1
EndSplineSet
Validated: 1
EndChar

StartChar: scaron
Encoding: 353 353 100
Width: 635
Flags: W
LayerCount: 2
Fore
SplineSet
90 0 m 1,0,-1
 90 1441 l 1,1,-1
 605 1441 l 1,2,-1
 605 0 l 1,3,-1
 90 0 l 1,0,-1
541 54 m 1,4,-1
 541 1387 l 1,5,-1
 154 1387 l 1,6,-1
 154 54 l 1,7,-1
 541 54 l 1,4,-1
EndSplineSet
Validated: 1
EndChar

StartChar: guilsinglright
Encoding: 8250 8250 101
Width: 635
Flags: W
LayerCount: 2
Fore
SplineSet
90 0 m 1,0,-1
 90 1441 l 1,1,-1
 605 1441 l 1,2,-1
 605 0 l 1,3,-1
 90 0 l 1,0,-1
541 54 m 1,4,-1
 541 1387 l 1,5,-1
 154 1387 l 1,6,-1
 154 54 l 1,7,-1
 541 54 l 1,4,-1
EndSplineSet
Validated: 1
EndChar

StartChar: oe
Encoding: 339 339 102
Width: 635
Flags: W
LayerCount: 2
Fore
SplineSet
90 0 m 1,0,-1
 90 1441 l 1,1,-1
 605 1441 l 1,2,-1
 605 0 l 1,3,-1
 90 0 l 1,0,-1
541 54 m 1,4,-1
 541 1387 l 1,5,-1
 154 1387 l 1,6,-1
 154 54 l 1,7,-1
 541 54 l 1,4,-1
EndSplineSet
Validated: 1
EndChar

StartChar: Ydieresis
Encoding: 376 376 103
Width: 635
Flags: W
LayerCount: 2
Fore
SplineSet
90 0 m 1,0,-1
 90 1441 l 1,1,-1
 605 1441 l 1,2,-1
 605 0 l 1,3,-1
 90 0 l 1,0,-1
541 54 m 1,4,-1
 541 1387 l 1,5,-1
 154 1387 l 1,6,-1
 154 54 l 1,7,-1
 541 54 l 1,4,-1
EndSplineSet
Validated: 1
EndChar

StartChar: quotedblright
Encoding: 8221 8221 104
Width: 824
Flags: W
LayerCount: 2
Fore
SplineSet
210 1258 m 1,0,1
 103 1280 103 1280 103 1386 c 0,2,3
 103 1449 103 1449 146 1492 c 0,4,5
 188 1536 188 1536 251 1536 c 0,6,7
 317 1536 317 1536 360 1490 c 256,8,9
 403 1444 403 1444 403 1371 c 0,10,11
 403 1204 403 1204 229 1062 c 0,12,13
 135 986 135 986 95 986 c 0,14,15
 77 986 77 986 77 1006 c 0,16,17
 77 1014 77 1014 94 1033 c 0,18,19
 195 1141 195 1141 210 1258 c 1,0,1
592 1258 m 1,20,21
 486 1280 486 1280 486 1386 c 0,22,23
 486 1448 486 1448 528 1492 c 0,24,25
 572 1536 572 1536 633 1536 c 0,26,27
 700 1536 700 1536 743 1490 c 0,28,29
 785 1443 785 1443 785 1371 c 0,30,31
 785 1204 785 1204 611 1062 c 0,32,33
 518 986 518 986 478 986 c 0,34,35
 459 986 459 986 459 1006 c 0,36,37
 459 1015 459 1015 477 1033 c 0,38,39
 577 1140 577 1140 592 1258 c 1,20,21
EndSplineSet
Validated: 1
EndChar

StartChar: quoteright
Encoding: 8217 8217 105
Width: 423
Flags: W
LayerCount: 2
Fore
SplineSet
210 1258 m 1,0,1
 103 1280 103 1280 103 1386 c 0,2,3
 103 1449 103 1449 146 1492 c 0,4,5
 188 1536 188 1536 251 1536 c 0,6,7
 317 1536 317 1536 360 1490 c 256,8,9
 403 1444 403 1444 403 1371 c 0,10,11
 403 1204 403 1204 229 1062 c 0,12,13
 135 986 135 986 95 986 c 0,14,15
 77 986 77 986 77 1006 c 0,16,17
 77 1014 77 1014 94 1033 c 0,18,19
 195 1141 195 1141 210 1258 c 1,0,1
EndSplineSet
Validated: 1
EndChar

StartChar: A
Encoding: 65 65 106
Width: 932
Flags: W
LayerCount: 2
Fore
SplineSet
171 31 m 0,0,1
 168 19 168 19 142 15.5 c 128,-1,2
 116 12 116 12 110 48 c 0,3,4
 87 161 87 161 77 339 c 128,-1,5
 67 517 67 517 63.5 715.5 c 0,6,7
 60.4375 889.1875 60.4375 889.1875 60.4375 1062.109375 c 0,8,9
 60.4375 1086.8125 60.4375 1086.8125 60.5 1111.5 c 0,10,11
 61 1309 61 1309 61 1461 c 1,12,13
 67.116 1538.284 67.116 1538.284 122.075488 1538.284 c 0,14,15
 165.964 1538.284 165.964 1538.284 241 1489 c 0,16,17
 436 1358 436 1358 584.5 1173.5 c 128,-1,18
 733 989 733 989 873 790 c 0,19,20
 888 766 888 766 880 754.5 c 128,-1,21
 872 743 872 743 854 757 c 0,22,23
 683 877 683 877 536 1007 c 128,-1,24
 389 1137 389 1137 248 1267 c 1,25,26
 248 1192 248 1192 243.5 1105 c 128,-1,27
 239 1018 239 1018 239 945 c 1,28,29
 408 806 408 806 529.5 683 c 128,-1,30
 651 560 651 560 785 395 c 0,31,32
 798 378 798 378 799.5 362.5 c 128,-1,33
 801 347 801 347 765 364 c 0,34,35
 713 386 713 386 537.5 503 c 128,-1,36
 362 620 362 620 236 715 c 1,37,38
 224 355 224 355 171 31 c 0,0,1
EndSplineSet
Validated: 1
EndChar

StartChar: a
Encoding: 97 97 107
Width: 932
Flags: W
LayerCount: 2
Fore
SplineSet
171 31 m 0,0,1
 168 19 168 19 142 15.5 c 0,2,3
 139.696202532 15.1898734177 139.696202532 15.1898734177 137.549431181 15.1898734177 c 0,4,5
 115.46835443 15.1898734177 115.46835443 15.1898734177 110 48 c 0,6,7
 87 161 87 161 77 339 c 128,-1,8
 67 517 67 517 63.5 715.5 c 0,9,10
 60.4375 889.1875 60.4375 889.1875 60.4375 1062.109375 c 0,11,12
 60.4375 1086.8125 60.4375 1086.8125 60.5 1111.5 c 0,13,14
 61 1309 61 1309 61 1461 c 1,15,16
 67.116 1538.284 67.116 1538.284 122.075488 1538.284 c 0,17,18
 165.964 1538.284 165.964 1538.284 241 1489 c 0,19,20
 436 1358 436 1358 584.5 1173.5 c 128,-1,21
 733 989 733 989 873 790 c 0,22,23
 882.782608696 774.347826087 882.782608696 774.347826087 882.782608696 764.012287335 c 0,24,25
 882.782608696 758.5 882.782608696 758.5 880 754.5 c 0,26,27
 876.392156863 749.31372549 876.392156863 749.31372549 870.750480584 749.31372549 c 0,28,29
 863.882352941 749.31372549 863.882352941 749.31372549 854 757 c 0,30,31
 683 877 683 877 536 1007 c 128,-1,32
 389 1137 389 1137 248 1267 c 1,33,34
 248 1192 248 1192 243.5 1105 c 128,-1,35
 239 1018 239 1018 239 945 c 1,36,37
 408 806 408 806 529.5 683 c 128,-1,38
 651 560 651 560 785 395 c 0,39,40
 798 378 798 378 799.5 362.5 c 0,41,42
 799.56 361.88 799.56 361.88 799.56 361.312 c 0,43,44
 799.56 355.107692308 799.56 355.107692308 792.401183432 355.107692308 c 0,45,46
 783.830769231 355.107692308 783.830769231 355.107692308 765 364 c 0,47,48
 713 386 713 386 537.5 503 c 128,-1,49
 362 620 362 620 236 715 c 1,50,51
 224 355 224 355 171 31 c 0,0,1
EndSplineSet
Validated: 1
EndChar

StartChar: b
Encoding: 98 98 108
Width: 1077
Flags: W
LayerCount: 2
Fore
SplineSet
97 93 m 0,0,1
 68 383 68 383 60 760 c 0,2,3
 55 995 55 995 55 1199 c 0,4,5
 54.6666666667 1232.66666667 54.6666666667 1232.66666667 54.6666666667 1270.88888889 c 0,6,7
 54.6666666667 1347.33333333 54.6666666667 1347.33333333 56 1442 c 0,8,9
 57 1513 57 1513 129 1523 c 0,10,11
 150 1526 150 1526 170 1526 c 0,12,13
 218 1526 218 1526 255 1509 c 0,14,15
 393 1446 393 1446 522 1381 c 0,16,17
 617 1333 617 1333 678.5 1297 c 128,-1,18
 740 1261 740 1261 788.5 1227 c 128,-1,19
 837 1193 837 1193 916 1141 c 0,20,21
 950 1118 950 1118 950 1086 c 0,22,23
 950 1079 950 1079 948 1070 c 0,24,25
 941 1029 941 1029 899 1004 c 0,26,27
 788 938 788 938 732 907 c 0,28,29
 641 856 641 856 566 814 c 1,30,31
 702 776 702 776 842 676 c 0,32,33
 983 575 983 575 1011 536 c 0,34,35
 1023 519 1023 519 1024 494 c 0,36,37
 1025 493 1025 493 1025 492 c 0,38,39
 1012 461 1012 461 999 452 c 0,40,41
 829 333 829 333 606 212 c 0,42,43
 332 62 332 62 198 9 c 0,44,45
 193 7 193 7 189 7 c 0,46,47
 184 7 184 7 178 18 c 0,48,49
 176 22 176 22 176 26 c 0,50,51
 178 40 178 40 188 50 c 0,52,53
 281 143 281 143 475 298 c 0,54,55
 624 418 624 418 777 529 c 1,56,57
 622 577 622 577 373 729 c 0,58,59
 350 743 350 743 350 782 c 0,60,61
 350 786 350 786 350 787 c 0,62,63
 352 830 352 830 373 850 c 0,64,65
 463 935 463 935 528 980 c 0,66,67
 603 1033 603 1033 707 1096 c 1,68,69
 668 1102 668 1102 521.5 1163.5 c 128,-1,70
 375 1225 375 1225 249 1291 c 1,71,72
 237 1102 237 1102 211 752 c 0,73,74
 179 321 179 321 143 93 c 0,75,76
 140 74 140 74 119 74 c 0,77,78
 118 73 118 73 118 73 c 0,79,80
 99 73 99 73 97 93 c 0,0,1
EndSplineSet
Validated: 1
EndChar

StartChar: B
Encoding: 66 66 109
Width: 1077
Flags: W
LayerCount: 2
Fore
SplineSet
97 93 m 0,0,1
 68 383 68 383 60 760 c 0,2,3
 55 995 55 995 55 1199 c 0,4,5
 55 1260 55 1260 55 1271 c 4,6,7
 55 1304 55 1304 55 1311 c 4,8,9
 55 1320 55 1320 55 1337 c 0,10,11
 54.6666666667 1342.66666667 54.6666666667 1342.66666667 54.6666666667 1356.22222222 c 0,12,13
 54.6666666667 1383.33333333 54.6666666667 1383.33333333 56 1442 c 0,14,15
 58 1513 58 1513 129 1523 c 0,16,17
 150 1526 150 1526 170 1526 c 0,18,19
 218 1526 218 1526 255 1509 c 0,20,21
 393 1446 393 1446 522 1381 c 0,22,23
 617 1333 617 1333 678.5 1297 c 128,-1,24
 740 1261 740 1261 788.5 1227 c 128,-1,25
 837 1193 837 1193 916 1141 c 0,26,27
 950 1118 950 1118 950 1086 c 0,28,29
 950 1079 950 1079 948 1070 c 0,30,31
 941 1029 941 1029 899 1004 c 0,32,33
 788 938 788 938 732 907 c 0,34,35
 641 856 641 856 566 814 c 1,36,37
 702 776 702 776 842 676 c 0,38,39
 983 575 983 575 1011 536 c 0,40,41
 1023 519 1023 519 1024 494 c 0,42,43
 1025 493 1025 493 1025 492 c 0,44,45
 1012 461 1012 461 999 452 c 0,46,47
 829 333 829 333 606 212 c 0,48,49
 332 62 332 62 198 9 c 0,50,51
 193 7 193 7 189 7 c 0,52,53
 184 7 184 7 178 18 c 0,54,55
 176 22 176 22 176 26 c 0,56,57
 178 40 178 40 188 50 c 0,58,59
 281 143 281 143 475 298 c 0,60,61
 624 418 624 418 777 529 c 1,62,63
 622 577 622 577 373 729 c 0,64,65
 350 743 350 743 350 782 c 0,66,67
 350 786 350 786 350 787 c 0,68,69
 352 830 352 830 373 850 c 0,70,71
 463 935 463 935 528 980 c 0,72,73
 603 1033 603 1033 707 1096 c 1,74,75
 668 1102 668 1102 521.5 1163.5 c 128,-1,76
 375 1225 375 1225 249 1291 c 1,77,78
 237 1102 237 1102 211 752 c 0,79,80
 179 321 179 321 143 93 c 0,81,82
 140 74 140 74 119 74 c 0,83,84
 118 73 118 73 118 73 c 0,85,86
 99 73 99 73 97 93 c 0,0,1
EndSplineSet
Validated: 1
EndChar

StartChar: C
Encoding: 67 67 110
Width: 943
Flags: W
LayerCount: 2
Fore
SplineSet
54 117 m 0,0,1
 53.7333333333 126.466666667 53.7333333333 126.466666667 53.7333333333 137.533333333 c 0,2,3
 53.7333333333 209.466666667 53.7333333333 209.466666667 65 349 c 0,4,5
 78 510 78 510 102 710.5 c 128,-1,6
 126 911 126 911 159 1124 c 128,-1,7
 192 1337 192 1337 233 1512 c 0,8,9
 237.204379562 1530.91970803 237.204379562 1530.91970803 260.052267036 1530.91970803 c 0,10,11
 280.678832117 1530.91970803 280.678832117 1530.91970803 316.5 1515.5 c 0,12,13
 386.441717791 1485.39263804 386.441717791 1485.39263804 386.441717791 1430.82712936 c 0,14,15
 386.441717791 1426.49079755 386.441717791 1426.49079755 386 1422 c 0,16,17
 375 1309 375 1309 342 1128.5 c 128,-1,18
 309 948 309 948 273 801 c 1,19,20
 462 618 462 618 610.5 433.5 c 128,-1,21
 759 249 759 249 894 28 c 0,22,23
 895.388888889 25.7777777778 895.388888889 25.7777777778 895.388888889 23.5169753086 c 0,24,25
 895.388888889 17.6388888889 895.388888889 17.6388888889 886 11.5 c 0,26,27
 879.685714286 7.37142857143 879.685714286 7.37142857143 873.843265306 7.37142857143 c 0,28,29
 867.657142857 7.37142857143 867.657142857 7.37142857143 862 12 c 0,30,31
 694 141 694 141 538 288 c 128,-1,32
 382 435 382 435 228 582 c 1,33,34
 198 452 198 452 157 309.5 c 128,-1,35
 116 167 116 167 86 110 c 0,36,37
 80.2857142857 99.2857142857 80.2857142857 99.2857142857 72.2755102041 99.2857142857 c 0,38,39
 69.0714285714 99.2857142857 69.0714285714 99.2857142857 65.5 101 c 0,40,41
 53.9259259259 106.555555556 53.9259259259 106.555555556 53.9259259259 115.540466392 c 0,42,43
 53.9259259259 116.259259259 53.9259259259 116.259259259 54 117 c 0,0,1
EndSplineSet
Validated: 1
EndChar

StartChar: c
Encoding: 99 99 111
Width: 943
Flags: W
LayerCount: 2
Fore
SplineSet
54 117 m 0,0,1
 53.7333333333 126.466666667 53.7333333333 126.466666667 53.7333333333 137.533333333 c 0,2,3
 53.7333333333 209.466666667 53.7333333333 209.466666667 65 349 c 0,4,5
 78 510 78 510 102 710.5 c 128,-1,6
 126 911 126 911 159 1124 c 128,-1,7
 192 1337 192 1337 233 1512 c 0,8,9
 237.204379562 1530.91970803 237.204379562 1530.91970803 260.052267036 1530.91970803 c 0,10,11
 280.678832117 1530.91970803 280.678832117 1530.91970803 316.5 1515.5 c 0,12,13
 386.441717791 1485.39263804 386.441717791 1485.39263804 386.441717791 1430.82712936 c 0,14,15
 386.441717791 1426.49079755 386.441717791 1426.49079755 386 1422 c 0,16,17
 375 1309 375 1309 342 1128.5 c 128,-1,18
 309 948 309 948 273 801 c 1,19,20
 462 618 462 618 610.5 433.5 c 128,-1,21
 759 249 759 249 894 28 c 0,22,23
 895.388888889 25.7777777778 895.388888889 25.7777777778 895.388888889 23.5169753086 c 0,24,25
 895.388888889 17.6388888889 895.388888889 17.6388888889 886 11.5 c 0,26,27
 879.685714286 7.37142857143 879.685714286 7.37142857143 873.843265306 7.37142857143 c 0,28,29
 867.657142857 7.37142857143 867.657142857 7.37142857143 862 12 c 0,30,31
 694 141 694 141 538 288 c 128,-1,32
 382 435 382 435 228 582 c 1,33,34
 198 452 198 452 157 309.5 c 128,-1,35
 116 167 116 167 86 110 c 0,36,37
 80.2857142857 99.2857142857 80.2857142857 99.2857142857 72.2755102041 99.2857142857 c 0,38,39
 69.0714285714 99.2857142857 69.0714285714 99.2857142857 65.5 101 c 0,40,41
 53.9259259259 106.555555556 53.9259259259 106.555555556 53.9259259259 115.540466392 c 0,42,43
 53.9259259259 116.259259259 53.9259259259 116.259259259 54 117 c 0,0,1
EndSplineSet
Validated: 1
EndChar

StartChar: D
Encoding: 68 68 112
Width: 1379
Flags: W
LayerCount: 2
Fore
SplineSet
1141 1217 m 1,0,1
 1046 1088 1046 1088 949 968.5 c 128,-1,2
 852 849 852 849 752 730 c 1,3,4
 854 591 854 591 956.5 452 c 128,-1,5
 1059 313 1059 313 1162 174 c 1,6,7
 1154 433 1154 433 1150 694.5 c 128,-1,8
 1146 956 1146 956 1141 1217 c 1,0,1
102 101 m 0,9,10
 99.1698113208 77.4150943396 99.1698113208 77.4150943396 78.5396938412 77.4150943396 c 0,11,12
 77.3018867925 77.4150943396 77.3018867925 77.4150943396 76 77.5 c 0,13,14
 53 79 53 79 53 100 c 0,15,16
 52.619047619 164.571428571 52.619047619 164.571428571 52.619047619 227.818594104 c 0,17,18
 52.619047619 496.619047619 52.619047619 496.619047619 59.5 741.5 c 0,19,20
 68 1044 68 1044 76 1383 c 0,21,22
 76 1408 76 1408 106 1434.5 c 0,23,24
 125.62962963 1451.83950617 125.62962963 1451.83950617 146.543667124 1451.83950617 c 0,25,26
 157.592592593 1451.83950617 157.592592593 1451.83950617 169 1447 c 0,27,28
 276 1399 276 1399 408 1215.5 c 128,-1,29
 540 1032 540 1032 654 862 c 1,30,31
 768 1045 768 1045 938 1261.5 c 128,-1,32
 1108 1478 1108 1478 1177 1523 c 0,33,34
 1197.96202532 1536.39240506 1197.96202532 1536.39240506 1222.31453293 1536.39240506 c 0,35,36
 1239.78481013 1536.39240506 1239.78481013 1536.39240506 1259 1529.5 c 0,37,38
 1305 1513 1305 1513 1306 1470 c 0,39,40
 1310 1290 1310 1290 1312 1141 c 0,41,42
 1312.66666667 1091.33333333 1312.66666667 1091.33333333 1312.66666667 1040.5 c 0,43,44
 1312.66666667 938.833333333 1312.66666667 938.833333333 1310 832.5 c 0,45,46
 1306 673 1306 673 1296 484 c 128,-1,47
 1286 295 1286 295 1268 36 c 0,48,49
 1266 20 1266 20 1245.5 5 c 0,50,51
 1235.58064516 -2.25806451613 1235.58064516 -2.25806451613 1226.71488033 -2.25806451613 c 0,52,53
 1217.25806452 -2.25806451613 1217.25806452 -2.25806451613 1209 6 c 0,54,55
 1059 160 1059 160 929 307 c 128,-1,56
 799 454 799 454 655 616 c 1,57,58
 543 481 543 481 430 360 c 128,-1,59
 317 239 317 239 200 122 c 0,60,61
 185.265306122 107.265306122 185.265306122 107.265306122 170.530612245 107.265306122 c 0,62,-1
 162 108.5 l 0,63,64
 149.551724138 112.103448276 149.551724138 112.103448276 149.551724138 118.497027348 c 0,65,66
 149.551724138 121.862068966 149.551724138 121.862068966 153 126 c 0,67,68
 259 264 259 264 359.5 420.5 c 128,-1,69
 460 577 460 577 561 720 c 1,70,71
 462 842 462 842 371 947.5 c 128,-1,72
 280 1053 280 1053 182 1175 c 1,73,74
 161 906 161 906 145 637 c 128,-1,75
 129 368 129 368 102 101 c 0,9,10
EndSplineSet
Validated: 1
EndChar

StartChar: d
Encoding: 100 100 113
Width: 1379
Flags: W
LayerCount: 2
Fore
SplineSet
1141 1217 m 1,0,1
 1046 1088 1046 1088 949 968.5 c 128,-1,2
 852 849 852 849 752 730 c 1,3,4
 854 591 854 591 956.5 452 c 128,-1,5
 1059 313 1059 313 1162 174 c 1,6,7
 1154 433 1154 433 1150 694.5 c 128,-1,8
 1146 956 1146 956 1141 1217 c 1,0,1
102 101 m 0,9,10
 99.1698113208 77.4150943396 99.1698113208 77.4150943396 78.5396938412 77.4150943396 c 0,11,12
 77.3018867925 77.4150943396 77.3018867925 77.4150943396 76 77.5 c 0,13,14
 53 79 53 79 53 100 c 0,15,16
 52.619047619 164.571428571 52.619047619 164.571428571 52.619047619 227.818594104 c 0,17,18
 52.619047619 496.619047619 52.619047619 496.619047619 59.5 741.5 c 0,19,20
 68 1044 68 1044 76 1383 c 0,21,22
 76 1408 76 1408 106 1434.5 c 0,23,24
 125.62962963 1451.83950617 125.62962963 1451.83950617 146.543667124 1451.83950617 c 0,25,26
 157.592592593 1451.83950617 157.592592593 1451.83950617 169 1447 c 0,27,28
 276 1399 276 1399 408 1215.5 c 128,-1,29
 540 1032 540 1032 654 862 c 1,30,31
 768 1045 768 1045 938 1261.5 c 128,-1,32
 1108 1478 1108 1478 1177 1523 c 0,33,34
 1197.96202532 1536.39240506 1197.96202532 1536.39240506 1222.31453293 1536.39240506 c 0,35,36
 1239.78481013 1536.39240506 1239.78481013 1536.39240506 1259 1529.5 c 0,37,38
 1305 1513 1305 1513 1306 1470 c 0,39,40
 1310 1290 1310 1290 1312 1141 c 0,41,42
 1312.66666667 1091.33333333 1312.66666667 1091.33333333 1312.66666667 1040.5 c 0,43,44
 1312.66666667 938.833333333 1312.66666667 938.833333333 1310 832.5 c 0,45,46
 1306 673 1306 673 1296 484 c 128,-1,47
 1286 295 1286 295 1268 36 c 0,48,49
 1266 20 1266 20 1245.5 5 c 0,50,51
 1235.58064516 -2.25806451613 1235.58064516 -2.25806451613 1226.71488033 -2.25806451613 c 0,52,53
 1217.25806452 -2.25806451613 1217.25806452 -2.25806451613 1209 6 c 0,54,55
 1059 160 1059 160 929 307 c 128,-1,56
 799 454 799 454 655 616 c 1,57,58
 543 481 543 481 430 360 c 128,-1,59
 317 239 317 239 200 122 c 0,60,61
 185.265306122 107.265306122 185.265306122 107.265306122 170.530612245 107.265306122 c 0,62,-1
 162 108.5 l 0,63,64
 149.551724138 112.103448276 149.551724138 112.103448276 149.551724138 118.497027348 c 0,65,66
 149.551724138 121.862068966 149.551724138 121.862068966 153 126 c 0,67,68
 259 264 259 264 359.5 420.5 c 128,-1,69
 460 577 460 577 561 720 c 1,70,71
 462 842 462 842 371 947.5 c 128,-1,72
 280 1053 280 1053 182 1175 c 1,73,74
 161 906 161 906 145 637 c 128,-1,75
 129 368 129 368 102 101 c 0,9,10
EndSplineSet
Validated: 1
EndChar

StartChar: E
Encoding: 69 69 114
Width: 1670
Flags: W
LayerCount: 2
Fore
SplineSet
90 16 m 0,0,1
 83.6363636364 -2.18181818182 83.6363636364 -2.18181818182 70.2479338843 -2.18181818182 c 0,2,3
 68.9090909091 -2.18181818182 68.9090909091 -2.18181818182 67.5 -2 c 0,4,5
 55.7804878049 -0.487804878049 55.7804878049 -0.487804878049 55.7804878049 18.746579417 c 0,6,7
 55.7804878049 24.9512195122 55.7804878049 24.9512195122 57 33 c 0,8,9
 100 391 100 391 134.5 754.5 c 128,-1,10
 169 1118 169 1118 273 1454 c 0,11,12
 285.1125 1494.6125 285.1125 1494.6125 324.384609375 1494.6125 c 0,13,14
 340.23125 1494.6125 340.23125 1494.6125 360.5 1488 c 0,15,16
 431 1465 431 1465 469 1427 c 0,17,18
 533 1360 533 1360 636 1240 c 128,-1,19
 739 1120 739 1120 811 1027 c 1,20,21
 907 1164 907 1164 1008.5 1279 c 128,-1,22
 1110 1394 1110 1394 1219 1514 c 0,23,24
 1236.1641791 1532.65671642 1236.1641791 1532.65671642 1269.75740699 1532.65671642 c 0,25,26
 1281.17910448 1532.65671642 1281.17910448 1532.65671642 1294.5 1530.5 c 0,27,28
 1347 1522 1347 1522 1371 1506 c 0,29,30
 1439 1455 1439 1455 1455 1349 c 0,31,32
 1498 1021 1498 1021 1535.5 703 c 128,-1,33
 1573 385 1573 385 1590 52 c 0,34,35
 1590.03225806 51.064516129 1590.03225806 51.064516129 1590.03225806 50.150364204 c 0,36,37
 1590.03225806 22.7258064516 1590.03225806 22.7258064516 1561 14.5 c 0,38,39
 1551.37735849 11.7735849057 1551.37735849 11.7735849057 1544.32680669 11.7735849057 c 0,40,41
 1529.39622642 11.7735849057 1529.39622642 11.7735849057 1526 24 c 0,42,43
 1429 337 1429 337 1364 650 c 128,-1,44
 1299 963 1299 963 1249 1272 c 1,45,46
 1157 1173 1157 1173 1056.5 1073 c 128,-1,47
 956 973 956 973 869 898 c 0,48,49
 831 865 831 865 793.25 865 c 128,-1,50
 755.5 865 755.5 865 718 898 c 0,51,52
 623 979 623 979 542 1050.5 c 128,-1,53
 461 1122 461 1122 384 1218 c 1,54,55
 318 909 318 909 250.5 612 c 128,-1,56
 183 315 183 315 90 16 c 0,0,1
EndSplineSet
Validated: 1
EndChar

StartChar: e
Encoding: 101 101 115
Width: 1670
Flags: W
LayerCount: 2
Fore
SplineSet
90 16 m 0,0,1
 83.6363636364 -2.18181818182 83.6363636364 -2.18181818182 70.2479338843 -2.18181818182 c 0,2,3
 68.9090909091 -2.18181818182 68.9090909091 -2.18181818182 67.5 -2 c 0,4,5
 55.7804878049 -0.487804878049 55.7804878049 -0.487804878049 55.7804878049 18.746579417 c 0,6,7
 55.7804878049 24.9512195122 55.7804878049 24.9512195122 57 33 c 0,8,9
 100 391 100 391 134.5 754.5 c 128,-1,10
 169 1118 169 1118 273 1454 c 0,11,12
 285.1125 1494.6125 285.1125 1494.6125 324.384609375 1494.6125 c 0,13,14
 340.23125 1494.6125 340.23125 1494.6125 360.5 1488 c 0,15,16
 431 1465 431 1465 469 1427 c 0,17,18
 533 1360 533 1360 636 1240 c 128,-1,19
 739 1120 739 1120 811 1027 c 1,20,21
 907 1164 907 1164 1008.5 1279 c 128,-1,22
 1110 1394 1110 1394 1219 1514 c 0,23,24
 1236.1641791 1532.65671642 1236.1641791 1532.65671642 1269.75740699 1532.65671642 c 0,25,26
 1281.17910448 1532.65671642 1281.17910448 1532.65671642 1294.5 1530.5 c 0,27,28
 1347 1522 1347 1522 1371 1506 c 0,29,30
 1439 1455 1439 1455 1455 1349 c 0,31,32
 1498 1021 1498 1021 1535.5 703 c 128,-1,33
 1573 385 1573 385 1590 52 c 0,34,35
 1590.03225806 51.064516129 1590.03225806 51.064516129 1590.03225806 50.150364204 c 0,36,37
 1590.03225806 22.7258064516 1590.03225806 22.7258064516 1561 14.5 c 0,38,39
 1551.37735849 11.7735849057 1551.37735849 11.7735849057 1544.32680669 11.7735849057 c 0,40,41
 1529.39622642 11.7735849057 1529.39622642 11.7735849057 1526 24 c 0,42,43
 1429 337 1429 337 1364 650 c 128,-1,44
 1299 963 1299 963 1249 1272 c 1,45,46
 1157 1173 1157 1173 1056.5 1073 c 128,-1,47
 956 973 956 973 869 898 c 0,48,49
 831 865 831 865 793.25 865 c 128,-1,50
 755.5 865 755.5 865 718 898 c 0,51,52
 623 979 623 979 542 1050.5 c 128,-1,53
 461 1122 461 1122 384 1218 c 1,54,55
 318 909 318 909 250.5 612 c 128,-1,56
 183 315 183 315 90 16 c 0,0,1
EndSplineSet
Validated: 1
EndChar

StartChar: F
Encoding: 70 70 116
Width: 1264
Flags: W
LayerCount: 2
Fore
SplineSet
84 40 m 0,0,1
 61 374 61 374 59.5 697 c 128,-1,2
 58 1020 58 1020 52 1357 c 0,3,4
 51.8518518519 1361.14814815 51.8518518519 1361.14814815 51.8518518519 1365.32373114 c 0,5,6
 51.8518518519 1417.51851852 51.8518518519 1417.51851852 75 1474 c 0,7,8
 101.23943662 1541.05633803 101.23943662 1541.05633803 158.645903591 1541.05633803 c 0,9,10
 160.309859155 1541.05633803 160.309859155 1541.05633803 162 1541 c 0,11,12
 222 1539 222 1539 236 1474 c 0,13,14
 249.828571429 1408 249.828571429 1408 249.828571429 1341.0122449 c 0,15,16
 249.828571429 1301.42857143 249.828571429 1301.42857143 245 1261.5 c 0,17,18
 237.318181818 1197.97727273 237.318181818 1197.97727273 237.318181818 1133.23243802 c 0,19,20
 237.318181818 1088.40909091 237.318181818 1088.40909091 241 1043 c 1,21,22
 404 1046 404 1046 483 1184 c 128,-1,23
 562 1322 562 1322 589 1488 c 0,24,25
 597.078740157 1539.16535433 597.078740157 1539.16535433 661.157356315 1539.16535433 c 0,26,27
 668.464566929 1539.16535433 668.464566929 1539.16535433 676.5 1538.5 c 0,28,29
 755 1532 755 1532 755 1465 c 0,30,31
 752 1270 752 1270 632.5 1093.5 c 0,32,33
 520.607427056 928.236074271 520.607427056 928.236074271 268.876147725 928.236074271 c 0,34,35
 251.76127321 928.236074271 251.76127321 928.236074271 234 929 c 1,36,37
 230 871 230 871 226 770.5 c 128,-1,38
 222 670 222 670 216 601 c 1,39,40
 384 631 384 631 494 675 c 128,-1,41
 604 719 604 719 685 804.5 c 128,-1,42
 766 890 766 890 831 1032.5 c 128,-1,43
 896 1175 896 1175 975 1402 c 0,44,45
 1000.87677725 1480.492891 1000.87677725 1480.492891 1078.46214146 1480.492891 c 0,46,47
 1090.82464455 1480.492891 1090.82464455 1480.492891 1104.5 1478.5 c 0,48,49
 1194.09502262 1465.44343891 1194.09502262 1465.44343891 1194.09502262 1374.14326078 c 0,50,51
 1194.09502262 1364.04977376 1194.09502262 1364.04977376 1193 1353 c 0,52,53
 1173 1165 1173 1165 1068.5 1001.5 c 128,-1,54
 964 838 964 838 818.5 720.5 c 128,-1,55
 673 603 673 603 507 542.5 c 0,56,57
 379.063694268 495.872611465 379.063694268 495.872611465 264.788916386 495.872611465 c 0,58,59
 230.789808917 495.872611465 230.789808917 495.872611465 198 500 c 1,60,61
 191 370 191 370 180.5 267.5 c 128,-1,62
 170 165 170 165 151 33 c 0,63,64
 145.789473684 4.34210526316 145.789473684 4.34210526316 122.479224377 4.34210526316 c 0,65,66
 118.947368421 4.34210526316 118.947368421 4.34210526316 115 5 c 0,67,68
 85 10 85 10 84 40 c 0,0,1
EndSplineSet
Validated: 1
EndChar

StartChar: f
Encoding: 102 102 117
Width: 1264
Flags: W
LayerCount: 2
Fore
SplineSet
84 40 m 0,0,1
 61 374 61 374 59.5 697 c 128,-1,2
 58 1020 58 1020 52 1357 c 0,3,4
 51.8518518519 1361.14814815 51.8518518519 1361.14814815 51.8518518519 1365.32373114 c 0,5,6
 51.8518518519 1417.51851852 51.8518518519 1417.51851852 75 1474 c 0,7,8
 101.23943662 1541.05633803 101.23943662 1541.05633803 158.645903591 1541.05633803 c 0,9,10
 160.309859155 1541.05633803 160.309859155 1541.05633803 162 1541 c 0,11,12
 222 1539 222 1539 236 1474 c 0,13,14
 249.828571429 1408 249.828571429 1408 249.828571429 1341.0122449 c 0,15,16
 249.828571429 1301.42857143 249.828571429 1301.42857143 245 1261.5 c 0,17,18
 237.318181818 1197.97727273 237.318181818 1197.97727273 237.318181818 1133.23243802 c 0,19,20
 237.318181818 1088.40909091 237.318181818 1088.40909091 241 1043 c 1,21,22
 404 1046 404 1046 483 1184 c 128,-1,23
 562 1322 562 1322 589 1488 c 0,24,25
 597.078740157 1539.16535433 597.078740157 1539.16535433 661.157356315 1539.16535433 c 0,26,27
 668.464566929 1539.16535433 668.464566929 1539.16535433 676.5 1538.5 c 0,28,29
 755 1532 755 1532 755 1465 c 0,30,31
 752 1270 752 1270 632.5 1093.5 c 0,32,33
 520.607427056 928.236074271 520.607427056 928.236074271 268.876147725 928.236074271 c 0,34,35
 251.76127321 928.236074271 251.76127321 928.236074271 234 929 c 1,36,37
 230 871 230 871 226 770.5 c 128,-1,38
 222 670 222 670 216 601 c 1,39,40
 384 631 384 631 494 675 c 128,-1,41
 604 719 604 719 685 804.5 c 128,-1,42
 766 890 766 890 831 1032.5 c 128,-1,43
 896 1175 896 1175 975 1402 c 0,44,45
 1000.87677725 1480.492891 1000.87677725 1480.492891 1078.46214146 1480.492891 c 0,46,47
 1090.82464455 1480.492891 1090.82464455 1480.492891 1104.5 1478.5 c 0,48,49
 1194.09502262 1465.44343891 1194.09502262 1465.44343891 1194.09502262 1374.14326078 c 0,50,51
 1194.09502262 1364.04977376 1194.09502262 1364.04977376 1193 1353 c 0,52,53
 1173 1165 1173 1165 1068.5 1001.5 c 128,-1,54
 964 838 964 838 818.5 720.5 c 128,-1,55
 673 603 673 603 507 542.5 c 0,56,57
 379.063694268 495.872611465 379.063694268 495.872611465 264.788916386 495.872611465 c 0,58,59
 230.789808917 495.872611465 230.789808917 495.872611465 198 500 c 1,60,61
 191 370 191 370 180.5 267.5 c 128,-1,62
 170 165 170 165 151 33 c 0,63,64
 145.789473684 4.34210526316 145.789473684 4.34210526316 122.479224377 4.34210526316 c 0,65,66
 118.947368421 4.34210526316 118.947368421 4.34210526316 115 5 c 0,67,68
 85 10 85 10 84 40 c 0,0,1
EndSplineSet
Validated: 1
EndChar

StartChar: G
Encoding: 71 71 118
Width: 1118
Flags: W
LayerCount: 2
Fore
SplineSet
116 77 m 0,0,1
 197 255 197 255 279 431.5 c 128,-1,2
 361 608 361 608 448 782 c 1,3,4
 298 1010 298 1010 191 1194 c 128,-1,5
 84 1378 84 1378 71 1432 c 0,6,7
 66.5 1449.1 66.5 1449.1 66.5 1463.815 c 0,8,9
 66.5 1498.15 66.5 1498.15 91 1519.5 c 0,10,11
 107.811023622 1534.1496063 107.811023622 1534.1496063 124.852749705 1534.1496063 c 0,12,13
 143.291338583 1534.1496063 143.291338583 1534.1496063 162 1517 c 0,14,15
 234 1448 234 1448 336 1299.5 c 128,-1,16
 438 1151 438 1151 546 974 c 1,17,18
 609 1094 609 1094 674.5 1213 c 128,-1,19
 740 1332 740 1332 810 1449 c 1,20,21
 843.163636364 1476.92727273 843.163636364 1476.92727273 872.095867769 1476.92727273 c 0,22,23
 892.890909091 1476.92727273 892.890909091 1476.92727273 911.5 1462.5 c 0,24,25
 947.18018018 1434.83783784 947.18018018 1434.83783784 947.18018018 1370.85260937 c 0,26,27
 947.18018018 1355.03603604 947.18018018 1355.03603604 945 1337 c 1,28,29
 872 1204 872 1204 798 1070 c 128,-1,30
 724 936 724 936 647 803 c 1,31,32
 805 530 805 530 926.5 298 c 128,-1,33
 1048 66 1048 66 1057 39 c 0,34,35
 1058.93939394 32.2121212121 1058.93939394 32.2121212121 1058.93939394 26.6877869605 c 0,36,37
 1058.93939394 9.42424242424 1058.93939394 9.42424242424 1040 4.5 c 0,38,39
 1034.29824561 3.01754385965 1034.29824561 3.01754385965 1028.90858726 3.01754385965 c 0,40,41
 1010.66666667 3.01754385965 1010.66666667 3.01754385965 996 20 c 0,42,43
 893 144 893 144 776 305 c 128,-1,44
 659 466 659 466 547 634 c 1,45,46
 454 479 454 479 354.5 329.5 c 128,-1,47
 255 180 255 180 149 39 c 0,48,49
 145.033898305 33.2711864407 145.033898305 33.2711864407 139.708417122 33.2711864407 c 0,50,51
 132.949152542 33.2711864407 132.949152542 33.2711864407 124 42.5 c 0,52,53
 113.333333333 53.5 113.333333333 53.5 113.333333333 65.1666666667 c 0,54,55
 113.333333333 71 113.333333333 71 116 77 c 0,0,1
EndSplineSet
Validated: 1
EndChar

StartChar: g
Encoding: 103 103 119
Width: 1118
Flags: W
LayerCount: 2
Fore
SplineSet
116 77 m 0,0,1
 197 255 197 255 279 431.5 c 128,-1,2
 361 608 361 608 448 782 c 1,3,4
 298 1010 298 1010 191 1194 c 128,-1,5
 84 1378 84 1378 71 1432 c 0,6,7
 66.5 1449.1 66.5 1449.1 66.5 1463.815 c 0,8,9
 66.5 1498.15 66.5 1498.15 91 1519.5 c 0,10,11
 107.811023622 1534.1496063 107.811023622 1534.1496063 124.852749705 1534.1496063 c 0,12,13
 143.291338583 1534.1496063 143.291338583 1534.1496063 162 1517 c 0,14,15
 234 1448 234 1448 336 1299.5 c 128,-1,16
 438 1151 438 1151 546 974 c 1,17,18
 609 1094 609 1094 674.5 1213 c 128,-1,19
 740 1332 740 1332 810 1449 c 1,20,21
 843.163636364 1476.92727273 843.163636364 1476.92727273 872.095867769 1476.92727273 c 0,22,23
 892.890909091 1476.92727273 892.890909091 1476.92727273 911.5 1462.5 c 0,24,25
 947.18018018 1434.83783784 947.18018018 1434.83783784 947.18018018 1370.85260937 c 0,26,27
 947.18018018 1355.03603604 947.18018018 1355.03603604 945 1337 c 1,28,29
 872 1204 872 1204 798 1070 c 128,-1,30
 724 936 724 936 647 803 c 1,31,32
 805 530 805 530 926.5 298 c 128,-1,33
 1048 66 1048 66 1057 39 c 0,34,35
 1058.93939394 32.2121212121 1058.93939394 32.2121212121 1058.93939394 26.6877869605 c 0,36,37
 1058.93939394 9.42424242424 1058.93939394 9.42424242424 1040 4.5 c 0,38,39
 1034.29824561 3.01754385965 1034.29824561 3.01754385965 1028.90858726 3.01754385965 c 0,40,41
 1010.66666667 3.01754385965 1010.66666667 3.01754385965 996 20 c 0,42,43
 893 144 893 144 776 305 c 128,-1,44
 659 466 659 466 547 634 c 1,45,46
 454 479 454 479 354.5 329.5 c 128,-1,47
 255 180 255 180 149 39 c 0,48,49
 145.033898305 33.2711864407 145.033898305 33.2711864407 139.708417122 33.2711864407 c 0,50,51
 132.949152542 33.2711864407 132.949152542 33.2711864407 124 42.5 c 0,52,53
 113.333333333 53.5 113.333333333 53.5 113.333333333 65.1666666667 c 0,54,55
 113.333333333 71 113.333333333 71 116 77 c 0,0,1
EndSplineSet
Validated: 1
EndChar

StartChar: H
Encoding: 72 72 120
Width: 794
Flags: W
LayerCount: 2
Fore
SplineSet
724 910 m 0,0,1
 737 887 737 887 744 870 c 0,2,3
 748 860 748 860 751 855 c 0,4,5
 754.2 845.4 754.2 845.4 754.2 837.72 c 0,6,7
 754.2 835.8 754.2 835.8 754 834 c 0,8,9
 754.642857143 828 754.642857143 828 754.642857143 822.780612245 c 0,10,11
 754.642857143 803.642857143 754.642857143 803.642857143 746 795 c 0,12,13
 618 675 618 675 470.5 575 c 128,-1,14
 323 475 323 475 176 386 c 1,15,16
 167 293 167 293 157.5 200.5 c 128,-1,17
 148 108 148 108 139 15 c 0,18,19
 137 2 137 2 118 1 c 0,20,21
 116.733333333 0.933333333333 116.733333333 0.933333333333 115.551111111 0.933333333333 c 0,22,23
 99 0.933333333333 99 0.933333333333 99 14 c 0,24,25
 69 397 69 397 60.5 746.5 c 0,26,27
 55.5172413793 951.379310345 55.5172413793 951.379310345 55.5172413793 1171.20689655 c 0,28,29
 55.5172413793 1326.37931034 55.5172413793 1326.37931034 58 1489 c 0,30,31
 58 1532.02222222 58 1532.02222222 121.577283951 1532.02222222 c 0,32,33
 123.022222222 1532.02222222 123.022222222 1532.02222222 124.5 1532 c 0,34,35
 191 1531 191 1531 228 1502 c 1,36,37
 228 1502 228 1502 228 1502 c 129,-1,38
 228 1502 228 1502 228 1502 c 1,39,40
 405 1379 405 1379 522.5 1230 c 128,-1,41
 640 1081 640 1081 724 910 c 0,0,1
187 520 m 1,42,43
 272 656 272 656 359.5 753.5 c 128,-1,44
 447 851 447 851 562 946 c 1,45,46
 475 1012 475 1012 394 1082.5 c 128,-1,47
 313 1153 313 1153 236 1232 c 1,48,49
 215 862 215 862 187 520 c 1,42,43
EndSplineSet
Validated: 1
EndChar

StartChar: h
Encoding: 104 104 121
Width: 794
Flags: W
LayerCount: 2
Fore
SplineSet
724 910 m 0,0,1
 737 887 737 887 744 870 c 0,2,3
 748 860 748 860 751 855 c 0,4,5
 754.2 845.4 754.2 845.4 754.2 837.72 c 0,6,7
 754.2 835.8 754.2 835.8 754 834 c 0,8,9
 754.642857143 828 754.642857143 828 754.642857143 822.780612245 c 0,10,11
 754.642857143 803.642857143 754.642857143 803.642857143 746 795 c 0,12,13
 618 675 618 675 470.5 575 c 128,-1,14
 323 475 323 475 176 386 c 1,15,16
 167 293 167 293 157.5 200.5 c 128,-1,17
 148 108 148 108 139 15 c 0,18,19
 137 2 137 2 118 1 c 0,20,21
 116.733333333 0.933333333333 116.733333333 0.933333333333 115.551111111 0.933333333333 c 0,22,23
 99 0.933333333333 99 0.933333333333 99 14 c 0,24,25
 69 397 69 397 60.5 746.5 c 0,26,27
 55.5172413793 951.379310345 55.5172413793 951.379310345 55.5172413793 1171.20689655 c 0,28,29
 55.5172413793 1326.37931034 55.5172413793 1326.37931034 58 1489 c 0,30,31
 58 1532.02222222 58 1532.02222222 121.577283951 1532.02222222 c 0,32,33
 123.022222222 1532.02222222 123.022222222 1532.02222222 124.5 1532 c 0,34,35
 191 1531 191 1531 228 1502 c 1,36,37
 228 1502 228 1502 228 1502 c 129,-1,38
 228 1502 228 1502 228 1502 c 1,39,40
 405 1379 405 1379 522.5 1230 c 128,-1,41
 640 1081 640 1081 724 910 c 0,0,1
187 520 m 1,42,43
 272 656 272 656 359.5 753.5 c 128,-1,44
 447 851 447 851 562 946 c 1,45,46
 475 1012 475 1012 394 1082.5 c 128,-1,47
 313 1153 313 1153 236 1232 c 1,48,49
 215 862 215 862 187 520 c 1,42,43
EndSplineSet
Validated: 1
EndChar

StartChar: i
Encoding: 105 105 122
Width: 298
Flags: W
LayerCount: 2
Fore
SplineSet
88 16 m 0,0,1
 65 384 65 384 59 723.5 c 0,2,3
 56 893.25 56 893.25 56 1077.625 c 128,-1,4
 56 1262 56 1262 59 1461 c 0,5,6
 60 1524 60 1524 172 1534.5 c 0,7,8
 188 1536 188 1536 201.714285714 1536 c 0,9,10
 284 1536 284 1536 284 1482 c 0,11,12
 279 969 279 969 238.5 643 c 128,-1,13
 198 317 198 317 142 22 c 0,14,15
 138.19047619 2.95238095238 138.19047619 2.95238095238 115.333333333 2.95238095238 c 0,16,17
 114.19047619 2.95238095238 114.19047619 2.95238095238 113 3 c 0,18,19
 88 4 88 4 88 16 c 0,0,1
EndSplineSet
Validated: 1
EndChar

StartChar: I
Encoding: 73 73 123
Width: 298
Flags: W
LayerCount: 2
Fore
SplineSet
88 16 m 0,0,1
 65 384 65 384 59 723.5 c 0,2,3
 56 893.25 56 893.25 56 1077.625 c 128,-1,4
 56 1262 56 1262 59 1461 c 0,5,6
 60 1524 60 1524 172 1534.5 c 0,7,8
 188 1536 188 1536 201.714285714 1536 c 0,9,10
 284 1536 284 1536 284 1482 c 0,11,12
 279 969 279 969 238.5 643 c 128,-1,13
 198 317 198 317 142 22 c 0,14,15
 138.19047619 2.95238095238 138.19047619 2.95238095238 115.333333333 2.95238095238 c 0,16,17
 114.19047619 2.95238095238 114.19047619 2.95238095238 113 3 c 0,18,19
 88 4 88 4 88 16 c 0,0,1
EndSplineSet
Validated: 1
EndChar

StartChar: j
Encoding: 106 106 124
Width: 1073
Flags: W
LayerCount: 2
Fore
SplineSet
406 794 m 1,0,1
 408 909 408 909 411 1025 c 128,-1,2
 414 1141 414 1141 420 1260 c 1,3,4
 366 1203 366 1203 311.5 1150.5 c 128,-1,5
 257 1098 257 1098 200 1056 c 1,6,7
 312 931 312 931 406 794 c 1,0,1
544 397 m 1,8,9
 523 312 523 312 506 217 c 128,-1,10
 489 122 489 122 456 17 c 0,11,12
 450.514285714 2.37142857143 450.514285714 2.37142857143 431.653877551 2.37142857143 c 0,13,14
 429.885714286 2.37142857143 429.885714286 2.37142857143 428 2.5 c 0,15,16
 406 4 406 4 406 16 c 0,17,18
 402.875 206.625 402.875 206.625 402.875 381.625 c 0,19,20
 402.875 486.625 402.875 486.625 404 586 c 1,21,22
 237 746 237 746 82 950 c 0,23,24
 57.3048780488 981.280487805 57.3048780488 981.280487805 57.3048780488 1014.06677573 c 0,25,26
 57.3048780488 1041.02439024 57.3048780488 1041.02439024 74 1069 c 1,27,-1
 74 1069.5 l 1,28,-1
 74 1070 l 2,29,30
 77 1075 77 1075 83 1083 c 0,31,32
 121 1137 121 1137 161 1175.5 c 128,-1,33
 201 1214 201 1214 256 1266 c 1,34,35
 283 1351 283 1351 345.5 1417.5 c 128,-1,36
 408 1484 408 1484 474 1511 c 1,37,38
 504.392857143 1529.89285714 504.392857143 1529.89285714 543.557397959 1529.89285714 c 0,39,40
 552.071428571 1529.89285714 552.071428571 1529.89285714 561 1529 c 0,41,42
 611 1524 611 1524 639 1496 c 0,43,44
 738 1407 738 1407 819.5 1294.5 c 128,-1,45
 901 1182 901 1182 979 1053 c 0,46,47
 993 1035 993 1035 1003 1012 c 0,48,49
 1010.84782609 990.934782609 1010.84782609 990.934782609 1010.84782609 972.769848771 c 0,50,51
 1010.84782609 946.956521739 1010.84782609 946.956521739 995 927 c 0,52,53
 900 809 900 809 771 660 c 128,-1,54
 642 511 642 511 544 397 c 1,8,9
877 1044 m 1,55,56
 758 1135 758 1135 658 1254 c 1,57,58
 655 1094 655 1094 640.5 933 c 128,-1,59
 626 772 626 772 584 571 c 1,60,61
 647 691 647 691 724.5 812 c 128,-1,62
 802 933 802 933 877 1044 c 1,55,56
EndSplineSet
Validated: 1
EndChar

StartChar: J
Encoding: 74 74 125
Width: 1073
Flags: W
LayerCount: 2
Fore
SplineSet
406 794 m 1,0,1
 408 909 408 909 411 1025 c 128,-1,2
 414 1141 414 1141 420 1260 c 1,3,4
 366 1203 366 1203 311.5 1150.5 c 128,-1,5
 257 1098 257 1098 200 1056 c 1,6,7
 312 931 312 931 406 794 c 1,0,1
544 397 m 1,8,9
 523 312 523 312 506 217 c 128,-1,10
 489 122 489 122 456 17 c 0,11,12
 450.514285714 2.37142857143 450.514285714 2.37142857143 431.653877551 2.37142857143 c 0,13,14
 429.885714286 2.37142857143 429.885714286 2.37142857143 428 2.5 c 0,15,16
 406 4 406 4 406 16 c 0,17,18
 402.875 206.625 402.875 206.625 402.875 381.625 c 0,19,20
 402.875 486.625 402.875 486.625 404 586 c 1,21,22
 237 746 237 746 82 950 c 0,23,24
 57.3048780488 981.280487805 57.3048780488 981.280487805 57.3048780488 1014.06677573 c 0,25,26
 57.3048780488 1041.02439024 57.3048780488 1041.02439024 74 1069 c 1,27,-1
 74 1069.5 l 1,28,-1
 74 1070 l 2,29,30
 77 1075 77 1075 83 1083 c 0,31,32
 121 1137 121 1137 161 1175.5 c 128,-1,33
 201 1214 201 1214 256 1266 c 1,34,35
 283 1351 283 1351 345.5 1417.5 c 128,-1,36
 408 1484 408 1484 474 1511 c 1,37,38
 504.392857143 1529.89285714 504.392857143 1529.89285714 543.557397959 1529.89285714 c 0,39,40
 552.071428571 1529.89285714 552.071428571 1529.89285714 561 1529 c 0,41,42
 611 1524 611 1524 639 1496 c 0,43,44
 738 1407 738 1407 819.5 1294.5 c 128,-1,45
 901 1182 901 1182 979 1053 c 0,46,47
 993 1035 993 1035 1003 1012 c 0,48,49
 1010.84782609 990.934782609 1010.84782609 990.934782609 1010.84782609 972.769848771 c 0,50,51
 1010.84782609 946.956521739 1010.84782609 946.956521739 995 927 c 0,52,53
 900 809 900 809 771 660 c 128,-1,54
 642 511 642 511 544 397 c 1,8,9
877 1044 m 1,55,56
 758 1135 758 1135 658 1254 c 1,57,58
 655 1094 655 1094 640.5 933 c 128,-1,59
 626 772 626 772 584 571 c 1,60,61
 647 691 647 691 724.5 812 c 128,-1,62
 802 933 802 933 877 1044 c 1,55,56
EndSplineSet
Validated: 1
EndChar

StartChar: K
Encoding: 75 75 126
Width: 903
Flags: W
LayerCount: 2
Fore
SplineSet
53 37 m 0,0,1
 74 397 74 397 121 742.5 c 128,-1,2
 168 1088 168 1088 254 1486 c 0,3,4
 263.74025974 1534.7012987 263.74025974 1534.7012987 309.110473942 1534.7012987 c 0,5,6
 333.61038961 1534.7012987 333.61038961 1534.7012987 368.5 1520.5 c 0,7,8
 454.965065502 1485.30567686 454.965065502 1485.30567686 454.965065502 1420.282794 c 0,9,10
 454.965065502 1410.48034934 454.965065502 1410.48034934 453 1400 c 0,11,12
 429 1271 429 1271 397 1128 c 128,-1,13
 365 985 365 985 329 842 c 1,14,15
 443 812 443 812 541.5 715 c 128,-1,16
 640 618 640 618 711.5 495 c 128,-1,17
 783 372 783 372 821.5 243 c 0,18,19
 854.808988764 131.393258427 854.808988764 131.393258427 854.808988764 45.2360813029 c 0,20,21
 854.808988764 31.808988764 854.808988764 31.808988764 854 19 c 0,22,23
 853 3 853 3 827 1.5 c 0,24,25
 824.636363636 1.36363636364 824.636363636 1.36363636364 822.462809917 1.36363636364 c 0,26,27
 800.727272727 1.36363636364 800.727272727 1.36363636364 798 15 c 0,28,29
 718 323 718 323 567.5 458 c 0,30,31
 427.379310345 583.689655172 427.379310345 583.689655172 284.224732461 583.689655172 c 0,32,33
 273.620689655 583.689655172 273.620689655 583.689655172 263 583 c 1,34,35
 213 396 213 396 170 245 c 128,-1,36
 127 94 127 94 106 18 c 0,37,38
 102.072727273 6.21818181818 102.072727273 6.21818181818 90.2195041322 6.21818181818 c 0,39,40
 83.9636363636 6.21818181818 83.9636363636 6.21818181818 75.5 9.5 c 0,41,42
 52.8490566038 18.2830188679 52.8490566038 18.2830188679 52.8490566038 34.3314346743 c 0,43,44
 52.8490566038 35.641509434 52.8490566038 35.641509434 53 37 c 0,0,1
EndSplineSet
Validated: 1
EndChar

StartChar: k
Encoding: 107 107 127
Width: 903
Flags: W
LayerCount: 2
Fore
SplineSet
53 37 m 0,0,1
 74 397 74 397 121 742.5 c 128,-1,2
 168 1088 168 1088 254 1486 c 0,3,4
 263.74025974 1534.7012987 263.74025974 1534.7012987 309.110473942 1534.7012987 c 0,5,6
 333.61038961 1534.7012987 333.61038961 1534.7012987 368.5 1520.5 c 0,7,8
 454.965065502 1485.30567686 454.965065502 1485.30567686 454.965065502 1420.282794 c 0,9,10
 454.965065502 1410.48034934 454.965065502 1410.48034934 453 1400 c 0,11,12
 429 1271 429 1271 397 1128 c 128,-1,13
 365 985 365 985 329 842 c 1,14,15
 443 812 443 812 541.5 715 c 128,-1,16
 640 618 640 618 711.5 495 c 128,-1,17
 783 372 783 372 821.5 243 c 0,18,19
 854.808988764 131.393258427 854.808988764 131.393258427 854.808988764 45.2360813029 c 0,20,21
 854.808988764 31.808988764 854.808988764 31.808988764 854 19 c 0,22,23
 853 3 853 3 827 1.5 c 0,24,25
 824.636363636 1.36363636364 824.636363636 1.36363636364 822.462809917 1.36363636364 c 0,26,27
 800.727272727 1.36363636364 800.727272727 1.36363636364 798 15 c 0,28,29
 718 323 718 323 567.5 458 c 0,30,31
 427.379310345 583.689655172 427.379310345 583.689655172 284.224732461 583.689655172 c 0,32,33
 273.620689655 583.689655172 273.620689655 583.689655172 263 583 c 1,34,35
 213 396 213 396 170 245 c 128,-1,36
 127 94 127 94 106 18 c 0,37,38
 102.072727273 6.21818181818 102.072727273 6.21818181818 90.2195041322 6.21818181818 c 0,39,40
 83.9636363636 6.21818181818 83.9636363636 6.21818181818 75.5 9.5 c 0,41,42
 52.8490566038 18.2830188679 52.8490566038 18.2830188679 52.8490566038 34.3314346743 c 0,43,44
 52.8490566038 35.641509434 52.8490566038 35.641509434 53 37 c 0,0,1
EndSplineSet
Validated: 1
EndChar

StartChar: L
Encoding: 76 76 128
Width: 731
Flags: W
LayerCount: 2
Fore
SplineSet
86 73 m 0,0,1
 75 418 75 418 67 763 c 128,-1,2
 59 1108 59 1108 53 1456 c 0,3,4
 52.9572192513 1457.4973262 52.9572192513 1457.4973262 52.9572192513 1458.96719952 c 0,5,6
 52.9572192513 1526.21390374 52.9572192513 1526.21390374 142.5 1536 c 0,7,8
 155.571428571 1537.42857143 155.571428571 1537.42857143 167.571428571 1537.42857143 c 0,9,10
 239.571428571 1537.42857143 239.571428571 1537.42857143 273 1486 c 1,11,12
 399 1357 399 1357 491.5 1217 c 128,-1,13
 584 1077 584 1077 681 945 c 0,14,15
 687.918918919 935.054054054 687.918918919 935.054054054 687.918918919 926.043097151 c 0,16,17
 687.918918919 914.216216216 687.918918919 914.216216216 676 904 c 0,18,19
 664.545454545 894.181818182 664.545454545 894.181818182 652.495867769 894.181818182 c 0,20,21
 642.454545455 894.181818182 642.454545455 894.181818182 632 901 c 0,22,23
 544 954 544 954 452 1029 c 128,-1,24
 360 1104 360 1104 276 1186 c 1,25,26
 261 898 261 898 239.5 605 c 128,-1,27
 218 312 218 312 197 22 c 0,28,29
 195.727272727 4.18181818182 195.727272727 4.18181818182 173.396694215 4.18181818182 c 0,30,31
 160.636363636 4.18181818182 160.636363636 4.18181818182 141 10 c 0,32,33
 87 26 87 26 86 73 c 0,0,1
EndSplineSet
Validated: 1
EndChar

StartChar: l
Encoding: 108 108 129
Width: 731
Flags: W
LayerCount: 2
Fore
SplineSet
86 73 m 0,0,1
 75 418 75 418 67 763 c 128,-1,2
 59 1108 59 1108 53 1456 c 0,3,4
 52.9572192513 1457.4973262 52.9572192513 1457.4973262 52.9572192513 1458.96719952 c 0,5,6
 52.9572192513 1526.21390374 52.9572192513 1526.21390374 142.5 1536 c 0,7,8
 155.571428571 1537.42857143 155.571428571 1537.42857143 167.571428571 1537.42857143 c 0,9,10
 239.571428571 1537.42857143 239.571428571 1537.42857143 273 1486 c 1,11,12
 399 1357 399 1357 491.5 1217 c 128,-1,13
 584 1077 584 1077 681 945 c 0,14,15
 687.918918919 935.054054054 687.918918919 935.054054054 687.918918919 926.043097151 c 0,16,17
 687.918918919 914.216216216 687.918918919 914.216216216 676 904 c 0,18,19
 664.545454545 894.181818182 664.545454545 894.181818182 652.495867769 894.181818182 c 0,20,21
 642.454545455 894.181818182 642.454545455 894.181818182 632 901 c 0,22,23
 544 954 544 954 452 1029 c 128,-1,24
 360 1104 360 1104 276 1186 c 1,25,26
 261 898 261 898 239.5 605 c 128,-1,27
 218 312 218 312 197 22 c 0,28,29
 195.727272727 4.18181818182 195.727272727 4.18181818182 173.396694215 4.18181818182 c 0,30,31
 160.636363636 4.18181818182 160.636363636 4.18181818182 141 10 c 0,32,33
 87 26 87 26 86 73 c 0,0,1
EndSplineSet
Validated: 1
EndChar

StartChar: M
Encoding: 77 77 130
Width: 1877
Flags: W
LayerCount: 2
Fore
SplineSet
1333 1509 m 0,0,1
 1353 1523 1353 1523 1376 1525 c 1,2,3
 1398.25641026 1532.53846154 1398.25641026 1532.53846154 1424.765286 1532.53846154 c 0,4,5
 1472.1025641 1532.53846154 1472.1025641 1532.53846154 1533 1508.5 c 0,6,7
 1628 1471 1628 1471 1637 1388 c 0,8,9
 1670 1046 1670 1046 1704.5 745.5 c 128,-1,10
 1739 445 1739 445 1780 104 c 0,11,12
 1781.36170213 91.5744680851 1781.36170213 91.5744680851 1781.36170213 80.5396106836 c 0,13,14
 1781.36170213 26.7446808511 1781.36170213 26.7446808511 1749 6 c 0,15,16
 1736.65822785 -1.91139240506 1736.65822785 -1.91139240506 1726.9202051 -1.91139240506 c 0,17,18
 1705.88607595 -1.91139240506 1705.88607595 -1.91139240506 1697 35 c 0,19,20
 1659 189 1659 189 1620.5 336 c 128,-1,21
 1582 483 1582 483 1544 627 c 1,22,23
 1369 703 1369 703 1207 782 c 128,-1,24
 1045 861 1045 861 876 960 c 1,25,26
 723 877 723 877 568.5 798 c 128,-1,27
 414 719 414 719 256 645 c 1,28,29
 220 494 220 494 184 344 c 128,-1,30
 148 194 148 194 112 46 c 0,31,32
 109 34.75 109 34.75 92.21875 34.75 c 0,33,34
 86.625 34.75 86.625 34.75 79.5 36 c 0,35,36
 52.868852459 40.6721311475 52.868852459 40.6721311475 52.868852459 54.9489384574 c 0,37,38
 52.868852459 55.9508196721 52.868852459 55.9508196721 53 57 c 0,39,40
 88 413 88 413 132.5 742 c 128,-1,41
 177 1071 177 1071 213 1428 c 0,42,43
 218 1487 218 1487 276 1503 c 0,44,45
 303.294117647 1510.52941176 303.294117647 1510.52941176 329.038062284 1510.52941176 c 0,46,47
 358 1510.52941176 358 1510.52941176 385 1501 c 0,48,49
 395 1498 395 1498 409 1492 c 0,50,51
 672 1358 672 1358 900 1211 c 1,52,53
 1107 1358 1107 1358 1333 1509 c 0,0,1
699 1067 m 1,54,55
 567 1148 567 1148 408 1260 c 1,56,57
 375 1134 375 1134 344 1008 c 128,-1,58
 313 882 313 882 283 756 c 1,59,60
 484 910 484 910 699 1067 c 1,54,55
1095 1078 m 1,61,62
 1304 929 1304 929 1512 748 c 1,63,64
 1479 868 1479 868 1447 990 c 128,-1,65
 1415 1112 1415 1112 1385 1238 c 1,66,67
 1235 1154 1235 1154 1095 1078 c 1,61,62
EndSplineSet
Validated: 1
EndChar

StartChar: m
Encoding: 109 109 131
Width: 1877
Flags: W
LayerCount: 2
Fore
SplineSet
1333 1509 m 0,0,1
 1353 1523 1353 1523 1376 1525 c 1,2,3
 1398.25641026 1532.53846154 1398.25641026 1532.53846154 1424.765286 1532.53846154 c 0,4,5
 1472.1025641 1532.53846154 1472.1025641 1532.53846154 1533 1508.5 c 0,6,7
 1628 1471 1628 1471 1637 1388 c 0,8,9
 1670 1046 1670 1046 1704.5 745.5 c 128,-1,10
 1739 445 1739 445 1780 104 c 0,11,12
 1781.36170213 91.5744680851 1781.36170213 91.5744680851 1781.36170213 80.5396106836 c 0,13,14
 1781.36170213 26.7446808511 1781.36170213 26.7446808511 1749 6 c 0,15,16
 1736.65822785 -1.91139240506 1736.65822785 -1.91139240506 1726.9202051 -1.91139240506 c 0,17,18
 1705.88607595 -1.91139240506 1705.88607595 -1.91139240506 1697 35 c 0,19,20
 1659 189 1659 189 1620.5 336 c 128,-1,21
 1582 483 1582 483 1544 627 c 1,22,23
 1369 703 1369 703 1207 782 c 128,-1,24
 1045 861 1045 861 876 960 c 1,25,26
 723 877 723 877 568.5 798 c 128,-1,27
 414 719 414 719 256 645 c 1,28,29
 220 494 220 494 184 344 c 128,-1,30
 148 194 148 194 112 46 c 0,31,32
 109 34.75 109 34.75 92.21875 34.75 c 0,33,34
 86.625 34.75 86.625 34.75 79.5 36 c 0,35,36
 52.868852459 40.6721311475 52.868852459 40.6721311475 52.868852459 54.9489384574 c 0,37,38
 52.868852459 55.9508196721 52.868852459 55.9508196721 53 57 c 0,39,40
 88 413 88 413 132.5 742 c 128,-1,41
 177 1071 177 1071 213 1428 c 0,42,43
 218 1487 218 1487 276 1503 c 0,44,45
 303.294117647 1510.52941176 303.294117647 1510.52941176 329.038062284 1510.52941176 c 0,46,47
 358 1510.52941176 358 1510.52941176 385 1501 c 0,48,49
 395 1498 395 1498 409 1492 c 0,50,51
 672 1358 672 1358 900 1211 c 1,52,53
 1107 1358 1107 1358 1333 1509 c 0,0,1
699 1067 m 1,54,55
 567 1148 567 1148 408 1260 c 1,56,57
 375 1134 375 1134 344 1008 c 128,-1,58
 313 882 313 882 283 756 c 1,59,60
 484 910 484 910 699 1067 c 1,54,55
1095 1078 m 1,61,62
 1304 929 1304 929 1512 748 c 1,63,64
 1479 868 1479 868 1447 990 c 128,-1,65
 1415 1112 1415 1112 1385 1238 c 1,66,67
 1235 1154 1235 1154 1095 1078 c 1,61,62
EndSplineSet
Validated: 1
EndChar

StartChar: N
Encoding: 78 78 132
Width: 1008
Flags: W
LayerCount: 2
Fore
SplineSet
91 856 m 0,0,1
 54.5497382199 881.947643979 54.5497382199 881.947643979 54.5497382199 918.009758504 c 0,2,3
 54.5497382199 940.319371728 54.5497382199 940.319371728 68.5 966.5 c 0,4,5
 95.5297297297 1017.22702703 95.5297297297 1017.22702703 135.995266618 1017.22702703 c 0,6,7
 150.172972973 1017.22702703 150.172972973 1017.22702703 166 1011 c 0,8,9
 262 972 262 972 366 911 c 1,10,11
 360 1037 360 1037 355 1164 c 128,-1,12
 350 1291 350 1291 345 1420 c 0,13,14
 344.857142857 1423.21428571 344.857142857 1423.21428571 344.857142857 1426.34375 c 0,15,16
 344.857142857 1510.83928571 344.857142857 1510.83928571 449 1533.5 c 0,17,18
 471.36123348 1538.36563877 471.36123348 1538.36563877 489.221215238 1538.36563877 c 0,19,20
 557.621145374 1538.36563877 557.621145374 1538.36563877 560 1467 c 0,21,22
 565 1293 565 1293 565.5 1119.5 c 0,23,24
 565.538461538 1106.15384615 565.538461538 1106.15384615 565.538461538 1092.83431953 c 0,25,26
 565.538461538 933 565.538461538 933 560 777 c 1,27,28
 664 693 664 693 764 601 c 128,-1,29
 864 509 864 509 949 410 c 0,30,31
 953.84 404.28 953.84 404.28 953.84 398.076 c 0,32,33
 953.84 390.18 953.84 390.18 946 381.5 c 0,34,35
 935.906976744 370.325581395 935.906976744 370.325581395 925.294213088 370.325581395 c 0,36,37
 921.186046512 370.325581395 921.186046512 370.325581395 917 372 c 0,38,39
 821 413 821 413 729 462 c 128,-1,40
 637 511 637 511 548 561 c 1,41,42
 525 266 525 266 476 30 c 0,43,44
 471 7 471 7 447 4.5 c 0,45,46
 444.333333333 4.22222222222 444.333333333 4.22222222222 441.938271605 4.22222222222 c 0,47,48
 422.777777778 4.22222222222 422.777777778 4.22222222222 421 22 c 0,49,50
 406 180 406 180 396 339.5 c 128,-1,51
 386 499 386 499 378 661 c 1,52,53
 229 754 229 754 91 856 c 0,0,1
EndSplineSet
Validated: 1
EndChar

StartChar: n
Encoding: 110 110 133
Width: 1008
Flags: W
LayerCount: 2
Fore
SplineSet
91 856 m 0,0,1
 54.5497382199 881.947643979 54.5497382199 881.947643979 54.5497382199 918.009758504 c 0,2,3
 54.5497382199 940.319371728 54.5497382199 940.319371728 68.5 966.5 c 0,4,5
 95.5297297297 1017.22702703 95.5297297297 1017.22702703 135.995266618 1017.22702703 c 0,6,7
 150.172972973 1017.22702703 150.172972973 1017.22702703 166 1011 c 0,8,9
 262 972 262 972 366 911 c 1,10,11
 360 1037 360 1037 355 1164 c 128,-1,12
 350 1291 350 1291 345 1420 c 0,13,14
 344.857142857 1423.21428571 344.857142857 1423.21428571 344.857142857 1426.34375 c 0,15,16
 344.857142857 1510.83928571 344.857142857 1510.83928571 449 1533.5 c 0,17,18
 471.36123348 1538.36563877 471.36123348 1538.36563877 489.221215238 1538.36563877 c 0,19,20
 557.621145374 1538.36563877 557.621145374 1538.36563877 560 1467 c 0,21,22
 565 1293 565 1293 565.5 1119.5 c 0,23,24
 565.538461538 1106.15384615 565.538461538 1106.15384615 565.538461538 1092.83431953 c 0,25,26
 565.538461538 933 565.538461538 933 560 777 c 1,27,28
 664 693 664 693 764 601 c 128,-1,29
 864 509 864 509 949 410 c 0,30,31
 953.84 404.28 953.84 404.28 953.84 398.076 c 0,32,33
 953.84 390.18 953.84 390.18 946 381.5 c 0,34,35
 935.906976744 370.325581395 935.906976744 370.325581395 925.294213088 370.325581395 c 0,36,37
 921.186046512 370.325581395 921.186046512 370.325581395 917 372 c 0,38,39
 821 413 821 413 729 462 c 128,-1,40
 637 511 637 511 548 561 c 1,41,42
 525 266 525 266 476 30 c 0,43,44
 471 7 471 7 447 4.5 c 0,45,46
 444.333333333 4.22222222222 444.333333333 4.22222222222 441.938271605 4.22222222222 c 0,47,48
 422.777777778 4.22222222222 422.777777778 4.22222222222 421 22 c 0,49,50
 406 180 406 180 396 339.5 c 128,-1,51
 386 499 386 499 378 661 c 1,52,53
 229 754 229 754 91 856 c 0,0,1
EndSplineSet
Validated: 1
EndChar

StartChar: O
Encoding: 79 79 134
Width: 1393
Flags: W
LayerCount: 2
Fore
SplineSet
1126 1495 m 1,0,1
 1146.67510549 1515.26160338 1146.67510549 1515.26160338 1170.51341487 1515.26160338 c 0,2,3
 1204.32489451 1515.26160338 1204.32489451 1515.26160338 1244.5 1474.5 c 0,4,5
 1282.18875502 1436.26104418 1282.18875502 1436.26104418 1282.18875502 1405.43875099 c 0,6,7
 1282.18875502 1380.24096386 1282.18875502 1380.24096386 1257 1360 c 0,8,9
 1125 1261 1125 1261 1043.5 1205 c 128,-1,10
 962 1149 962 1149 831 1072 c 0,11,12
 823 1066 823 1066 820 1066 c 0,13,14
 811 1061 811 1061 803 1056 c 128,-1,15
 795 1051 795 1051 786 1046 c 0,16,17
 775.266666667 1039.46666667 775.266666667 1039.46666667 765.077777778 1039.46666667 c 0,18,19
 753.433333333 1039.46666667 753.433333333 1039.46666667 742.5 1048 c 0,20,21
 728.254237288 1059.11864407 728.254237288 1059.11864407 728.254237288 1074.10054582 c 0,22,23
 728.254237288 1080.6779661 728.254237288 1080.6779661 731 1088 c 1,24,25
 618 1127 618 1127 519.5 1174.5 c 128,-1,26
 421 1222 421 1222 328 1288 c 1,27,28
 330.25 1166.5 330.25 1166.5 330.25 1063.5625 c 0,29,30
 330.25 1029.25 330.25 1029.25 330 997 c 1,31,32
 468 909 468 909 586 796.5 c 128,-1,33
 704 684 704 684 820 558 c 1,34,35
 908 659 908 659 989.5 735 c 128,-1,36
 1071 811 1071 811 1175 902 c 0,37,38
 1194.48514851 918.643564356 1194.48514851 918.643564356 1214.62944809 918.643564356 c 0,39,40
 1244.10891089 918.643564356 1244.10891089 918.643564356 1275 883 c 0,41,42
 1304.07526882 849.451612903 1304.07526882 849.451612903 1304.07526882 823.093883686 c 0,43,44
 1304.07526882 802.311827957 1304.07526882 802.311827957 1286 786 c 0,45,46
 1172 681 1172 681 1065.5 612 c 128,-1,47
 959 543 959 543 830 465 c 0,48,49
 815.575757576 456.242424242 815.575757576 456.242424242 803.27456382 456.242424242 c 0,50,51
 791.696969697 456.242424242 791.696969697 456.242424242 782 464 c 0,52,53
 769.5 474 769.5 474 769.5 486.34375 c 0,54,55
 769.5 493.75 769.5 493.75 774 502 c 1,56,57
 652 556 652 556 541 611.5 c 128,-1,58
 430 667 430 667 324 740 c 1,59,60
 318 561 318 561 307 382.5 c 128,-1,61
 296 204 296 204 284 26 c 0,62,63
 281.52 0.373333333333 281.52 0.373333333333 253.413333333 0.373333333333 c 0,64,65
 247.52 0.373333333333 247.52 0.373333333333 240.5 1.5 c 0,66,67
 200 8 200 8 197 38 c 0,68,69
 152 387 152 387 116 726.5 c 128,-1,70
 80 1066 80 1066 58 1415 c 0,71,72
 57.6288659794 1419.7628866 57.6288659794 1419.7628866 57.6288659794 1424.32872781 c 0,73,74
 57.6288659794 1493.57731959 57.6288659794 1493.57731959 143 1517.5 c 0,75,76
 188.058252427 1530.12621359 188.058252427 1530.12621359 224.045244604 1530.12621359 c 0,77,78
 260.737864078 1530.12621359 260.737864078 1530.12621359 288 1517 c 1,79,80
 288 1517 288 1517 288 1517 c 129,-1,81
 288 1517 288 1517 288 1517 c 1,82,83
 453 1437 453 1437 564.5 1349.5 c 128,-1,84
 676 1262 676 1262 784 1155 c 1,85,86
 876 1263 876 1263 944 1329.5 c 128,-1,87
 1012 1396 1012 1396 1126 1495 c 1,0,1
EndSplineSet
Validated: 1
EndChar

StartChar: o
Encoding: 111 111 135
Width: 1393
Flags: W
LayerCount: 2
Fore
SplineSet
1126 1495 m 1,0,1
 1146.67510549 1515.26160338 1146.67510549 1515.26160338 1170.51341487 1515.26160338 c 0,2,3
 1204.32489451 1515.26160338 1204.32489451 1515.26160338 1244.5 1474.5 c 0,4,5
 1282.18875502 1436.26104418 1282.18875502 1436.26104418 1282.18875502 1405.43875099 c 0,6,7
 1282.18875502 1380.24096386 1282.18875502 1380.24096386 1257 1360 c 0,8,9
 1125 1261 1125 1261 1043.5 1205 c 128,-1,10
 962 1149 962 1149 831 1072 c 0,11,12
 823 1066 823 1066 820 1066 c 0,13,14
 811 1061 811 1061 803 1056 c 128,-1,15
 795 1051 795 1051 786 1046 c 0,16,17
 775.266666667 1039.46666667 775.266666667 1039.46666667 765.077777778 1039.46666667 c 0,18,19
 753.433333333 1039.46666667 753.433333333 1039.46666667 742.5 1048 c 0,20,21
 728.254237288 1059.11864407 728.254237288 1059.11864407 728.254237288 1074.10054582 c 0,22,23
 728.254237288 1080.6779661 728.254237288 1080.6779661 731 1088 c 1,24,25
 618 1127 618 1127 519.5 1174.5 c 128,-1,26
 421 1222 421 1222 328 1288 c 1,27,28
 330.25 1166.5 330.25 1166.5 330.25 1063.5625 c 0,29,30
 330.25 1029.25 330.25 1029.25 330 997 c 1,31,32
 468 909 468 909 586 796.5 c 128,-1,33
 704 684 704 684 820 558 c 1,34,35
 908 659 908 659 989.5 735 c 128,-1,36
 1071 811 1071 811 1175 902 c 0,37,38
 1194.48514851 918.643564356 1194.48514851 918.643564356 1214.62944809 918.643564356 c 0,39,40
 1244.10891089 918.643564356 1244.10891089 918.643564356 1275 883 c 0,41,42
 1304.07526882 849.451612903 1304.07526882 849.451612903 1304.07526882 823.093883686 c 0,43,44
 1304.07526882 802.311827957 1304.07526882 802.311827957 1286 786 c 0,45,46
 1172 681 1172 681 1065.5 612 c 128,-1,47
 959 543 959 543 830 465 c 0,48,49
 815.575757576 456.242424242 815.575757576 456.242424242 803.27456382 456.242424242 c 0,50,51
 791.696969697 456.242424242 791.696969697 456.242424242 782 464 c 0,52,53
 769.5 474 769.5 474 769.5 486.34375 c 0,54,55
 769.5 493.75 769.5 493.75 774 502 c 1,56,57
 652 556 652 556 541 611.5 c 128,-1,58
 430 667 430 667 324 740 c 1,59,60
 318 561 318 561 307 382.5 c 128,-1,61
 296 204 296 204 284 26 c 0,62,63
 281.52 0.373333333333 281.52 0.373333333333 253.413333333 0.373333333333 c 0,64,65
 247.52 0.373333333333 247.52 0.373333333333 240.5 1.5 c 0,66,67
 200 8 200 8 197 38 c 0,68,69
 152 387 152 387 116 726.5 c 128,-1,70
 80 1066 80 1066 58 1415 c 0,71,72
 57.6288659794 1419.7628866 57.6288659794 1419.7628866 57.6288659794 1424.32872781 c 0,73,74
 57.6288659794 1493.57731959 57.6288659794 1493.57731959 143 1517.5 c 0,75,76
 188.058252427 1530.12621359 188.058252427 1530.12621359 224.045244604 1530.12621359 c 0,77,78
 260.737864078 1530.12621359 260.737864078 1530.12621359 288 1517 c 1,79,80
 288 1517 288 1517 288 1517 c 129,-1,81
 288 1517 288 1517 288 1517 c 1,82,83
 453 1437 453 1437 564.5 1349.5 c 128,-1,84
 676 1262 676 1262 784 1155 c 1,85,86
 876 1263 876 1263 944 1329.5 c 128,-1,87
 1012 1396 1012 1396 1126 1495 c 1,0,1
EndSplineSet
Validated: 1
EndChar

StartChar: P
Encoding: 80 80 136
Width: 1080
Flags: W
LayerCount: 2
Fore
SplineSet
266 668 m 1,0,1
 351 659 351 659 468.5 621 c 128,-1,2
 586 583 586 583 697 518.5 c 128,-1,3
 808 454 808 454 893.5 362.5 c 128,-1,4
 979 271 979 271 1000 155 c 0,5,6
 1003.74025974 132.246753247 1003.74025974 132.246753247 1003.74025974 111.193624557 c 0,7,8
 1003.74025974 64.7012987013 1003.74025974 64.7012987013 985.5 26.5 c 0,9,10
 972.766233766 -0.168831168831 972.766233766 -0.168831168831 961.995108787 -0.168831168831 c 0,11,12
 950.350649351 -0.168831168831 950.350649351 -0.168831168831 941 31 c 0,13,14
 908 142 908 142 683.5 286 c 128,-1,15
 459 430 459 430 259 446 c 1,16,17
 256 344 256 344 253 240 c 128,-1,18
 250 136 250 136 248 31 c 0,19,20
 247.328358209 0.776119402985 247.328358209 0.776119402985 216.432835821 0.776119402985 c 0,21,22
 201.328358209 0.776119402985 201.328358209 0.776119402985 179 8 c 0,23,24
 111 30 111 30 105 98 c 0,25,26
 88 260 88 260 75.5 460 c 128,-1,27
 63 660 63 660 58.5 854.5 c 0,28,29
 56.6590909091 934.068181818 56.6590909091 934.068181818 56.6590909091 1009.36880165 c 0,30,31
 56.6590909091 1118.13636364 56.6590909091 1118.13636364 60.5 1218 c 0,32,33
 67 1387 67 1387 89 1489 c 0,34,35
 98.6860986547 1535.49327354 98.6860986547 1535.49327354 137.769289549 1535.49327354 c 0,36,37
 159.210762332 1535.49327354 159.210762332 1535.49327354 189.5 1521.5 c 0,38,39
 275 1482 275 1482 276 1398 c 0,40,41
 277 1267 277 1267 278.5 1155.5 c 0,42,43
 279 1118.33333333 279 1118.33333333 279 1079.55555556 c 0,44,45
 279 1002 279 1002 277 918 c 1,46,47
 293.888888889 916.08994709 293.888888889 916.08994709 310.570602727 916.08994709 c 0,48,49
 459.828042328 916.08994709 459.828042328 916.08994709 592.5 1069 c 0,50,51
 740 1239 740 1239 839 1441 c 0,52,53
 883.200772201 1531.06949807 883.200772201 1531.06949807 930.53137252 1531.06949807 c 0,54,55
 939.953667954 1531.06949807 939.953667954 1531.06949807 949.5 1527.5 c 0,56,57
 1007 1506 1007 1506 1015 1445 c 0,58,59
 1017.49681529 1423.06369427 1017.49681529 1423.06369427 1017.49681529 1401.11148525 c 0,60,61
 1017.49681529 1299.97452229 1017.49681529 1299.97452229 964.5 1198.5 c 0,62,63
 900 1075 900 1075 790 974.5 c 128,-1,64
 680 874 680 874 539.5 809 c 128,-1,65
 399 744 399 744 262 741 c 1,66,67
 261.714285714 733.857142857 261.714285714 733.857142857 261.714285714 727.775510204 c 0,68,69
 261.714285714 712.571428571 261.714285714 712.571428571 263.5 704 c 0,70,71
 266 692 266 692 266 668 c 1,0,1
EndSplineSet
Validated: 1
EndChar

StartChar: p
Encoding: 112 112 137
Width: 1080
Flags: W
LayerCount: 2
Fore
SplineSet
266 668 m 1,0,1
 351 659 351 659 468.5 621 c 128,-1,2
 586 583 586 583 697 518.5 c 128,-1,3
 808 454 808 454 893.5 362.5 c 128,-1,4
 979 271 979 271 1000 155 c 0,5,6
 1003.74025974 132.246753247 1003.74025974 132.246753247 1003.74025974 111.193624557 c 0,7,8
 1003.74025974 64.7012987013 1003.74025974 64.7012987013 985.5 26.5 c 0,9,10
 972.766233766 -0.168831168831 972.766233766 -0.168831168831 961.995108787 -0.168831168831 c 0,11,12
 950.350649351 -0.168831168831 950.350649351 -0.168831168831 941 31 c 0,13,14
 908 142 908 142 683.5 286 c 128,-1,15
 459 430 459 430 259 446 c 1,16,17
 256 344 256 344 253 240 c 128,-1,18
 250 136 250 136 248 31 c 0,19,20
 247.328358209 0.776119402985 247.328358209 0.776119402985 216.432835821 0.776119402985 c 0,21,22
 201.328358209 0.776119402985 201.328358209 0.776119402985 179 8 c 0,23,24
 111 30 111 30 105 98 c 0,25,26
 88 260 88 260 75.5 460 c 128,-1,27
 63 660 63 660 58.5 854.5 c 0,28,29
 56.6590909091 934.068181818 56.6590909091 934.068181818 56.6590909091 1009.36880165 c 0,30,31
 56.6590909091 1118.13636364 56.6590909091 1118.13636364 60.5 1218 c 0,32,33
 67 1387 67 1387 89 1489 c 0,34,35
 98.6860986547 1535.49327354 98.6860986547 1535.49327354 137.769289549 1535.49327354 c 0,36,37
 159.210762332 1535.49327354 159.210762332 1535.49327354 189.5 1521.5 c 0,38,39
 275 1482 275 1482 276 1398 c 0,40,41
 277 1267 277 1267 278.5 1155.5 c 0,42,43
 279 1118.33333333 279 1118.33333333 279 1079.55555556 c 0,44,45
 279 1002 279 1002 277 918 c 1,46,47
 293.888888889 916.08994709 293.888888889 916.08994709 310.570602727 916.08994709 c 0,48,49
 459.828042328 916.08994709 459.828042328 916.08994709 592.5 1069 c 0,50,51
 740 1239 740 1239 839 1441 c 0,52,53
 883.200772201 1531.06949807 883.200772201 1531.06949807 930.53137252 1531.06949807 c 0,54,55
 939.953667954 1531.06949807 939.953667954 1531.06949807 949.5 1527.5 c 0,56,57
 1007 1506 1007 1506 1015 1445 c 0,58,59
 1017.49681529 1423.06369427 1017.49681529 1423.06369427 1017.49681529 1401.11148525 c 0,60,61
 1017.49681529 1299.97452229 1017.49681529 1299.97452229 964.5 1198.5 c 0,62,63
 900 1075 900 1075 790 974.5 c 128,-1,64
 680 874 680 874 539.5 809 c 128,-1,65
 399 744 399 744 262 741 c 1,66,67
 261.714285714 733.857142857 261.714285714 733.857142857 261.714285714 727.775510204 c 0,68,69
 261.714285714 712.571428571 261.714285714 712.571428571 263.5 704 c 0,70,71
 266 692 266 692 266 668 c 1,0,1
EndSplineSet
Validated: 1
EndChar

StartChar: Q
Encoding: 81 81 138
Width: 1147
Flags: W
LayerCount: 2
Fore
SplineSet
214 880 m 1,0,1
 483 883 483 883 626.5 1043.5 c 128,-1,2
 770 1204 770 1204 852 1444 c 0,3,4
 876 1516 876 1516 984.5 1528.5 c 0,5,6
 996.042553191 1529.82978723 996.042553191 1529.82978723 1006.18741512 1529.82978723 c 0,7,8
 1079.82186235 1529.82978723 1079.82186235 1529.82978723 1079.82186235 1459.77272206 c 0,9,10
 1079.82186235 1448.75303644 1079.82186235 1448.75303644 1078 1436 c 0,11,12
 1060 1315 1060 1315 975.5 1189.5 c 128,-1,13
 891 1064 891 1064 767 963.5 c 128,-1,14
 643 863 643 863 494.5 802.5 c 0,15,16
 367.063829787 750.581560284 367.063829787 750.581560284 241.468738997 750.581560284 c 0,17,18
 220.709219858 750.581560284 220.709219858 750.581560284 200 752 c 1,19,20
 186 560 186 560 179 385.5 c 128,-1,21
 172 211 172 211 151 19 c 0,22,23
 148.568627451 0.156862745098 148.568627451 0.156862745098 131.912533641 0.156862745098 c 0,24,25
 121.166666667 0.156862745098 121.166666667 0.156862745098 104.5 8 c 0,26,27
 62 28 62 28 62 66 c 0,28,29
 55.52 318 55.52 318 55.52 564.0384 c 0,30,31
 55.52 659.72 55.52 659.72 56.5 754.5 c 0,32,33
 60 1093 60 1093 62 1444 c 0,34,35
 62 1530.7 62 1530.7 130.99875 1530.7 c 0,36,37
 143.175 1530.7 143.175 1530.7 157.5 1528 c 0,38,39
 249.16080402 1510.72361809 249.16080402 1510.72361809 249.16080402 1434.48953309 c 0,40,41
 249.16080402 1431.29648241 249.16080402 1431.29648241 249 1428 c 0,42,43
 240 1289 240 1289 231.5 1152 c 128,-1,44
 223 1015 223 1015 214 880 c 1,0,1
EndSplineSet
Validated: 1
EndChar

StartChar: q
Encoding: 113 113 139
Width: 1147
Flags: W
LayerCount: 2
Fore
SplineSet
214 880 m 1,0,1
 483 883 483 883 626.5 1043.5 c 128,-1,2
 770 1204 770 1204 852 1444 c 0,3,4
 876 1516 876 1516 984.5 1528.5 c 0,5,6
 996.042553191 1529.82978723 996.042553191 1529.82978723 1006.18741512 1529.82978723 c 0,7,8
 1079.82186235 1529.82978723 1079.82186235 1529.82978723 1079.82186235 1459.77272206 c 0,9,10
 1079.82186235 1448.75303644 1079.82186235 1448.75303644 1078 1436 c 0,11,12
 1060 1315 1060 1315 975.5 1189.5 c 128,-1,13
 891 1064 891 1064 767 963.5 c 128,-1,14
 643 863 643 863 494.5 802.5 c 0,15,16
 367.063829787 750.581560284 367.063829787 750.581560284 241.468738997 750.581560284 c 0,17,18
 220.709219858 750.581560284 220.709219858 750.581560284 200 752 c 1,19,20
 186 560 186 560 179 385.5 c 128,-1,21
 172 211 172 211 151 19 c 0,22,23
 148.568627451 0.156862745098 148.568627451 0.156862745098 131.912533641 0.156862745098 c 0,24,25
 121.166666667 0.156862745098 121.166666667 0.156862745098 104.5 8 c 0,26,27
 62 28 62 28 62 66 c 0,28,29
 55.52 318 55.52 318 55.52 564.0384 c 0,30,31
 55.52 659.72 55.52 659.72 56.5 754.5 c 0,32,33
 60 1093 60 1093 62 1444 c 0,34,35
 62 1530.7 62 1530.7 130.99875 1530.7 c 0,36,37
 143.175 1530.7 143.175 1530.7 157.5 1528 c 0,38,39
 249.16080402 1510.72361809 249.16080402 1510.72361809 249.16080402 1434.48953309 c 0,40,41
 249.16080402 1431.29648241 249.16080402 1431.29648241 249 1428 c 0,42,43
 240 1289 240 1289 231.5 1152 c 128,-1,44
 223 1015 223 1015 214 880 c 1,0,1
EndSplineSet
Validated: 1
EndChar

StartChar: R
Encoding: 82 82 140
Width: 1267
Flags: W
LayerCount: 2
Fore
SplineSet
413 536 m 0,0,1
 397.219178082 550.465753425 397.219178082 550.465753425 397.219178082 571.416776131 c 0,2,3
 397.219178082 582.328767123 397.219178082 582.328767123 401.5 595 c 0,4,5
 414 632 414 632 443 657 c 1,6,7
 540 771 540 771 636 856 c 128,-1,8
 732 941 732 941 848 1030 c 1,9,10
 686 1090 686 1090 528.5 1158 c 128,-1,11
 371 1226 371 1226 211 1301 c 1,12,13
 214 1052 214 1052 219.5 813 c 0,14,15
 223.058823529 658.352941176 223.058823529 658.352941176 223.058823529 495.750865052 c 0,16,17
 223.058823529 407.058823529 223.058823529 407.058823529 222 316 c 0,18,19
 221 269 221 269 198 198 c 128,-1,20
 175 127 175 127 147 73.5 c 128,-1,21
 119 20 119 20 95.5 5 c 0,22,23
 91.09375 2.1875 91.09375 2.1875 87.513671875 2.1875 c 0,24,25
 72 2.1875 72 2.1875 72 55 c 0,26,27
 68 405 68 405 61.5 755 c 128,-1,28
 55 1105 55 1105 52 1458 c 0,29,30
 51.975308642 1459.2345679 51.975308642 1459.2345679 51.975308642 1460.44962658 c 0,31,32
 51.975308642 1508.44444444 51.975308642 1508.44444444 90.5 1526 c 0,33,34
 116.833333333 1538 116.833333333 1538 141.166666667 1538 c 0,35,36
 153.333333333 1538 153.333333333 1538 165 1535 c 0,37,38
 174 1533 174 1533 186 1529 c 0,39,40
 402 1437 402 1437 602.5 1319.5 c 128,-1,41
 803 1202 803 1202 977 1069 c 0,42,43
 995 1060 995 1060 1012 1042 c 0,44,45
 1013 1041 1013 1041 1014 1040 c 128,-1,46
 1015 1039 1015 1039 1017 1039 c 1,47,48
 1017 1038 1017 1038 1016.5 1038 c 128,-1,49
 1016 1038 1016 1038 1016 1038 c 1,50,51
 1046.58181818 1001.09090909 1046.58181818 1001.09090909 1046.58181818 970.854214876 c 0,52,53
 1046.58181818 943.745454545 1046.58181818 943.745454545 1022 922 c 0,54,55
 907 821 907 821 800 756 c 128,-1,56
 693 691 693 691 579 635 c 1,57,58
 751 502 751 502 896.5 363 c 128,-1,59
 1042 224 1042 224 1179 67 c 0,60,61
 1193.79245283 49.5660377358 1193.79245283 49.5660377358 1193.79245283 35.4813100748 c 0,62,63
 1193.79245283 22.9056603774 1193.79245283 22.9056603774 1182 13 c 0,64,65
 1168.18421053 1.39473684211 1168.18421053 1.39473684211 1151.92520776 1.39473684211 c 0,66,67
 1138.76315789 1.39473684211 1138.76315789 1.39473684211 1124 9 c 0,68,69
 913 123 913 123 754 245.5 c 128,-1,70
 595 368 595 368 413 536 c 0,0,1
EndSplineSet
Validated: 1
EndChar

StartChar: r
Encoding: 114 114 141
Width: 1267
Flags: W
LayerCount: 2
Fore
SplineSet
413 536 m 0,0,1
 397.219178082 550.465753425 397.219178082 550.465753425 397.219178082 571.416776131 c 0,2,3
 397.219178082 582.328767123 397.219178082 582.328767123 401.5 595 c 0,4,5
 414 632 414 632 443 657 c 1,6,7
 540 771 540 771 636 856 c 128,-1,8
 732 941 732 941 848 1030 c 1,9,10
 686 1090 686 1090 528.5 1158 c 128,-1,11
 371 1226 371 1226 211 1301 c 1,12,13
 214 1052 214 1052 219.5 813 c 0,14,15
 223.058823529 658.352941176 223.058823529 658.352941176 223.058823529 495.750865052 c 0,16,17
 223.058823529 407.058823529 223.058823529 407.058823529 222 316 c 0,18,19
 221 269 221 269 198 198 c 128,-1,20
 175 127 175 127 147 73.5 c 128,-1,21
 119 20 119 20 95.5 5 c 0,22,23
 91.09375 2.1875 91.09375 2.1875 87.513671875 2.1875 c 0,24,25
 72 2.1875 72 2.1875 72 55 c 0,26,27
 68 405 68 405 61.5 755 c 128,-1,28
 55 1105 55 1105 52 1458 c 0,29,30
 51.975308642 1459.2345679 51.975308642 1459.2345679 51.975308642 1460.44962658 c 0,31,32
 51.975308642 1508.44444444 51.975308642 1508.44444444 90.5 1526 c 0,33,34
 116.833333333 1538 116.833333333 1538 141.166666667 1538 c 0,35,36
 153.333333333 1538 153.333333333 1538 165 1535 c 0,37,38
 174 1533 174 1533 186 1529 c 0,39,40
 402 1437 402 1437 602.5 1319.5 c 128,-1,41
 803 1202 803 1202 977 1069 c 0,42,43
 995 1060 995 1060 1012 1042 c 0,44,45
 1013 1041 1013 1041 1014 1040 c 128,-1,46
 1015 1039 1015 1039 1017 1039 c 1,47,48
 1017 1038 1017 1038 1016.5 1038 c 128,-1,49
 1016 1038 1016 1038 1016 1038 c 1,50,51
 1046.58181818 1001.09090909 1046.58181818 1001.09090909 1046.58181818 970.854214876 c 0,52,53
 1046.58181818 943.745454545 1046.58181818 943.745454545 1022 922 c 0,54,55
 907 821 907 821 800 756 c 128,-1,56
 693 691 693 691 579 635 c 1,57,58
 751 502 751 502 896.5 363 c 128,-1,59
 1042 224 1042 224 1179 67 c 0,60,61
 1193.79245283 49.5660377358 1193.79245283 49.5660377358 1193.79245283 35.4813100748 c 0,62,63
 1193.79245283 22.9056603774 1193.79245283 22.9056603774 1182 13 c 0,64,65
 1168.18421053 1.39473684211 1168.18421053 1.39473684211 1151.92520776 1.39473684211 c 0,66,67
 1138.76315789 1.39473684211 1138.76315789 1.39473684211 1124 9 c 0,68,69
 913 123 913 123 754 245.5 c 128,-1,70
 595 368 595 368 413 536 c 0,0,1
EndSplineSet
Validated: 1
EndChar

StartChar: S
Encoding: 83 83 142
Width: 1017
Flags: W
LayerCount: 2
Fore
SplineSet
966 1022 m 0,0,1
 954 776 954 776 945 548.5 c 128,-1,2
 936 321 936 321 921 77 c 0,3,4
 918 35 918 35 876.5 10 c 0,5,6
 862.287671233 1.43835616438 862.287671233 1.43835616438 852.356164384 1.43835616438 c 0,7,8
 833.287671233 1.43835616438 833.287671233 1.43835616438 830 33 c 0,9,10
 807 246 807 246 796.5 447.5 c 128,-1,11
 786 649 786 649 765 857 c 1,12,13
 725 833 725 833 643.5 786.5 c 128,-1,14
 562 740 562 740 471 694.5 c 128,-1,15
 380 649 380 649 297 616.5 c 0,16,17
 223.095890411 587.561643836 223.095890411 587.561643836 181.697879527 587.561643836 c 0,18,19
 176.602739726 587.561643836 176.602739726 587.561643836 172 588 c 0,20,21
 142 590 142 590 114 612.5 c 128,-1,22
 86 635 86 635 84 674 c 0,23,24
 72 873 72 873 61.5 1061 c 0,25,26
 51.9130434783 1232.65217391 51.9130434783 1232.65217391 51.9130434783 1414.30812854 c 0,27,28
 51.9130434783 1431.60869565 51.9130434783 1431.60869565 52 1449 c 0,29,30
 52 1534.55625 52 1534.55625 106.809472656 1534.55625 c 0,31,32
 126.953125 1534.55625 126.953125 1534.55625 154.5 1523 c 0,33,34
 254.085308057 1481.22274882 254.085308057 1481.22274882 254.085308057 1416.79101997 c 0,35,36
 254.085308057 1414.90521327 254.085308057 1414.90521327 254 1413 c 0,37,38
 245 1224 245 1224 238.5 1071.5 c 128,-1,39
 232 919 232 919 226 731 c 1,40,41
 366 844 366 844 493 921.5 c 128,-1,42
 620 999 620 999 779 1089 c 0,43,44
 805.194444444 1103.69444444 805.194444444 1103.69444444 845.062885802 1103.69444444 c 0,45,46
 867.597222222 1103.69444444 867.597222222 1103.69444444 894.5 1099 c 0,47,48
 966.116129032 1086.50322581 966.116129032 1086.50322581 966.116129032 1026.87841831 c 0,49,50
 966.116129032 1024.47741935 966.116129032 1024.47741935 966 1022 c 0,0,1
EndSplineSet
Validated: 1
EndChar

StartChar: s
Encoding: 115 115 143
Width: 1017
Flags: W
LayerCount: 2
Fore
SplineSet
966 1022 m 0,0,1
 954 776 954 776 945 548.5 c 128,-1,2
 936 321 936 321 921 77 c 0,3,4
 918 35 918 35 876.5 10 c 0,5,6
 862.287671233 1.43835616438 862.287671233 1.43835616438 852.356164384 1.43835616438 c 0,7,8
 833.287671233 1.43835616438 833.287671233 1.43835616438 830 33 c 0,9,10
 807 246 807 246 796.5 447.5 c 128,-1,11
 786 649 786 649 765 857 c 1,12,13
 725 833 725 833 643.5 786.5 c 128,-1,14
 562 740 562 740 471 694.5 c 128,-1,15
 380 649 380 649 297 616.5 c 0,16,17
 223.095890411 587.561643836 223.095890411 587.561643836 181.697879527 587.561643836 c 0,18,19
 176.602739726 587.561643836 176.602739726 587.561643836 172 588 c 0,20,21
 142 590 142 590 114 612.5 c 128,-1,22
 86 635 86 635 84 674 c 0,23,24
 72 873 72 873 61.5 1061 c 0,25,26
 51.9130434783 1232.65217391 51.9130434783 1232.65217391 51.9130434783 1414.30812854 c 0,27,28
 51.9130434783 1431.60869565 51.9130434783 1431.60869565 52 1449 c 0,29,30
 52 1534.55625 52 1534.55625 106.809472656 1534.55625 c 0,31,32
 126.953125 1534.55625 126.953125 1534.55625 154.5 1523 c 0,33,34
 254.085308057 1481.22274882 254.085308057 1481.22274882 254.085308057 1416.79101997 c 0,35,36
 254.085308057 1414.90521327 254.085308057 1414.90521327 254 1413 c 0,37,38
 245 1224 245 1224 238.5 1071.5 c 128,-1,39
 232 919 232 919 226 731 c 1,40,41
 366 844 366 844 493 921.5 c 128,-1,42
 620 999 620 999 779 1089 c 0,43,44
 805.194444444 1103.69444444 805.194444444 1103.69444444 845.062885802 1103.69444444 c 0,45,46
 867.597222222 1103.69444444 867.597222222 1103.69444444 894.5 1099 c 0,47,48
 966.116129032 1086.50322581 966.116129032 1086.50322581 966.116129032 1026.87841831 c 0,49,50
 966.116129032 1024.47741935 966.116129032 1024.47741935 966 1022 c 0,0,1
EndSplineSet
Validated: 1
EndChar

StartChar: T
Encoding: 84 84 144
Width: 1085
Flags: W
LayerCount: 2
Fore
SplineSet
557 1537 m 0,0,1
 599 1526 599 1526 666.5 1461 c 128,-1,2
 734 1396 734 1396 803.5 1314.5 c 128,-1,3
 873 1233 873 1233 933.5 1154.5 c 128,-1,4
 994 1076 994 1076 1022 1039 c 0,5,6
 1027.14285714 1031.28571429 1027.14285714 1031.28571429 1027.14285714 1023.57142857 c 0,7,8
 1027.14285714 1013.28571429 1027.14285714 1013.28571429 1018 1003 c 128,-1,9
 1008.70967742 992.548387097 1008.70967742 992.548387097 998.070759625 992.548387097 c 0,10,11
 990.387096774 992.548387097 990.387096774 992.548387097 982 998 c 0,12,13
 902 1045 902 1045 826 1094.5 c 128,-1,14
 750 1144 750 1144 670 1204 c 1,15,16
 675.647058824 1066.58823529 675.647058824 1066.58823529 675.647058824 931.280276817 c 0,17,18
 675.647058824 779.058823529 675.647058824 779.058823529 668.5 629.5 c 0,19,20
 655 347 655 347 634 65 c 1,21,22
 623.902912621 2.8640776699 623.902912621 2.8640776699 597.517767933 2.8640776699 c 0,23,24
 589.932038835 2.8640776699 589.932038835 2.8640776699 581 8 c 0,25,26
 541 31 541 31 537 101 c 0,27,28
 525 447 525 447 513 685 c 128,-1,29
 501 923 501 923 396 1211 c 1,30,31
 321 1157 321 1157 255.5 1094.5 c 128,-1,32
 190 1032 190 1032 115 978 c 0,33,34
 109 973.6 109 973.6 101.8 973.6 c 0,35,36
 91 973.6 91 973.6 77.5 983.5 c 0,37,38
 63.2394366197 993.957746479 63.2394366197 993.957746479 63.2394366197 1007.42828804 c 0,39,40
 63.2394366197 1015.21126761 63.2394366197 1015.21126761 68 1024 c 0,41,42
 102 1076 102 1076 171 1166 c 128,-1,43
 240 1256 240 1256 315 1341 c 128,-1,44
 390 1426 390 1426 457 1485.5 c 0,45,46
 516.059259259 1537.94814815 516.059259259 1537.94814815 548.700192044 1537.94814815 c 0,47,48
 553.088888889 1537.94814815 553.088888889 1537.94814815 557 1537 c 0,0,1
EndSplineSet
Validated: 1
EndChar

StartChar: t
Encoding: 116 116 145
Width: 1085
Flags: W
LayerCount: 2
Fore
SplineSet
557 1537 m 0,0,1
 599 1526 599 1526 666.5 1461 c 128,-1,2
 734 1396 734 1396 803.5 1314.5 c 128,-1,3
 873 1233 873 1233 933.5 1154.5 c 128,-1,4
 994 1076 994 1076 1022 1039 c 0,5,6
 1027.14285714 1031.28571429 1027.14285714 1031.28571429 1027.14285714 1023.57142857 c 0,7,8
 1027.14285714 1013.28571429 1027.14285714 1013.28571429 1018 1003 c 128,-1,9
 1008.70967742 992.548387097 1008.70967742 992.548387097 998.070759625 992.548387097 c 0,10,11
 990.387096774 992.548387097 990.387096774 992.548387097 982 998 c 0,12,13
 902 1045 902 1045 826 1094.5 c 128,-1,14
 750 1144 750 1144 670 1204 c 1,15,16
 675.647058824 1066.58823529 675.647058824 1066.58823529 675.647058824 931.280276817 c 0,17,18
 675.647058824 779.058823529 675.647058824 779.058823529 668.5 629.5 c 0,19,20
 655 347 655 347 634 65 c 1,21,22
 623.902912621 2.8640776699 623.902912621 2.8640776699 597.517767933 2.8640776699 c 0,23,24
 589.932038835 2.8640776699 589.932038835 2.8640776699 581 8 c 0,25,26
 541 31 541 31 537 101 c 0,27,28
 525 447 525 447 513 685 c 128,-1,29
 501 923 501 923 396 1211 c 1,30,31
 321 1157 321 1157 255.5 1094.5 c 128,-1,32
 190 1032 190 1032 115 978 c 0,33,34
 109 973.6 109 973.6 101.8 973.6 c 0,35,36
 91 973.6 91 973.6 77.5 983.5 c 0,37,38
 63.2394366197 993.957746479 63.2394366197 993.957746479 63.2394366197 1007.42828804 c 0,39,40
 63.2394366197 1015.21126761 63.2394366197 1015.21126761 68 1024 c 0,41,42
 102 1076 102 1076 171 1166 c 128,-1,43
 240 1256 240 1256 315 1341 c 128,-1,44
 390 1426 390 1426 457 1485.5 c 0,45,46
 516.059259259 1537.94814815 516.059259259 1537.94814815 548.700192044 1537.94814815 c 0,47,48
 553.088888889 1537.94814815 553.088888889 1537.94814815 557 1537 c 0,0,1
EndSplineSet
Validated: 1
EndChar

StartChar: U
Encoding: 85 85 146
Width: 1452
Flags: W
LayerCount: 2
Fore
SplineSet
1142 975 m 0,0,1
 1142.01005025 975.070351759 1142.01005025 975.070351759 1142.01005025 975.14514785 c 0,2,3
 1142.01005025 982.512562814 1142.01005025 982.512562814 1044.5 1033 c 0,4,5
 946 1084 946 1084 820.5 1144.5 c 128,-1,6
 695 1205 695 1205 579 1259.5 c 128,-1,7
 463 1314 463 1314 430 1329 c 1,8,9
 376 1001 376 1001 299.5 620 c 128,-1,10
 223 239 223 239 138 25 c 0,11,12
 126.852459016 -1.22950819672 126.852459016 -1.22950819672 108.395055093 -1.22950819672 c 0,13,14
 98.7049180328 -1.22950819672 98.7049180328 -1.22950819672 87 6 c 0,15,16
 60.1162790698 22.6046511628 60.1162790698 22.6046511628 60.1162790698 55.4645754462 c 0,17,18
 60.1162790698 64.1627906977 60.1162790698 64.1627906977 62 74 c 0,19,20
 123 414 123 414 170.5 746 c 128,-1,21
 218 1078 218 1078 234 1446 c 1,22,23
 230.808510638 1456.85106383 230.808510638 1456.85106383 230.808510638 1466.38931643 c 0,24,25
 230.808510638 1501.68085106 230.808510638 1501.68085106 274.5 1519 c 0,26,27
 307.5 1532.08108108 307.5 1532.08108108 334.666544923 1532.08108108 c 0,28,29
 353.189189189 1532.08108108 353.189189189 1532.08108108 369 1526 c 0,30,31
 630 1418 630 1418 864.5 1283.5 c 128,-1,32
 1099 1149 1099 1149 1336 980 c 0,33,34
 1358 964 1358 964 1362 941 c 0,35,36
 1380.76595745 747.978723404 1380.76595745 747.978723404 1380.76595745 554.558171118 c 0,37,38
 1380.76595745 531.531914894 1380.76595745 531.531914894 1380.5 508.5 c 0,39,40
 1378 292 1378 292 1364 85 c 0,41,42
 1362 71 1362 71 1334 60 c 0,43,44
 1321.16666667 54.9583333333 1321.16666667 54.9583333333 1313.375 54.9583333333 c 0,45,46
 1304.16666667 54.9583333333 1304.16666667 54.9583333333 1302 62 c 0,47,48
 1239 263 1239 263 1180.5 533 c 0,49,50
 1136.9044586 734.210191083 1136.9044586 734.210191083 1136.9044586 880.995375066 c 0,51,52
 1136.9044586 931.178343949 1136.9044586 931.178343949 1142 975 c 0,0,1
EndSplineSet
Validated: 1
EndChar

StartChar: u
Encoding: 117 117 147
Width: 1452
Flags: W
LayerCount: 2
Fore
SplineSet
1142 975 m 0,0,1
 1142.01005025 975.070351759 1142.01005025 975.070351759 1142.01005025 975.14514785 c 0,2,3
 1142.01005025 982.512562814 1142.01005025 982.512562814 1044.5 1033 c 0,4,5
 946 1084 946 1084 820.5 1144.5 c 128,-1,6
 695 1205 695 1205 579 1259.5 c 128,-1,7
 463 1314 463 1314 430 1329 c 1,8,9
 376 1001 376 1001 299.5 620 c 128,-1,10
 223 239 223 239 138 25 c 0,11,12
 126.852459016 -1.22950819672 126.852459016 -1.22950819672 108.395055093 -1.22950819672 c 0,13,14
 98.7049180328 -1.22950819672 98.7049180328 -1.22950819672 87 6 c 0,15,16
 60.1162790698 22.6046511628 60.1162790698 22.6046511628 60.1162790698 55.4645754462 c 0,17,18
 60.1162790698 64.1627906977 60.1162790698 64.1627906977 62 74 c 0,19,20
 123 414 123 414 170.5 746 c 128,-1,21
 218 1078 218 1078 234 1446 c 1,22,23
 230.808510638 1456.85106383 230.808510638 1456.85106383 230.808510638 1466.38931643 c 0,24,25
 230.808510638 1501.68085106 230.808510638 1501.68085106 274.5 1519 c 0,26,27
 307.5 1532.08108108 307.5 1532.08108108 334.666544923 1532.08108108 c 0,28,29
 353.189189189 1532.08108108 353.189189189 1532.08108108 369 1526 c 0,30,31
 630 1418 630 1418 864.5 1283.5 c 128,-1,32
 1099 1149 1099 1149 1336 980 c 0,33,34
 1358 964 1358 964 1362 941 c 0,35,36
 1380.76595745 747.978723404 1380.76595745 747.978723404 1380.76595745 554.558171118 c 0,37,38
 1380.76595745 531.531914894 1380.76595745 531.531914894 1380.5 508.5 c 0,39,40
 1378 292 1378 292 1364 85 c 0,41,42
 1362 71 1362 71 1334 60 c 0,43,44
 1321.16666667 54.9583333333 1321.16666667 54.9583333333 1313.375 54.9583333333 c 0,45,46
 1304.16666667 54.9583333333 1304.16666667 54.9583333333 1302 62 c 0,47,48
 1239 263 1239 263 1180.5 533 c 0,49,50
 1136.9044586 734.210191083 1136.9044586 734.210191083 1136.9044586 880.995375066 c 0,51,52
 1136.9044586 931.178343949 1136.9044586 931.178343949 1142 975 c 0,0,1
EndSplineSet
Validated: 1
EndChar

StartChar: V
Encoding: 86 86 148
Width: 1540
Flags: W
LayerCount: 2
Fore
SplineSet
609 1439 m 0,0,1
 609 1440 609 1440 631 1475 c 1,2,3
 631 1474 631 1474 632 1474 c 0,4,5
 668 1516 668 1516 719.5 1531.5 c 0,6,7
 733.882882883 1535.82882883 733.882882883 1535.82882883 746.588832075 1535.82882883 c 0,8,9
 779.378378378 1535.82882883 779.378378378 1535.82882883 801 1507 c 0,10,11
 1009 1222 1009 1222 1170.5 855 c 128,-1,12
 1332 488 1332 488 1441 113 c 0,13,14
 1451.90322581 71.064516129 1451.90322581 71.064516129 1451.90322581 44.8683662851 c 0,15,16
 1451.90322581 8.59677419355 1451.90322581 8.59677419355 1431 2.5 c 0,17,18
 1425.71328671 0.958041958042 1425.71328671 0.958041958042 1420.49127097 0.958041958042 c 0,19,20
 1390.15384615 0.958041958042 1390.15384615 0.958041958042 1362 53 c 0,21,22
 1185 374 1185 374 1025 617.5 c 128,-1,23
 865 861 865 861 701 1155 c 1,24,25
 561 864 561 864 417 573.5 c 128,-1,26
 273 283 273 283 108 42 c 0,27,28
 96.1603053435 25.1374045802 96.1603053435 25.1374045802 87.4743021968 25.1374045802 c 0,29,30
 71.9503816794 25.1374045802 71.9503816794 25.1374045802 66.5 79 c 0,31,32
 64.131147541 102.409836066 64.131147541 102.409836066 64.131147541 123.567320613 c 0,33,34
 64.131147541 178.327868852 64.131147541 178.327868852 80 218 c 0,35,36
 179 468 179 468 302 798 c 128,-1,37
 425 1128 425 1128 609 1439 c 0,0,1
EndSplineSet
Validated: 1
EndChar

StartChar: v
Encoding: 118 118 149
Width: 1540
Flags: W
LayerCount: 2
Fore
SplineSet
609 1439 m 0,0,1
 609 1440 609 1440 631 1475 c 1,2,3
 631 1474 631 1474 632 1474 c 0,4,5
 668 1516 668 1516 719.5 1531.5 c 0,6,7
 733.882882883 1535.82882883 733.882882883 1535.82882883 746.588832075 1535.82882883 c 0,8,9
 779.378378378 1535.82882883 779.378378378 1535.82882883 801 1507 c 0,10,11
 1009 1222 1009 1222 1170.5 855 c 128,-1,12
 1332 488 1332 488 1441 113 c 0,13,14
 1451.90322581 71.064516129 1451.90322581 71.064516129 1451.90322581 44.8683662851 c 0,15,16
 1451.90322581 8.59677419355 1451.90322581 8.59677419355 1431 2.5 c 0,17,18
 1425.71328671 0.958041958042 1425.71328671 0.958041958042 1420.49127097 0.958041958042 c 0,19,20
 1390.15384615 0.958041958042 1390.15384615 0.958041958042 1362 53 c 0,21,22
 1185 374 1185 374 1025 617.5 c 128,-1,23
 865 861 865 861 701 1155 c 1,24,25
 561 864 561 864 417 573.5 c 128,-1,26
 273 283 273 283 108 42 c 0,27,28
 96.1603053435 25.1374045802 96.1603053435 25.1374045802 87.4743021968 25.1374045802 c 0,29,30
 71.9503816794 25.1374045802 71.9503816794 25.1374045802 66.5 79 c 0,31,32
 64.131147541 102.409836066 64.131147541 102.409836066 64.131147541 123.567320613 c 0,33,34
 64.131147541 178.327868852 64.131147541 178.327868852 80 218 c 0,35,36
 179 468 179 468 302 798 c 128,-1,37
 425 1128 425 1128 609 1439 c 0,0,1
EndSplineSet
Validated: 1
EndChar

StartChar: W
Encoding: 87 87 150
Width: 1494
Flags: W
LayerCount: 2
Fore
SplineSet
1193 1479 m 0,0,1
 1194.94539249 1540.60409556 1194.94539249 1540.60409556 1243.35667276 1540.60409556 c 0,2,3
 1269.60068259 1540.60409556 1269.60068259 1540.60409556 1309.5 1522.5 c 0,4,5
 1420.07725322 1472.32618026 1420.07725322 1472.32618026 1420.07725322 1383.71134116 c 0,6,7
 1420.07725322 1381.36909871 1420.07725322 1381.36909871 1420 1379 c 0,8,9
 1406 1054 1406 1054 1396 766 c 128,-1,10
 1386 478 1386 478 1338 171 c 0,11,12
 1327.13227513 104.957671958 1327.13227513 104.957671958 1309.27594412 104.957671958 c 0,13,14
 1305.77248677 104.957671958 1305.77248677 104.957671958 1302 107.5 c 0,15,16
 1279 123 1279 123 1273 171 c 0,17,18
 1266 216 1266 216 1260 260.5 c 128,-1,19
 1254 305 1254 305 1248 348 c 1,20,21
 999 442 999 442 755 544.5 c 128,-1,22
 511 647 511 647 286 767 c 1,23,24
 279 581 279 581 272 397.5 c 128,-1,25
 265 214 265 214 249 31 c 0,26,27
 246.223880597 2.31343283582 246.223880597 2.31343283582 218.186455781 2.31343283582 c 0,28,29
 215.925373134 2.31343283582 215.925373134 2.31343283582 213.5 2.5 c 0,30,31
 181 5 181 5 175 51 c 0,32,33
 127 375 127 375 104.5 702.5 c 128,-1,34
 82 1030 82 1030 60 1363 c 0,35,36
 59.5720524017 1369.29694323 59.5720524017 1369.29694323 59.5720524017 1375.31544021 c 0,37,38
 59.5720524017 1467.74235808 59.5720524017 1467.74235808 160.5 1494.5 c 0,39,40
 184.342412451 1500.82101167 184.342412451 1500.82101167 203.290345047 1500.82101167 c 0,41,42
 269.774319066 1500.82101167 269.774319066 1500.82101167 276 1423 c 0,43,44
 278 1387 278 1387 280 1352 c 128,-1,45
 282 1317 282 1317 284 1282 c 1,46,47
 523 1155 523 1155 753.5 1019.5 c 128,-1,48
 984 884 984 884 1207 729 c 1,49,50
 1192 896 1192 896 1188 1070.5 c 0,51,52
 1186.76923077 1124.19230769 1186.76923077 1124.19230769 1186.76923077 1183.51775148 c 0,53,54
 1186.76923077 1317 1186.76923077 1317 1193 1479 c 0,0,1
1238 435 m 1,55,56
 1232 480 1232 480 1226.5 518.5 c 128,-1,57
 1221 557 1221 557 1217 602 c 1,58,59
 977 704 977 704 741.5 822 c 128,-1,60
 506 940 506 940 290 1076 c 1,61,62
 290 1047 290 1047 290 1018.5 c 128,-1,63
 290 990 290 990 290 962 c 1,64,65
 531 837 531 837 772 712.5 c 128,-1,66
 1013 588 1013 588 1238 435 c 1,55,56
EndSplineSet
Validated: 1
EndChar

StartChar: w
Encoding: 119 119 151
Width: 1494
Flags: W
LayerCount: 2
Fore
SplineSet
1193 1479 m 0,0,1
 1194.94539249 1540.60409556 1194.94539249 1540.60409556 1243.35667276 1540.60409556 c 0,2,3
 1269.60068259 1540.60409556 1269.60068259 1540.60409556 1309.5 1522.5 c 0,4,5
 1420.07725322 1472.32618026 1420.07725322 1472.32618026 1420.07725322 1383.71134116 c 0,6,7
 1420.07725322 1381.36909871 1420.07725322 1381.36909871 1420 1379 c 0,8,9
 1406 1054 1406 1054 1396 766 c 128,-1,10
 1386 478 1386 478 1338 171 c 0,11,12
 1327.13227513 104.957671958 1327.13227513 104.957671958 1309.27594412 104.957671958 c 0,13,14
 1305.77248677 104.957671958 1305.77248677 104.957671958 1302 107.5 c 0,15,16
 1279 123 1279 123 1273 171 c 0,17,18
 1266 216 1266 216 1260 260.5 c 128,-1,19
 1254 305 1254 305 1248 348 c 1,20,21
 999 442 999 442 755 544.5 c 128,-1,22
 511 647 511 647 286 767 c 1,23,24
 279 581 279 581 272 397.5 c 128,-1,25
 265 214 265 214 249 31 c 0,26,27
 246.223880597 2.31343283582 246.223880597 2.31343283582 218.186455781 2.31343283582 c 0,28,29
 215.925373134 2.31343283582 215.925373134 2.31343283582 213.5 2.5 c 0,30,31
 181 5 181 5 175 51 c 0,32,33
 127 375 127 375 104.5 702.5 c 128,-1,34
 82 1030 82 1030 60 1363 c 0,35,36
 59.5720524017 1369.29694323 59.5720524017 1369.29694323 59.5720524017 1375.31544021 c 0,37,38
 59.5720524017 1467.74235808 59.5720524017 1467.74235808 160.5 1494.5 c 0,39,40
 184.342412451 1500.82101167 184.342412451 1500.82101167 203.290345047 1500.82101167 c 0,41,42
 269.774319066 1500.82101167 269.774319066 1500.82101167 276 1423 c 0,43,44
 278 1387 278 1387 280 1352 c 128,-1,45
 282 1317 282 1317 284 1282 c 1,46,47
 523 1155 523 1155 753.5 1019.5 c 128,-1,48
 984 884 984 884 1207 729 c 1,49,50
 1192 896 1192 896 1188 1070.5 c 0,51,52
 1186.76923077 1124.19230769 1186.76923077 1124.19230769 1186.76923077 1183.51775148 c 0,53,54
 1186.76923077 1317 1186.76923077 1317 1193 1479 c 0,0,1
1238 435 m 1,55,56
 1232 480 1232 480 1226.5 518.5 c 128,-1,57
 1221 557 1221 557 1217 602 c 1,58,59
 977 704 977 704 741.5 822 c 128,-1,60
 506 940 506 940 290 1076 c 1,61,62
 290 1047 290 1047 290 1018.5 c 128,-1,63
 290 990 290 990 290 962 c 1,64,65
 531 837 531 837 772 712.5 c 128,-1,66
 1013 588 1013 588 1238 435 c 1,55,56
EndSplineSet
Validated: 1
EndChar

